M48
; DRILL file {KiCad 7.0.7} date Tue Feb 20 17:11:55 2024
; FORMAT={-:-/ absolute / inch / decimal}
; #@! TF.CreationDate,2024-02-20T17:11:55+02:00
; #@! TF.GenerationSoftware,Kicad,Pcbnew,7.0.7
; #@! TF.FileFunction,Plated,1,2,PTH
FMAT,2
INCH
; #@! TA.AperFunction,Plated,PTH,ViaDrill
T1C0.0157
; #@! TA.AperFunction,Plated,PTH,ComponentDrill
T2C0.0236
; #@! TA.AperFunction,Plated,PTH,ComponentDrill
T3C0.0394
; #@! TA.AperFunction,Plated,PTH,ComponentDrill
T4C0.0402
%
G90
G05
T1
X1.2569Y-2.7538
X1.2571Y-3.5531
X1.4409Y-3.5559
X1.4611Y-3.3569
X1.4681Y-1.4607
X1.4691Y-2.6059
X1.5312Y-1.6999
X1.5478Y-2.6897
X1.5744Y-2.3579
X1.5865Y-4.3473
X1.6752Y-1.7981
X1.7419Y-1.1725
X1.7487Y-4.8564
X1.798Y-3.4343
X1.8328Y-5.3015
X1.8522Y-5.2559
X1.8681Y-4.1843
X1.8916Y-5.2185
X1.8931Y-5.1622
X1.9026Y-2.9798
X1.903Y-3.2878
X1.9242Y-5.6057
X1.9495Y-3.7285
X2.0073Y-2.6059
X2.1623Y-4.5423
X2.1703Y-3.3569
X2.2229Y-4.8564
X2.2507Y-2.3762
X2.2802Y-5.6057
X2.2927Y-2.685
X2.3529Y-3.2584
X2.3938Y-2.9791
X2.4245Y-2.23
X2.4353Y-4.0451
X2.4922Y-5.4271
X2.514Y-4.1415
X2.5323Y-4.0203
X2.5529Y-2.3102
X2.6298Y-5.0911
X2.6431Y-3.4803
X2.6579Y-5.1596
X2.6596Y-1.6999
X2.7664Y-3.9185
X2.803Y-4.0577
X2.8548Y-4.1843
X2.8943Y-5.084
X2.9788Y-1.4483
X3.0472Y-5.4586
X3.0564Y-3.5169
X3.0954Y-1.7007
X3.1061Y-3.5251
X3.117Y-2.5502
X3.1322Y-3.9583
X3.1324Y-1.7586
X3.1496Y-3.3365
X3.1525Y-4.1052
X3.1619Y-2.6408
X3.2061Y-4.9643
X3.2179Y-5.6057
X3.2666Y-4.6315
X3.2823Y-4.0203
X3.3025Y-4.8455
X3.3312Y-2.4572
X3.3316Y-4.9232
X3.472Y-1.3943
X3.5036Y-3.4859
X3.5061Y-1.7007
X3.5076Y-2.6059
X3.5091Y-4.9232
X3.5308Y-4.8726
X3.5659Y-3.0155
X3.6009Y-5.1226
X3.6018Y-4.1843
X3.6385Y-4.9643
X3.6955Y-2.3866
X3.7258Y-3.7523
X3.7337Y-2.613
X3.7737Y-1.5968
X3.8785Y-1.6524
X3.9145Y-2.9251
X3.982Y-4.1175
X4.0053Y-2.9537
X4.0061Y-2.3866
X4.0769Y-2.4594
X4.0933Y-2.5465
X4.104Y-2.7711
X4.1201Y-3.2996
X4.1263Y-2.5781
X4.1296Y-4.4506
X4.163Y-4.5079
X4.1682Y-3.4343
X4.1834Y-2.8706
X4.1837Y-1.5968
X4.2283Y-2.508
X4.24Y-4.8207
X4.2515Y-2.7711
X4.2749Y-1.4619
X4.2878Y-4.3452
X4.4215Y-4.8561
X4.4326Y-4.1208
X4.4614Y-4.8207
X4.4763Y-3.7424
X4.5704Y-1.7278
X4.5965Y-1.6812
X4.6031Y-3.2566
X4.6117Y-2.5575
X4.6383Y-2.9919
X4.7186Y-4.3452
X4.7359Y-4.6393
X4.7732Y-2.5701
X4.8774Y-3.576
X4.8849Y-4.4913
X4.9423Y-3.8529
X4.9705Y-3.4717
X4.9791Y-2.4969
X4.9956Y-1.7278
X5.0102Y-4.7083
X5.0244Y-1.4619
X5.0271Y-4.2547
X5.0332Y-4.0758
X5.1414Y-3.8846
X5.1608Y-4.8631
X5.2498Y-2.3762
X5.2909Y-1.7002
X5.3129Y-2.7231
X5.3381Y-1.7296
X5.3456Y-3.5045
X5.3738Y-1.9244
X5.3802Y-3.7302
X5.3872Y-2.6469
X5.5455Y-2.3061
X5.5608Y-2.6847
X5.5683Y-4.2547
X5.6136Y-3.3357
X5.6159Y-3.2217
X5.6361Y-3.5072
X5.6639Y-2.9581
X5.665Y-3.4378
X5.6723Y-4.837
X5.7812Y-4.3222
X5.7813Y-4.3922
X5.7939Y-3.8979
X5.8185Y-2.9581
X5.8471Y-4.9352
X5.8827Y-3.8576
X5.9156Y-5.0036
X5.9413Y-2.5626
X5.9922Y-2.5658
X6.0007Y-2.3762
X6.0205Y-1.7002
X6.0299Y-4.617
X6.097Y-3.5299
X6.1281Y-4.0372
X6.1409Y-3.7302
X6.1496Y-4.0766
X6.1592Y-1.4619
X6.201Y-4.9343
X6.201Y-4.9925
X6.2448Y-4.3636
X6.2563Y-2.3762
X6.2823Y-4.0203
X6.3304Y-4.3059
X6.3509Y-1.6997
X6.4013Y-3.6653
X6.4414Y-3.7114
X6.4446Y-4.544
X6.4466Y-1.8451
X6.4554Y-5.0425
X6.4789Y-5.4473
X6.4909Y-2.5012
X6.4924Y-3.4349
X6.5383Y-3.0139
X6.5702Y-4.0763
X6.6883Y-4.0611
X6.6911Y-3.3095
X6.7213Y-1.9244
X6.7423Y-2.7918
X6.7709Y-1.6997
X6.899Y-3.3095
X6.8992Y-5.0113
X6.9165Y-2.9231
X6.9557Y-4.9627
X7.0171Y-2.1727
X7.0874Y-3.322
X7.0925Y-4.6619
X7.1391Y-4.5751
X7.155Y-1.5897
X7.168Y-3.4343
X7.1928Y-4.5215
X7.2087Y-4.3636
X7.2564Y-2.7918
X7.2666Y-4.7074
X7.2732Y-4.0764
X7.2741Y-4.2569
X7.2852Y-1.4286
X7.309Y-1.4628
X7.4449Y-4.8647
X7.4625Y-5.0113
X7.4768Y-3.7431
X7.5251Y-2.7773
X7.5272Y-3.7866
X7.5385Y-1.5897
X7.5447Y-1.4838
X7.5688Y-2.3585
X7.5799Y-2.7075
X7.6037Y-1.3953
X7.6255Y-4.2569
X7.705Y-4.8524
X7.7814Y-3.1184
X7.8002Y-4.8828
X7.815Y-3.3256
X7.863Y-3.3358
X7.8882Y-3.7531
X7.953Y-1.2333
X7.988Y-3.3212
X8.0109Y-2.7773
X8.0321Y-2.3015
X8.0461Y-1.5589
X8.0651Y-4.0761
X8.1016Y-4.8576
X8.1055Y-4.1843
X8.1055Y-4.3409
X8.1306Y-3.1184
X8.1683Y-1.4806
X8.1933Y-2.5689
X8.2172Y-4.8566
X8.2569Y-2.5745
X8.2831Y-3.4087
X8.2864Y-3.9254
X8.2901Y-1.9244
X8.2985Y-1.6206
X8.2985Y-3.4838
X8.3642Y-1.3843
X8.4056Y-2.9787
X8.4263Y-3.81
X8.4509Y-4.9343
X8.5936Y-1.8958
X8.6127Y-3.3357
X8.6289Y-5.0119
X8.6332Y-4.5013
X8.6342Y-2.6495
X8.6385Y-3.576
X8.6728Y-4.8307
X8.6846Y-5.5043
X8.6993Y-1.2326
X8.7752Y-2.6059
X8.7878Y-4.0763
X8.8154Y-4.8001
X8.8551Y-4.185
X8.8912Y-3.8944
X8.9756Y-2.5728
X9.1079Y-3.7988
X9.1112Y-2.6411
X9.1296Y-3.576
X9.1665Y-2.9231
X9.1972Y-4.7914
X9.265Y-5.4874
X9.2652Y-5.6247
X9.3388Y-3.3605
X9.3573Y-4.8246
X9.3661Y-4.3782
X9.3817Y-3.3361
X9.3837Y-1.4653
X9.4004Y-2.6823
X9.4016Y-2.6059
X9.4101Y-5.5857
X9.422Y-1.8958
X9.4342Y-3.4838
X9.4694Y-4.8246
X9.4858Y-2.5043
X9.5486Y-4.0517
X9.5945Y-4.3605
X9.6596Y-5.562
X9.6627Y-4.7706
X9.712Y-2.7667
X9.7323Y-2.5881
X9.7343Y-1.4232
X9.7413Y-2.4986
X9.7682Y-1.5969
X9.7833Y-5.6092
X9.8068Y-1.9077
X9.8156Y-5.1802
X9.8191Y-3.7555
X9.8197Y-2.4142
X9.8232Y-2.8252
X9.8468Y-1.7001
X9.857Y-3.6761
X9.8663Y-4.6444
X9.9036Y-2.6745
X9.9165Y-2.9231
X9.9398Y-1.4653
X9.9703Y-3.5988
X9.9811Y-1.1742
X10.0033Y-3.6721
X10.0323Y-4.0203
X10.0726Y-3.5041
X10.0806Y-3.3142
X10.0946Y-4.7016
X10.0982Y-4.9234
X10.1646Y-2.6165
X10.1728Y-5.5324
X10.182Y-1.5969
X10.233Y-4.7016
X10.2406Y-1.3709
X10.2421Y-2.5094
X10.2427Y-4.2693
X10.2626Y-2.7569
X10.3539Y-5.2646
X10.4608Y-4.0867
X10.4685Y-2.5634
X10.4802Y-1.8638
X10.5174Y-2.6066
X10.5218Y-1.9077
X10.5364Y-5.1413
X10.5452Y-5.0408
X10.5452Y-1.5911
X10.5711Y-3.5246
X10.5733Y-3.8454
X10.5739Y-4.4491
X10.6087Y-1.482
X10.6253Y-5.2165
X10.6548Y-3.3142
X10.717Y-4.3649
X10.7381Y-5.6064
X10.7428Y-5.5644
X10.7948Y-2.6536
X10.8211Y-3.5456
X10.9527Y-4.5601
X11.013Y-1.4897
X11.0381Y-4.3074
X11.0426Y-4.9234
X11.0604Y-3.7896
X11.1219Y-5.0328
X11.1276Y-1.8638
X11.1282Y-3.3594
X11.1457Y-2.5596
X11.1466Y-1.9077
X11.1662Y-2.6473
X11.232Y-4.2331
X11.2839Y-2.9502
X11.2906Y-2.8141
X11.3068Y-5.0042
X11.3547Y-2.5083
X11.3614Y-5.1772
X11.417Y-3.3308
X11.4383Y-5.2691
X11.4569Y-3.4208
X11.4629Y-4.6465
X11.4673Y-5.2039
X11.475Y-1.4053
X11.4876Y-3.5456
X11.4984Y-1.526
X11.5441Y-2.8141
X11.5582Y-5.1294
X11.5583Y-4.4286
X11.5853Y-4.188
X11.6156Y-1.4502
X11.6417Y-5.5012
X11.6733Y-5.6064
X11.7328Y-3.5374
X11.7614Y-2.8215
X11.8341Y-4.7098
X12.0138Y-1.6161
X12.0252Y-1.5661
X12.0532Y-1.7694
X12.0748Y-1.5688
X12.0949Y-2.3783
X12.1237Y-2.213
X12.1967Y-1.8336
X12.2196Y-3.6265
X12.3187Y-3.567
X12.3439Y-2.8947
X12.4009Y-1.4504
X12.5474Y-1.4503
X12.5665Y-5.5754
X12.5731Y-2.654
X12.583Y-1.8687
X12.5877Y-1.6161
X12.5889Y-1.8287
X12.6222Y-5.6056
X12.8Y-3.117
X12.8172Y-4.9676
X12.8561Y-3.5973
X12.8904Y-1.6291
X12.8945Y-2.7913
X12.903Y-3.3302
X12.9319Y-3.261
X12.9451Y-2.7703
X12.9555Y-3.4512
X13.0157Y-1.2404
X13.0491Y-1.5164
X13.088Y-4.832
X13.1234Y-3.6719
X13.1267Y-1.3981
X13.1267Y-5.6056
X13.1269Y-4.542
X13.1826Y-3.0066
X13.183Y-1.5629
X13.188Y-5.0376
X13.2354Y-3.0605
X13.2408Y-4.8308
X13.3158Y-5.5597
X13.3176Y-1.0753
X13.3352Y-3.3551
X13.3381Y-4.9389
X13.3659Y-2.8017
X13.4098Y-1.3945
X13.4197Y-3.2524
X13.4243Y-3.5039
X13.4428Y-2.611
X13.5063Y-1.1738
X13.6372Y-4.8241
X13.6613Y-3.3365
X13.6781Y-5.5518
X13.7044Y-5.6728
X13.7076Y-4.8535
X13.7178Y-2.7822
X13.7281Y-2.6843
X13.8304Y-4.0867
X13.8531Y-2.2421
X13.8566Y-3.4348
X13.8594Y-5.6598
X13.8749Y-4.8556
X13.9307Y-5.5685
X13.9676Y-1.4164
X14.0609Y-1.1037
X14.0642Y-2.685
X14.1584Y-5.2015
X14.1648Y-5.4992
X14.1655Y-1.385
X14.1878Y-2.6059
X14.2799Y-1.8401
X14.4209Y-3.2862
X14.4583Y-3.4288
X14.4723Y-2.729
X14.4991Y-3.1132
X14.5002Y-1.971
X14.5621Y-3.3012
X14.5676Y-1.3998
X14.6265Y-3.5472
X14.6484Y-1.7055
X14.6496Y-1.3982
X14.6827Y-2.9678
X14.7342Y-3.1132
X14.7432Y-1.427
X14.7794Y-5.1231
X14.8423Y-0.8551
X14.8696Y-2.339
X14.9054Y-2.2926
X14.9271Y-1.0086
X14.975Y-2.5991
X15.0409Y-4.188
X15.0442Y-2.7822
X15.0457Y-3.4374
X15.0549Y-4.9352
X15.075Y-2.729
X15.0767Y-4.0975
X15.1028Y-2.5066
X15.1118Y-3.2508
X15.1169Y-0.8887
X15.2401Y-2.9678
X15.2587Y-0.7752
X15.3583Y-4.0987
X15.3769Y-3.5257
X15.3878Y-3.4343
X15.3906Y-2.599
X15.3944Y-4.8556
X15.4117Y-2.7421
X15.4908Y-1.8401
X15.5007Y-4.1098
X15.5681Y-2.3646
X15.6482Y-1.6304
X15.7202Y-2.5414
X15.7348Y-3.3259
X15.7511Y-4.7977
X15.7713Y-4.1035
X15.8529Y-2.5205
X15.8607Y-4.8624
X15.8928Y-1.9406
X15.899Y-4.8314
X15.9169Y-3.5236
X15.9283Y-5.6437
X15.9741Y-2.8334
X16.0166Y-2.8769
X16.0432Y-4.0856
X16.0539Y-4.2905
X16.1194Y-3.3088
X16.1232Y-5.2992
X16.1248Y-2.1917
X16.1444Y-3.3552
X16.162Y-3.632
X16.1824Y-4.9509
X16.2159Y-5.0624
X16.3081Y-4.9702
X16.3548Y-2.6881
X16.3616Y-2.8457
X16.448Y-5.2992
X16.5168Y-4.8485
X16.5215Y-4.419
X16.5356Y-4.31
X16.5608Y-4.1245
X16.5779Y-2.6881
X16.6026Y-2.5087
X16.6325Y-2.6067
X16.6495Y-4.0856
X16.6502Y-3.323
X16.6665Y-2.1452
X16.7395Y-2.2107
X16.7523Y-4.3439
X16.8387Y-4.8485
X16.8428Y-1.9265
X16.8517Y-2.8075
X16.8665Y-5.3958
X16.8987Y-2.6901
X16.971Y-5.1553
X17.0339Y-5.1518
X17.0897Y-5.0123
X17.149Y-3.8134
X17.1995Y-2.6067
X17.2306Y-3.8245
X17.2527Y-5.1753
X17.2666Y-2.6901
X17.2944Y-5.2841
X17.2976Y-3.7959
X17.3158Y-4.419
X17.3186Y-2.8457
X17.3195Y-5.2468
X17.3447Y-5.1452
X17.3456Y-4.2615
X17.6204Y-3.9083
X17.6295Y-3.7107
X17.6321Y-5.2133
T3
X17.002Y-1.4764
X17.4596Y-1.338
X17.4596Y-1.418
X17.7953Y-1.3465
X17.7953Y-1.4465
X17.7953Y-1.5465
X17.7953Y-1.6465
T4
X15.5598Y-1.028
X15.5598Y-1.728
X15.5689Y-1.278
X15.5689Y-1.378
X15.5689Y-1.478
X15.6598Y-1.028
X15.6598Y-1.728
X15.7598Y-1.028
X15.7598Y-1.728
X15.8598Y-1.028
X15.8598Y-1.728
X15.9598Y-1.028
X15.9598Y-1.728
X16.0598Y-1.028
X16.0598Y-1.728
X16.1598Y-1.028
X16.1598Y-1.728
X16.2598Y-1.028
X16.2598Y-1.728
X16.3598Y-1.028
X16.3598Y-1.728
X16.4598Y-1.028
X16.4598Y-1.728
X16.5598Y-1.028
X16.5598Y-1.728
X16.6598Y-1.028
X16.6598Y-1.728
X16.7598Y-1.028
X16.7598Y-1.728
X16.8598Y-1.028
X16.8598Y-1.728
X16.9598Y-1.028
X16.9598Y-1.728
X17.0598Y-1.028
X17.0598Y-1.728
X17.1598Y-1.028
X17.1598Y-1.728
X17.2598Y-1.028
X17.2598Y-1.728
X17.3598Y-1.028
X17.3598Y-1.728
X17.4598Y-1.028
X17.4598Y-1.728
T2
G00X15.0201Y-0.6161
M15
G01X15.0201Y-0.6398
M16
G05
G00X15.0201Y-0.7709
M15
G01X15.0201Y-0.8142
M16
G05
G00X15.3602Y-0.6161
M15
G01X15.3602Y-0.6398
M16
G05
G00X15.3602Y-0.7709
M15
G01X15.3602Y-0.8142
M16
G05
T0
M30
