%TF.GenerationSoftware,KiCad,Pcbnew,7.0.7*%
%TF.CreationDate,2024-02-20T17:11:52+02:00*%
%TF.ProjectId,keyboard,6b657962-6f61-4726-942e-6b696361645f,rev?*%
%TF.SameCoordinates,Original*%
%TF.FileFunction,Profile,NP*%
%FSLAX46Y46*%
G04 Gerber Fmt 4.6, Leading zero omitted, Abs format (unit mm)*
G04 Created by KiCad (PCBNEW 7.0.7) date 2024-02-20 17:11:52*
%MOMM*%
%LPD*%
G01*
G04 APERTURE LIST*
%TA.AperFunction,Profile*%
%ADD10C,0.100000*%
%TD*%
G04 APERTURE END LIST*
D10*
X460600000Y-154300000D02*
G75*
G03*
X460600000Y-154300000I-1500000J0D01*
G01*
X21025000Y-154300000D02*
G75*
G03*
X21025000Y-154300000I-1500000J0D01*
G01*
X240812500Y-154300000D02*
G75*
G03*
X240812500Y-154300000I-1500000J0D01*
G01*
X460600000Y-86912500D02*
G75*
G03*
X460600000Y-86912500I-1500000J0D01*
G01*
X21025000Y-19525000D02*
G75*
G03*
X21025000Y-19525000I-1500000J0D01*
G01*
X21025000Y-86912500D02*
G75*
G03*
X21025000Y-86912500I-1500000J0D01*
G01*
X130918750Y-154300000D02*
G75*
G03*
X130918750Y-154300000I-1500000J0D01*
G01*
X130918750Y-19525000D02*
G75*
G03*
X130918750Y-19525000I-1500000J0D01*
G01*
X14525000Y-14525000D02*
X14525000Y-159300000D01*
X350706250Y-154300000D02*
G75*
G03*
X350706250Y-154300000I-1500000J0D01*
G01*
X14525000Y-14525000D02*
X464100000Y-14525000D01*
X14525000Y-159300000D02*
X464100000Y-159300000D01*
X464100000Y-14525000D02*
X464100000Y-159300000D01*
X460600000Y-19525000D02*
G75*
G03*
X460600000Y-19525000I-1500000J0D01*
G01*
X350706250Y-19525000D02*
G75*
G03*
X350706250Y-19525000I-1500000J0D01*
G01*
X240812500Y-19525000D02*
G75*
G03*
X240812500Y-19525000I-1500000J0D01*
G01*
%TO.C,L66*%
X180462501Y-106982842D02*
X180462501Y-105577158D01*
X181368048Y-104780000D02*
X182956952Y-104780000D01*
X182956952Y-107779999D02*
X181368047Y-107779999D01*
X183862499Y-105577158D02*
X183862499Y-106982842D01*
X180462500Y-105577158D02*
G75*
G03*
X180413015Y-105360280I-499989J2D01*
G01*
X181115789Y-104711701D02*
G75*
G03*
X180413017Y-105360281I-252259J-431700D01*
G01*
X180413016Y-107199720D02*
G75*
G03*
X180462501Y-106982843I-450505J216876D01*
G01*
X180413016Y-107199720D02*
G75*
G03*
X181115789Y-107848297I450515J-216877D01*
G01*
X181368047Y-107779999D02*
G75*
G03*
X181115789Y-107848298I3J-500009D01*
G01*
X181115789Y-104711701D02*
G75*
G03*
X181368048Y-104780000I252261J431710D01*
G01*
X183209211Y-107848299D02*
G75*
G03*
X182956953Y-107780000I-252261J-431711D01*
G01*
X182956952Y-104779999D02*
G75*
G03*
X183209210Y-104711701I-2J500009D01*
G01*
X183911981Y-105360278D02*
G75*
G03*
X183209211Y-104711704I-450511J216878D01*
G01*
X183911982Y-105360279D02*
G75*
G03*
X183862499Y-105577157I450548J-216881D01*
G01*
X183209211Y-107848299D02*
G75*
G03*
X183911983Y-107199720I252259J431699D01*
G01*
X183862499Y-106982842D02*
G75*
G03*
X183911984Y-107199720I499301J-158D01*
G01*
%TO.C,L63*%
X123312501Y-106982842D02*
X123312501Y-105577158D01*
X124218048Y-104780000D02*
X125806952Y-104780000D01*
X125806952Y-107779999D02*
X124218047Y-107779999D01*
X126712499Y-105577158D02*
X126712499Y-106982842D01*
X123312500Y-105577158D02*
G75*
G03*
X123263015Y-105360280I-499989J2D01*
G01*
X123965789Y-104711701D02*
G75*
G03*
X123263017Y-105360281I-252259J-431700D01*
G01*
X123263016Y-107199720D02*
G75*
G03*
X123312501Y-106982843I-450505J216876D01*
G01*
X123263016Y-107199720D02*
G75*
G03*
X123965789Y-107848297I450515J-216877D01*
G01*
X124218047Y-107779999D02*
G75*
G03*
X123965789Y-107848298I3J-500009D01*
G01*
X123965789Y-104711701D02*
G75*
G03*
X124218048Y-104780000I252261J431710D01*
G01*
X126059211Y-107848299D02*
G75*
G03*
X125806953Y-107780000I-252261J-431711D01*
G01*
X125806952Y-104779999D02*
G75*
G03*
X126059210Y-104711701I-2J500009D01*
G01*
X126761981Y-105360278D02*
G75*
G03*
X126059211Y-104711704I-450511J216878D01*
G01*
X126761982Y-105360279D02*
G75*
G03*
X126712499Y-105577157I450548J-216881D01*
G01*
X126059211Y-107848299D02*
G75*
G03*
X126761983Y-107199720I252259J431699D01*
G01*
X126712499Y-106982842D02*
G75*
G03*
X126761984Y-107199720I499301J-158D01*
G01*
%TO.C,L99*%
X297143801Y-145082842D02*
X297143801Y-143677158D01*
X298049348Y-142880000D02*
X299638252Y-142880000D01*
X299638252Y-145879999D02*
X298049347Y-145879999D01*
X300543799Y-143677158D02*
X300543799Y-145082842D01*
X297143800Y-143677158D02*
G75*
G03*
X297094315Y-143460280I-499989J2D01*
G01*
X297797089Y-142811701D02*
G75*
G03*
X297094317Y-143460281I-252259J-431700D01*
G01*
X297094316Y-145299720D02*
G75*
G03*
X297143801Y-145082843I-450505J216876D01*
G01*
X297094316Y-145299720D02*
G75*
G03*
X297797089Y-145948297I450515J-216877D01*
G01*
X298049347Y-145879999D02*
G75*
G03*
X297797089Y-145948298I3J-500009D01*
G01*
X297797089Y-142811701D02*
G75*
G03*
X298049348Y-142880000I252261J431710D01*
G01*
X299890511Y-145948299D02*
G75*
G03*
X299638253Y-145880000I-252261J-431711D01*
G01*
X299638252Y-142879999D02*
G75*
G03*
X299890510Y-142811701I-2J500009D01*
G01*
X300593281Y-143460278D02*
G75*
G03*
X299890511Y-142811704I-450511J216878D01*
G01*
X300593282Y-143460279D02*
G75*
G03*
X300543799Y-143677157I450548J-216881D01*
G01*
X299890511Y-145948299D02*
G75*
G03*
X300593283Y-145299720I252259J431699D01*
G01*
X300543799Y-145082842D02*
G75*
G03*
X300593284Y-145299720I499301J-158D01*
G01*
%TO.C,L29*%
X261425001Y-68882842D02*
X261425001Y-67477158D01*
X262330548Y-66680000D02*
X263919452Y-66680000D01*
X263919452Y-69679999D02*
X262330547Y-69679999D01*
X264824999Y-67477158D02*
X264824999Y-68882842D01*
X261425000Y-67477158D02*
G75*
G03*
X261375515Y-67260280I-499989J2D01*
G01*
X262078289Y-66611701D02*
G75*
G03*
X261375517Y-67260281I-252259J-431700D01*
G01*
X261375516Y-69099720D02*
G75*
G03*
X261425001Y-68882843I-450505J216876D01*
G01*
X261375516Y-69099720D02*
G75*
G03*
X262078289Y-69748297I450515J-216877D01*
G01*
X262330547Y-69679999D02*
G75*
G03*
X262078289Y-69748298I3J-500009D01*
G01*
X262078289Y-66611701D02*
G75*
G03*
X262330548Y-66680000I252261J431710D01*
G01*
X264171711Y-69748299D02*
G75*
G03*
X263919453Y-69680000I-252261J-431711D01*
G01*
X263919452Y-66679999D02*
G75*
G03*
X264171710Y-66611701I-2J500009D01*
G01*
X264874481Y-67260278D02*
G75*
G03*
X264171711Y-66611704I-450511J216878D01*
G01*
X264874482Y-67260279D02*
G75*
G03*
X264824999Y-67477157I450548J-216881D01*
G01*
X264171711Y-69748299D02*
G75*
G03*
X264874483Y-69099720I252259J431699D01*
G01*
X264824999Y-68882842D02*
G75*
G03*
X264874484Y-69099720I499301J-158D01*
G01*
%TO.C,L76*%
X75687501Y-126032842D02*
X75687501Y-124627158D01*
X76593048Y-123830000D02*
X78181952Y-123830000D01*
X78181952Y-126829999D02*
X76593047Y-126829999D01*
X79087499Y-124627158D02*
X79087499Y-126032842D01*
X75687500Y-124627158D02*
G75*
G03*
X75638015Y-124410280I-499989J2D01*
G01*
X76340789Y-123761701D02*
G75*
G03*
X75638017Y-124410281I-252259J-431700D01*
G01*
X75638016Y-126249720D02*
G75*
G03*
X75687501Y-126032843I-450505J216876D01*
G01*
X75638016Y-126249720D02*
G75*
G03*
X76340789Y-126898297I450515J-216877D01*
G01*
X76593047Y-126829999D02*
G75*
G03*
X76340789Y-126898298I3J-500009D01*
G01*
X76340789Y-123761701D02*
G75*
G03*
X76593048Y-123830000I252261J431710D01*
G01*
X78434211Y-126898299D02*
G75*
G03*
X78181953Y-126830000I-252261J-431711D01*
G01*
X78181952Y-123829999D02*
G75*
G03*
X78434210Y-123761701I-2J500009D01*
G01*
X79136981Y-124410278D02*
G75*
G03*
X78434211Y-123761704I-450511J216878D01*
G01*
X79136982Y-124410279D02*
G75*
G03*
X79087499Y-124627157I450548J-216881D01*
G01*
X78434211Y-126898299D02*
G75*
G03*
X79136983Y-126249720I252259J431699D01*
G01*
X79087499Y-126032842D02*
G75*
G03*
X79136984Y-126249720I499301J-158D01*
G01*
%TO.C,L74*%
X423350001Y-106982842D02*
X423350001Y-105577158D01*
X424255548Y-104780000D02*
X425844452Y-104780000D01*
X425844452Y-107779999D02*
X424255547Y-107779999D01*
X426749999Y-105577158D02*
X426749999Y-106982842D01*
X423350000Y-105577158D02*
G75*
G03*
X423300515Y-105360280I-499989J2D01*
G01*
X424003289Y-104711701D02*
G75*
G03*
X423300517Y-105360281I-252259J-431700D01*
G01*
X423300516Y-107199720D02*
G75*
G03*
X423350001Y-106982843I-450505J216876D01*
G01*
X423300516Y-107199720D02*
G75*
G03*
X424003289Y-107848297I450515J-216877D01*
G01*
X424255547Y-107779999D02*
G75*
G03*
X424003289Y-107848298I3J-500009D01*
G01*
X424003289Y-104711701D02*
G75*
G03*
X424255548Y-104780000I252261J431710D01*
G01*
X426096711Y-107848299D02*
G75*
G03*
X425844453Y-107780000I-252261J-431711D01*
G01*
X425844452Y-104779999D02*
G75*
G03*
X426096710Y-104711701I-2J500009D01*
G01*
X426799481Y-105360278D02*
G75*
G03*
X426096711Y-104711704I-450511J216878D01*
G01*
X426799482Y-105360279D02*
G75*
G03*
X426749999Y-105577157I450548J-216881D01*
G01*
X426096711Y-107848299D02*
G75*
G03*
X426799483Y-107199720I252259J431699D01*
G01*
X426749999Y-106982842D02*
G75*
G03*
X426799484Y-107199720I499301J-158D01*
G01*
%TO.C,L83*%
X209037501Y-126032842D02*
X209037501Y-124627158D01*
X209943048Y-123830000D02*
X211531952Y-123830000D01*
X211531952Y-126829999D02*
X209943047Y-126829999D01*
X212437499Y-124627158D02*
X212437499Y-126032842D01*
X209037500Y-124627158D02*
G75*
G03*
X208988015Y-124410280I-499989J2D01*
G01*
X209690789Y-123761701D02*
G75*
G03*
X208988017Y-124410281I-252259J-431700D01*
G01*
X208988016Y-126249720D02*
G75*
G03*
X209037501Y-126032843I-450505J216876D01*
G01*
X208988016Y-126249720D02*
G75*
G03*
X209690789Y-126898297I450515J-216877D01*
G01*
X209943047Y-126829999D02*
G75*
G03*
X209690789Y-126898298I3J-500009D01*
G01*
X209690789Y-123761701D02*
G75*
G03*
X209943048Y-123830000I252261J431710D01*
G01*
X211784211Y-126898299D02*
G75*
G03*
X211531953Y-126830000I-252261J-431711D01*
G01*
X211531952Y-123829999D02*
G75*
G03*
X211784210Y-123761701I-2J500009D01*
G01*
X212486981Y-124410278D02*
G75*
G03*
X211784211Y-123761704I-450511J216878D01*
G01*
X212486982Y-124410279D02*
G75*
G03*
X212437499Y-124627157I450548J-216881D01*
G01*
X211784211Y-126898299D02*
G75*
G03*
X212486983Y-126249720I252259J431699D01*
G01*
X212437499Y-126032842D02*
G75*
G03*
X212486984Y-126249720I499301J-158D01*
G01*
%TO.C,L42*%
X118550001Y-87932842D02*
X118550001Y-86527158D01*
X119455548Y-85730000D02*
X121044452Y-85730000D01*
X121044452Y-88729999D02*
X119455547Y-88729999D01*
X121949999Y-86527158D02*
X121949999Y-87932842D01*
X118550000Y-86527158D02*
G75*
G03*
X118500515Y-86310280I-499989J2D01*
G01*
X119203289Y-85661701D02*
G75*
G03*
X118500517Y-86310281I-252259J-431700D01*
G01*
X118500516Y-88149720D02*
G75*
G03*
X118550001Y-87932843I-450505J216876D01*
G01*
X118500516Y-88149720D02*
G75*
G03*
X119203289Y-88798297I450515J-216877D01*
G01*
X119455547Y-88729999D02*
G75*
G03*
X119203289Y-88798298I3J-500009D01*
G01*
X119203289Y-85661701D02*
G75*
G03*
X119455548Y-85730000I252261J431710D01*
G01*
X121296711Y-88798299D02*
G75*
G03*
X121044453Y-88730000I-252261J-431711D01*
G01*
X121044452Y-85729999D02*
G75*
G03*
X121296710Y-85661701I-2J500009D01*
G01*
X121999481Y-86310278D02*
G75*
G03*
X121296711Y-85661704I-450511J216878D01*
G01*
X121999482Y-86310279D02*
G75*
G03*
X121949999Y-86527157I450548J-216881D01*
G01*
X121296711Y-88798299D02*
G75*
G03*
X121999483Y-88149720I252259J431699D01*
G01*
X121949999Y-87932842D02*
G75*
G03*
X121999484Y-88149720I499301J-158D01*
G01*
%TO.C,L33*%
X361437501Y-68882842D02*
X361437501Y-67477158D01*
X362343048Y-66680000D02*
X363931952Y-66680000D01*
X363931952Y-69679999D02*
X362343047Y-69679999D01*
X364837499Y-67477158D02*
X364837499Y-68882842D01*
X361437500Y-67477158D02*
G75*
G03*
X361388015Y-67260280I-499989J2D01*
G01*
X362090789Y-66611701D02*
G75*
G03*
X361388017Y-67260281I-252259J-431700D01*
G01*
X361388016Y-69099720D02*
G75*
G03*
X361437501Y-68882843I-450505J216876D01*
G01*
X361388016Y-69099720D02*
G75*
G03*
X362090789Y-69748297I450515J-216877D01*
G01*
X362343047Y-69679999D02*
G75*
G03*
X362090789Y-69748298I3J-500009D01*
G01*
X362090789Y-66611701D02*
G75*
G03*
X362343048Y-66680000I252261J431710D01*
G01*
X364184211Y-69748299D02*
G75*
G03*
X363931953Y-69680000I-252261J-431711D01*
G01*
X363931952Y-66679999D02*
G75*
G03*
X364184210Y-66611701I-2J500009D01*
G01*
X364886981Y-67260278D02*
G75*
G03*
X364184211Y-66611704I-450511J216878D01*
G01*
X364886982Y-67260279D02*
G75*
G03*
X364837499Y-67477157I450548J-216881D01*
G01*
X364184211Y-69748299D02*
G75*
G03*
X364886983Y-69099720I252259J431699D01*
G01*
X364837499Y-68882842D02*
G75*
G03*
X364886984Y-69099720I499301J-158D01*
G01*
%TO.C,L6*%
X156650001Y-40307842D02*
X156650001Y-38902158D01*
X157555548Y-38105000D02*
X159144452Y-38105000D01*
X159144452Y-41104999D02*
X157555547Y-41104999D01*
X160049999Y-38902158D02*
X160049999Y-40307842D01*
X156650000Y-38902158D02*
G75*
G03*
X156600515Y-38685280I-499989J2D01*
G01*
X157303289Y-38036701D02*
G75*
G03*
X156600517Y-38685281I-252259J-431700D01*
G01*
X156600516Y-40524720D02*
G75*
G03*
X156650001Y-40307843I-450505J216876D01*
G01*
X156600516Y-40524720D02*
G75*
G03*
X157303289Y-41173297I450515J-216877D01*
G01*
X157555547Y-41104999D02*
G75*
G03*
X157303289Y-41173298I3J-500009D01*
G01*
X157303289Y-38036701D02*
G75*
G03*
X157555548Y-38105000I252261J431710D01*
G01*
X159396711Y-41173299D02*
G75*
G03*
X159144453Y-41105000I-252261J-431711D01*
G01*
X159144452Y-38104999D02*
G75*
G03*
X159396710Y-38036701I-2J500009D01*
G01*
X160099481Y-38685278D02*
G75*
G03*
X159396711Y-38036704I-450511J216878D01*
G01*
X160099482Y-38685279D02*
G75*
G03*
X160049999Y-38902157I450548J-216881D01*
G01*
X159396711Y-41173299D02*
G75*
G03*
X160099483Y-40524720I252259J431699D01*
G01*
X160049999Y-40307842D02*
G75*
G03*
X160099484Y-40524720I499301J-158D01*
G01*
%TO.C,L43*%
X137600001Y-87932842D02*
X137600001Y-86527158D01*
X138505548Y-85730000D02*
X140094452Y-85730000D01*
X140094452Y-88729999D02*
X138505547Y-88729999D01*
X140999999Y-86527158D02*
X140999999Y-87932842D01*
X137600000Y-86527158D02*
G75*
G03*
X137550515Y-86310280I-499989J2D01*
G01*
X138253289Y-85661701D02*
G75*
G03*
X137550517Y-86310281I-252259J-431700D01*
G01*
X137550516Y-88149720D02*
G75*
G03*
X137600001Y-87932843I-450505J216876D01*
G01*
X137550516Y-88149720D02*
G75*
G03*
X138253289Y-88798297I450515J-216877D01*
G01*
X138505547Y-88729999D02*
G75*
G03*
X138253289Y-88798298I3J-500009D01*
G01*
X138253289Y-85661701D02*
G75*
G03*
X138505548Y-85730000I252261J431710D01*
G01*
X140346711Y-88798299D02*
G75*
G03*
X140094453Y-88730000I-252261J-431711D01*
G01*
X140094452Y-85729999D02*
G75*
G03*
X140346710Y-85661701I-2J500009D01*
G01*
X141049481Y-86310278D02*
G75*
G03*
X140346711Y-85661704I-450511J216878D01*
G01*
X141049482Y-86310279D02*
G75*
G03*
X140999999Y-86527157I450548J-216881D01*
G01*
X140346711Y-88798299D02*
G75*
G03*
X141049483Y-88149720I252259J431699D01*
G01*
X140999999Y-87932842D02*
G75*
G03*
X141049484Y-88149720I499301J-158D01*
G01*
%TO.C,L23*%
X147125001Y-68882842D02*
X147125001Y-67477158D01*
X148030548Y-66680000D02*
X149619452Y-66680000D01*
X149619452Y-69679999D02*
X148030547Y-69679999D01*
X150524999Y-67477158D02*
X150524999Y-68882842D01*
X147125000Y-67477158D02*
G75*
G03*
X147075515Y-67260280I-499989J2D01*
G01*
X147778289Y-66611701D02*
G75*
G03*
X147075517Y-67260281I-252259J-431700D01*
G01*
X147075516Y-69099720D02*
G75*
G03*
X147125001Y-68882843I-450505J216876D01*
G01*
X147075516Y-69099720D02*
G75*
G03*
X147778289Y-69748297I450515J-216877D01*
G01*
X148030547Y-69679999D02*
G75*
G03*
X147778289Y-69748298I3J-500009D01*
G01*
X147778289Y-66611701D02*
G75*
G03*
X148030548Y-66680000I252261J431710D01*
G01*
X149871711Y-69748299D02*
G75*
G03*
X149619453Y-69680000I-252261J-431711D01*
G01*
X149619452Y-66679999D02*
G75*
G03*
X149871710Y-66611701I-2J500009D01*
G01*
X150574481Y-67260278D02*
G75*
G03*
X149871711Y-66611704I-450511J216878D01*
G01*
X150574482Y-67260279D02*
G75*
G03*
X150524999Y-67477157I450548J-216881D01*
G01*
X149871711Y-69748299D02*
G75*
G03*
X150574483Y-69099720I252259J431699D01*
G01*
X150524999Y-68882842D02*
G75*
G03*
X150574484Y-69099720I499301J-158D01*
G01*
%TO.C,L54*%
X361437501Y-87932842D02*
X361437501Y-86527158D01*
X362343048Y-85730000D02*
X363931952Y-85730000D01*
X363931952Y-88729999D02*
X362343047Y-88729999D01*
X364837499Y-86527158D02*
X364837499Y-87932842D01*
X361437500Y-86527158D02*
G75*
G03*
X361388015Y-86310280I-499989J2D01*
G01*
X362090789Y-85661701D02*
G75*
G03*
X361388017Y-86310281I-252259J-431700D01*
G01*
X361388016Y-88149720D02*
G75*
G03*
X361437501Y-87932843I-450505J216876D01*
G01*
X361388016Y-88149720D02*
G75*
G03*
X362090789Y-88798297I450515J-216877D01*
G01*
X362343047Y-88729999D02*
G75*
G03*
X362090789Y-88798298I3J-500009D01*
G01*
X362090789Y-85661701D02*
G75*
G03*
X362343048Y-85730000I252261J431710D01*
G01*
X364184211Y-88798299D02*
G75*
G03*
X363931953Y-88730000I-252261J-431711D01*
G01*
X363931952Y-85729999D02*
G75*
G03*
X364184210Y-85661701I-2J500009D01*
G01*
X364886981Y-86310278D02*
G75*
G03*
X364184211Y-85661704I-450511J216878D01*
G01*
X364886982Y-86310279D02*
G75*
G03*
X364837499Y-86527157I450548J-216881D01*
G01*
X364184211Y-88798299D02*
G75*
G03*
X364886983Y-88149720I252259J431699D01*
G01*
X364837499Y-87932842D02*
G75*
G03*
X364886984Y-88149720I499301J-158D01*
G01*
%TO.C,L2*%
X70925001Y-40307842D02*
X70925001Y-38902158D01*
X71830548Y-38105000D02*
X73419452Y-38105000D01*
X73419452Y-41104999D02*
X71830547Y-41104999D01*
X74324999Y-38902158D02*
X74324999Y-40307842D01*
X70925000Y-38902158D02*
G75*
G03*
X70875515Y-38685280I-499989J2D01*
G01*
X71578289Y-38036701D02*
G75*
G03*
X70875517Y-38685281I-252259J-431700D01*
G01*
X70875516Y-40524720D02*
G75*
G03*
X70925001Y-40307843I-450505J216876D01*
G01*
X70875516Y-40524720D02*
G75*
G03*
X71578289Y-41173297I450515J-216877D01*
G01*
X71830547Y-41104999D02*
G75*
G03*
X71578289Y-41173298I3J-500009D01*
G01*
X71578289Y-38036701D02*
G75*
G03*
X71830548Y-38105000I252261J431710D01*
G01*
X73671711Y-41173299D02*
G75*
G03*
X73419453Y-41105000I-252261J-431711D01*
G01*
X73419452Y-38104999D02*
G75*
G03*
X73671710Y-38036701I-2J500009D01*
G01*
X74374481Y-38685278D02*
G75*
G03*
X73671711Y-38036704I-450511J216878D01*
G01*
X74374482Y-38685279D02*
G75*
G03*
X74324999Y-38902157I450548J-216881D01*
G01*
X73671711Y-41173299D02*
G75*
G03*
X74374483Y-40524720I252259J431699D01*
G01*
X74324999Y-40307842D02*
G75*
G03*
X74374484Y-40524720I499301J-158D01*
G01*
%TO.C,L61*%
X85212501Y-106982842D02*
X85212501Y-105577158D01*
X86118048Y-104780000D02*
X87706952Y-104780000D01*
X87706952Y-107779999D02*
X86118047Y-107779999D01*
X88612499Y-105577158D02*
X88612499Y-106982842D01*
X85212500Y-105577158D02*
G75*
G03*
X85163015Y-105360280I-499989J2D01*
G01*
X85865789Y-104711701D02*
G75*
G03*
X85163017Y-105360281I-252259J-431700D01*
G01*
X85163016Y-107199720D02*
G75*
G03*
X85212501Y-106982843I-450505J216876D01*
G01*
X85163016Y-107199720D02*
G75*
G03*
X85865789Y-107848297I450515J-216877D01*
G01*
X86118047Y-107779999D02*
G75*
G03*
X85865789Y-107848298I3J-500009D01*
G01*
X85865789Y-104711701D02*
G75*
G03*
X86118048Y-104780000I252261J431710D01*
G01*
X87959211Y-107848299D02*
G75*
G03*
X87706953Y-107780000I-252261J-431711D01*
G01*
X87706952Y-104779999D02*
G75*
G03*
X87959210Y-104711701I-2J500009D01*
G01*
X88661981Y-105360278D02*
G75*
G03*
X87959211Y-104711704I-450511J216878D01*
G01*
X88661982Y-105360279D02*
G75*
G03*
X88612499Y-105577157I450548J-216881D01*
G01*
X87959211Y-107848299D02*
G75*
G03*
X88661983Y-107199720I252259J431699D01*
G01*
X88612499Y-106982842D02*
G75*
G03*
X88661984Y-107199720I499301J-158D01*
G01*
%TO.C,L88*%
X385250001Y-126032842D02*
X385250001Y-124627158D01*
X386155548Y-123830000D02*
X387744452Y-123830000D01*
X387744452Y-126829999D02*
X386155547Y-126829999D01*
X388649999Y-124627158D02*
X388649999Y-126032842D01*
X385250000Y-124627158D02*
G75*
G03*
X385200515Y-124410280I-499989J2D01*
G01*
X385903289Y-123761701D02*
G75*
G03*
X385200517Y-124410281I-252259J-431700D01*
G01*
X385200516Y-126249720D02*
G75*
G03*
X385250001Y-126032843I-450505J216876D01*
G01*
X385200516Y-126249720D02*
G75*
G03*
X385903289Y-126898297I450515J-216877D01*
G01*
X386155547Y-126829999D02*
G75*
G03*
X385903289Y-126898298I3J-500009D01*
G01*
X385903289Y-123761701D02*
G75*
G03*
X386155548Y-123830000I252261J431710D01*
G01*
X387996711Y-126898299D02*
G75*
G03*
X387744453Y-126830000I-252261J-431711D01*
G01*
X387744452Y-123829999D02*
G75*
G03*
X387996710Y-123761701I-2J500009D01*
G01*
X388699481Y-124410278D02*
G75*
G03*
X387996711Y-123761704I-450511J216878D01*
G01*
X388699482Y-124410279D02*
G75*
G03*
X388649999Y-124627157I450548J-216881D01*
G01*
X387996711Y-126898299D02*
G75*
G03*
X388699483Y-126249720I252259J431699D01*
G01*
X388649999Y-126032842D02*
G75*
G03*
X388699484Y-126249720I499301J-158D01*
G01*
%TO.C,L81*%
X170937501Y-126032842D02*
X170937501Y-124627158D01*
X171843048Y-123830000D02*
X173431952Y-123830000D01*
X173431952Y-126829999D02*
X171843047Y-126829999D01*
X174337499Y-124627158D02*
X174337499Y-126032842D01*
X170937500Y-124627158D02*
G75*
G03*
X170888015Y-124410280I-499989J2D01*
G01*
X171590789Y-123761701D02*
G75*
G03*
X170888017Y-124410281I-252259J-431700D01*
G01*
X170888016Y-126249720D02*
G75*
G03*
X170937501Y-126032843I-450505J216876D01*
G01*
X170888016Y-126249720D02*
G75*
G03*
X171590789Y-126898297I450515J-216877D01*
G01*
X171843047Y-126829999D02*
G75*
G03*
X171590789Y-126898298I3J-500009D01*
G01*
X171590789Y-123761701D02*
G75*
G03*
X171843048Y-123830000I252261J431710D01*
G01*
X173684211Y-126898299D02*
G75*
G03*
X173431953Y-126830000I-252261J-431711D01*
G01*
X173431952Y-123829999D02*
G75*
G03*
X173684210Y-123761701I-2J500009D01*
G01*
X174386981Y-124410278D02*
G75*
G03*
X173684211Y-123761704I-450511J216878D01*
G01*
X174386982Y-124410279D02*
G75*
G03*
X174337499Y-124627157I450548J-216881D01*
G01*
X173684211Y-126898299D02*
G75*
G03*
X174386983Y-126249720I252259J431699D01*
G01*
X174337499Y-126032842D02*
G75*
G03*
X174386984Y-126249720I499301J-158D01*
G01*
%TO.C,L86*%
X282856301Y-126032842D02*
X282856301Y-124627158D01*
X283761848Y-123830000D02*
X285350752Y-123830000D01*
X285350752Y-126829999D02*
X283761847Y-126829999D01*
X286256299Y-124627158D02*
X286256299Y-126032842D01*
X282856300Y-124627158D02*
G75*
G03*
X282806815Y-124410280I-499989J2D01*
G01*
X283509589Y-123761701D02*
G75*
G03*
X282806817Y-124410281I-252259J-431700D01*
G01*
X282806816Y-126249720D02*
G75*
G03*
X282856301Y-126032843I-450505J216876D01*
G01*
X282806816Y-126249720D02*
G75*
G03*
X283509589Y-126898297I450515J-216877D01*
G01*
X283761847Y-126829999D02*
G75*
G03*
X283509589Y-126898298I3J-500009D01*
G01*
X283509589Y-123761701D02*
G75*
G03*
X283761848Y-123830000I252261J431710D01*
G01*
X285603011Y-126898299D02*
G75*
G03*
X285350753Y-126830000I-252261J-431711D01*
G01*
X285350752Y-123829999D02*
G75*
G03*
X285603010Y-123761701I-2J500009D01*
G01*
X286305781Y-124410278D02*
G75*
G03*
X285603011Y-123761704I-450511J216878D01*
G01*
X286305782Y-124410279D02*
G75*
G03*
X286256299Y-124627157I450548J-216881D01*
G01*
X285603011Y-126898299D02*
G75*
G03*
X286305783Y-126249720I252259J431699D01*
G01*
X286256299Y-126032842D02*
G75*
G03*
X286305784Y-126249720I499301J-158D01*
G01*
%TO.C,L64*%
X142362501Y-106982842D02*
X142362501Y-105577158D01*
X143268048Y-104780000D02*
X144856952Y-104780000D01*
X144856952Y-107779999D02*
X143268047Y-107779999D01*
X145762499Y-105577158D02*
X145762499Y-106982842D01*
X142362500Y-105577158D02*
G75*
G03*
X142313015Y-105360280I-499989J2D01*
G01*
X143015789Y-104711701D02*
G75*
G03*
X142313017Y-105360281I-252259J-431700D01*
G01*
X142313016Y-107199720D02*
G75*
G03*
X142362501Y-106982843I-450505J216876D01*
G01*
X142313016Y-107199720D02*
G75*
G03*
X143015789Y-107848297I450515J-216877D01*
G01*
X143268047Y-107779999D02*
G75*
G03*
X143015789Y-107848298I3J-500009D01*
G01*
X143015789Y-104711701D02*
G75*
G03*
X143268048Y-104780000I252261J431710D01*
G01*
X145109211Y-107848299D02*
G75*
G03*
X144856953Y-107780000I-252261J-431711D01*
G01*
X144856952Y-104779999D02*
G75*
G03*
X145109210Y-104711701I-2J500009D01*
G01*
X145811981Y-105360278D02*
G75*
G03*
X145109211Y-104711704I-450511J216878D01*
G01*
X145811982Y-105360279D02*
G75*
G03*
X145762499Y-105577157I450548J-216881D01*
G01*
X145109211Y-107848299D02*
G75*
G03*
X145811983Y-107199720I252259J431699D01*
G01*
X145762499Y-106982842D02*
G75*
G03*
X145811984Y-107199720I499301J-158D01*
G01*
%TO.C,L98*%
X273331301Y-145082842D02*
X273331301Y-143677158D01*
X274236848Y-142880000D02*
X275825752Y-142880000D01*
X275825752Y-145879999D02*
X274236847Y-145879999D01*
X276731299Y-143677158D02*
X276731299Y-145082842D01*
X273331300Y-143677158D02*
G75*
G03*
X273281815Y-143460280I-499989J2D01*
G01*
X273984589Y-142811701D02*
G75*
G03*
X273281817Y-143460281I-252259J-431700D01*
G01*
X273281816Y-145299720D02*
G75*
G03*
X273331301Y-145082843I-450505J216876D01*
G01*
X273281816Y-145299720D02*
G75*
G03*
X273984589Y-145948297I450515J-216877D01*
G01*
X274236847Y-145879999D02*
G75*
G03*
X273984589Y-145948298I3J-500009D01*
G01*
X273984589Y-142811701D02*
G75*
G03*
X274236848Y-142880000I252261J431710D01*
G01*
X276078011Y-145948299D02*
G75*
G03*
X275825753Y-145880000I-252261J-431711D01*
G01*
X275825752Y-142879999D02*
G75*
G03*
X276078010Y-142811701I-2J500009D01*
G01*
X276780781Y-143460278D02*
G75*
G03*
X276078011Y-142811704I-450511J216878D01*
G01*
X276780782Y-143460279D02*
G75*
G03*
X276731299Y-143677157I450548J-216881D01*
G01*
X276078011Y-145948299D02*
G75*
G03*
X276780783Y-145299720I252259J431699D01*
G01*
X276731299Y-145082842D02*
G75*
G03*
X276780784Y-145299720I499301J-158D01*
G01*
%TO.C,L91*%
X442400001Y-135557842D02*
X442400001Y-134152158D01*
X443305548Y-133355000D02*
X444894452Y-133355000D01*
X444894452Y-136354999D02*
X443305547Y-136354999D01*
X445799999Y-134152158D02*
X445799999Y-135557842D01*
X442400000Y-134152158D02*
G75*
G03*
X442350515Y-133935280I-499989J2D01*
G01*
X443053289Y-133286701D02*
G75*
G03*
X442350517Y-133935281I-252259J-431700D01*
G01*
X442350516Y-135774720D02*
G75*
G03*
X442400001Y-135557843I-450505J216876D01*
G01*
X442350516Y-135774720D02*
G75*
G03*
X443053289Y-136423297I450515J-216877D01*
G01*
X443305547Y-136354999D02*
G75*
G03*
X443053289Y-136423298I3J-500009D01*
G01*
X443053289Y-133286701D02*
G75*
G03*
X443305548Y-133355000I252261J431710D01*
G01*
X445146711Y-136423299D02*
G75*
G03*
X444894453Y-136355000I-252261J-431711D01*
G01*
X444894452Y-133354999D02*
G75*
G03*
X445146710Y-133286701I-2J500009D01*
G01*
X445849481Y-133935278D02*
G75*
G03*
X445146711Y-133286704I-450511J216878D01*
G01*
X445849482Y-133935279D02*
G75*
G03*
X445799999Y-134152157I450548J-216881D01*
G01*
X445146711Y-136423299D02*
G75*
G03*
X445849483Y-135774720I252259J431699D01*
G01*
X445799999Y-135557842D02*
G75*
G03*
X445849484Y-135774720I499301J-158D01*
G01*
%TO.C,L21*%
X109025001Y-68882842D02*
X109025001Y-67477158D01*
X109930548Y-66680000D02*
X111519452Y-66680000D01*
X111519452Y-69679999D02*
X109930547Y-69679999D01*
X112424999Y-67477158D02*
X112424999Y-68882842D01*
X109025000Y-67477158D02*
G75*
G03*
X108975515Y-67260280I-499989J2D01*
G01*
X109678289Y-66611701D02*
G75*
G03*
X108975517Y-67260281I-252259J-431700D01*
G01*
X108975516Y-69099720D02*
G75*
G03*
X109025001Y-68882843I-450505J216876D01*
G01*
X108975516Y-69099720D02*
G75*
G03*
X109678289Y-69748297I450515J-216877D01*
G01*
X109930547Y-69679999D02*
G75*
G03*
X109678289Y-69748298I3J-500009D01*
G01*
X109678289Y-66611701D02*
G75*
G03*
X109930548Y-66680000I252261J431710D01*
G01*
X111771711Y-69748299D02*
G75*
G03*
X111519453Y-69680000I-252261J-431711D01*
G01*
X111519452Y-66679999D02*
G75*
G03*
X111771710Y-66611701I-2J500009D01*
G01*
X112474481Y-67260278D02*
G75*
G03*
X111771711Y-66611704I-450511J216878D01*
G01*
X112474482Y-67260279D02*
G75*
G03*
X112424999Y-67477157I450548J-216881D01*
G01*
X111771711Y-69748299D02*
G75*
G03*
X112474483Y-69099720I252259J431699D01*
G01*
X112424999Y-68882842D02*
G75*
G03*
X112474484Y-69099720I499301J-158D01*
G01*
%TO.C,L95*%
X154268801Y-145082842D02*
X154268801Y-143677158D01*
X155174348Y-142880000D02*
X156763252Y-142880000D01*
X156763252Y-145879999D02*
X155174347Y-145879999D01*
X157668799Y-143677158D02*
X157668799Y-145082842D01*
X154268800Y-143677158D02*
G75*
G03*
X154219315Y-143460280I-499989J2D01*
G01*
X154922089Y-142811701D02*
G75*
G03*
X154219317Y-143460281I-252259J-431700D01*
G01*
X154219316Y-145299720D02*
G75*
G03*
X154268801Y-145082843I-450505J216876D01*
G01*
X154219316Y-145299720D02*
G75*
G03*
X154922089Y-145948297I450515J-216877D01*
G01*
X155174347Y-145879999D02*
G75*
G03*
X154922089Y-145948298I3J-500009D01*
G01*
X154922089Y-142811701D02*
G75*
G03*
X155174348Y-142880000I252261J431710D01*
G01*
X157015511Y-145948299D02*
G75*
G03*
X156763253Y-145880000I-252261J-431711D01*
G01*
X156763252Y-142879999D02*
G75*
G03*
X157015510Y-142811701I-2J500009D01*
G01*
X157718281Y-143460278D02*
G75*
G03*
X157015511Y-142811704I-450511J216878D01*
G01*
X157718282Y-143460279D02*
G75*
G03*
X157668799Y-143677157I450548J-216881D01*
G01*
X157015511Y-145948299D02*
G75*
G03*
X157718283Y-145299720I252259J431699D01*
G01*
X157668799Y-145082842D02*
G75*
G03*
X157718284Y-145299720I499301J-158D01*
G01*
%TO.C,L41*%
X99500001Y-87932842D02*
X99500001Y-86527158D01*
X100405548Y-85730000D02*
X101994452Y-85730000D01*
X101994452Y-88729999D02*
X100405547Y-88729999D01*
X102899999Y-86527158D02*
X102899999Y-87932842D01*
X99500000Y-86527158D02*
G75*
G03*
X99450515Y-86310280I-499989J2D01*
G01*
X100153289Y-85661701D02*
G75*
G03*
X99450517Y-86310281I-252259J-431700D01*
G01*
X99450516Y-88149720D02*
G75*
G03*
X99500001Y-87932843I-450505J216876D01*
G01*
X99450516Y-88149720D02*
G75*
G03*
X100153289Y-88798297I450515J-216877D01*
G01*
X100405547Y-88729999D02*
G75*
G03*
X100153289Y-88798298I3J-500009D01*
G01*
X100153289Y-85661701D02*
G75*
G03*
X100405548Y-85730000I252261J431710D01*
G01*
X102246711Y-88798299D02*
G75*
G03*
X101994453Y-88730000I-252261J-431711D01*
G01*
X101994452Y-85729999D02*
G75*
G03*
X102246710Y-85661701I-2J500009D01*
G01*
X102949481Y-86310278D02*
G75*
G03*
X102246711Y-85661704I-450511J216878D01*
G01*
X102949482Y-86310279D02*
G75*
G03*
X102899999Y-86527157I450548J-216881D01*
G01*
X102246711Y-88798299D02*
G75*
G03*
X102949483Y-88149720I252259J431699D01*
G01*
X102899999Y-87932842D02*
G75*
G03*
X102949484Y-88149720I499301J-158D01*
G01*
%TO.C,L65*%
X161412501Y-106982842D02*
X161412501Y-105577158D01*
X162318048Y-104780000D02*
X163906952Y-104780000D01*
X163906952Y-107779999D02*
X162318047Y-107779999D01*
X164812499Y-105577158D02*
X164812499Y-106982842D01*
X161412500Y-105577158D02*
G75*
G03*
X161363015Y-105360280I-499989J2D01*
G01*
X162065789Y-104711701D02*
G75*
G03*
X161363017Y-105360281I-252259J-431700D01*
G01*
X161363016Y-107199720D02*
G75*
G03*
X161412501Y-106982843I-450505J216876D01*
G01*
X161363016Y-107199720D02*
G75*
G03*
X162065789Y-107848297I450515J-216877D01*
G01*
X162318047Y-107779999D02*
G75*
G03*
X162065789Y-107848298I3J-500009D01*
G01*
X162065789Y-104711701D02*
G75*
G03*
X162318048Y-104780000I252261J431710D01*
G01*
X164159211Y-107848299D02*
G75*
G03*
X163906953Y-107780000I-252261J-431711D01*
G01*
X163906952Y-104779999D02*
G75*
G03*
X164159210Y-104711701I-2J500009D01*
G01*
X164861981Y-105360278D02*
G75*
G03*
X164159211Y-104711704I-450511J216878D01*
G01*
X164861982Y-105360279D02*
G75*
G03*
X164812499Y-105577157I450548J-216881D01*
G01*
X164159211Y-107848299D02*
G75*
G03*
X164861983Y-107199720I252259J431699D01*
G01*
X164812499Y-106982842D02*
G75*
G03*
X164861984Y-107199720I499301J-158D01*
G01*
%TO.C,L20*%
X89975001Y-68882842D02*
X89975001Y-67477158D01*
X90880548Y-66680000D02*
X92469452Y-66680000D01*
X92469452Y-69679999D02*
X90880547Y-69679999D01*
X93374999Y-67477158D02*
X93374999Y-68882842D01*
X89975000Y-67477158D02*
G75*
G03*
X89925515Y-67260280I-499989J2D01*
G01*
X90628289Y-66611701D02*
G75*
G03*
X89925517Y-67260281I-252259J-431700D01*
G01*
X89925516Y-69099720D02*
G75*
G03*
X89975001Y-68882843I-450505J216876D01*
G01*
X89925516Y-69099720D02*
G75*
G03*
X90628289Y-69748297I450515J-216877D01*
G01*
X90880547Y-69679999D02*
G75*
G03*
X90628289Y-69748298I3J-500009D01*
G01*
X90628289Y-66611701D02*
G75*
G03*
X90880548Y-66680000I252261J431710D01*
G01*
X92721711Y-69748299D02*
G75*
G03*
X92469453Y-69680000I-252261J-431711D01*
G01*
X92469452Y-66679999D02*
G75*
G03*
X92721710Y-66611701I-2J500009D01*
G01*
X93424481Y-67260278D02*
G75*
G03*
X92721711Y-66611704I-450511J216878D01*
G01*
X93424482Y-67260279D02*
G75*
G03*
X93374999Y-67477157I450548J-216881D01*
G01*
X92721711Y-69748299D02*
G75*
G03*
X93424483Y-69099720I252259J431699D01*
G01*
X93374999Y-68882842D02*
G75*
G03*
X93424484Y-69099720I499301J-158D01*
G01*
%TO.C,L1*%
X32825001Y-40307842D02*
X32825001Y-38902158D01*
X33730548Y-38105000D02*
X35319452Y-38105000D01*
X35319452Y-41104999D02*
X33730547Y-41104999D01*
X36224999Y-38902158D02*
X36224999Y-40307842D01*
X32825000Y-38902158D02*
G75*
G03*
X32775515Y-38685280I-499989J2D01*
G01*
X33478289Y-38036701D02*
G75*
G03*
X32775517Y-38685281I-252259J-431700D01*
G01*
X32775516Y-40524720D02*
G75*
G03*
X32825001Y-40307843I-450505J216876D01*
G01*
X32775516Y-40524720D02*
G75*
G03*
X33478289Y-41173297I450515J-216877D01*
G01*
X33730547Y-41104999D02*
G75*
G03*
X33478289Y-41173298I3J-500009D01*
G01*
X33478289Y-38036701D02*
G75*
G03*
X33730548Y-38105000I252261J431710D01*
G01*
X35571711Y-41173299D02*
G75*
G03*
X35319453Y-41105000I-252261J-431711D01*
G01*
X35319452Y-38104999D02*
G75*
G03*
X35571710Y-38036701I-2J500009D01*
G01*
X36274481Y-38685278D02*
G75*
G03*
X35571711Y-38036704I-450511J216878D01*
G01*
X36274482Y-38685279D02*
G75*
G03*
X36224999Y-38902157I450548J-216881D01*
G01*
X35571711Y-41173299D02*
G75*
G03*
X36274483Y-40524720I252259J431699D01*
G01*
X36224999Y-40307842D02*
G75*
G03*
X36274484Y-40524720I499301J-158D01*
G01*
%TO.C,L18*%
X51875001Y-68882842D02*
X51875001Y-67477158D01*
X52780548Y-66680000D02*
X54369452Y-66680000D01*
X54369452Y-69679999D02*
X52780547Y-69679999D01*
X55274999Y-67477158D02*
X55274999Y-68882842D01*
X51875000Y-67477158D02*
G75*
G03*
X51825515Y-67260280I-499989J2D01*
G01*
X52528289Y-66611701D02*
G75*
G03*
X51825517Y-67260281I-252259J-431700D01*
G01*
X51825516Y-69099720D02*
G75*
G03*
X51875001Y-68882843I-450505J216876D01*
G01*
X51825516Y-69099720D02*
G75*
G03*
X52528289Y-69748297I450515J-216877D01*
G01*
X52780547Y-69679999D02*
G75*
G03*
X52528289Y-69748298I3J-500009D01*
G01*
X52528289Y-66611701D02*
G75*
G03*
X52780548Y-66680000I252261J431710D01*
G01*
X54621711Y-69748299D02*
G75*
G03*
X54369453Y-69680000I-252261J-431711D01*
G01*
X54369452Y-66679999D02*
G75*
G03*
X54621710Y-66611701I-2J500009D01*
G01*
X55324481Y-67260278D02*
G75*
G03*
X54621711Y-66611704I-450511J216878D01*
G01*
X55324482Y-67260279D02*
G75*
G03*
X55274999Y-67477157I450548J-216881D01*
G01*
X54621711Y-69748299D02*
G75*
G03*
X55324483Y-69099720I252259J431699D01*
G01*
X55274999Y-68882842D02*
G75*
G03*
X55324484Y-69099720I499301J-158D01*
G01*
%TO.C,L79*%
X132837501Y-126032842D02*
X132837501Y-124627158D01*
X133743048Y-123830000D02*
X135331952Y-123830000D01*
X135331952Y-126829999D02*
X133743047Y-126829999D01*
X136237499Y-124627158D02*
X136237499Y-126032842D01*
X132837500Y-124627158D02*
G75*
G03*
X132788015Y-124410280I-499989J2D01*
G01*
X133490789Y-123761701D02*
G75*
G03*
X132788017Y-124410281I-252259J-431700D01*
G01*
X132788016Y-126249720D02*
G75*
G03*
X132837501Y-126032843I-450505J216876D01*
G01*
X132788016Y-126249720D02*
G75*
G03*
X133490789Y-126898297I450515J-216877D01*
G01*
X133743047Y-126829999D02*
G75*
G03*
X133490789Y-126898298I3J-500009D01*
G01*
X133490789Y-123761701D02*
G75*
G03*
X133743048Y-123830000I252261J431710D01*
G01*
X135584211Y-126898299D02*
G75*
G03*
X135331953Y-126830000I-252261J-431711D01*
G01*
X135331952Y-123829999D02*
G75*
G03*
X135584210Y-123761701I-2J500009D01*
G01*
X136286981Y-124410278D02*
G75*
G03*
X135584211Y-123761704I-450511J216878D01*
G01*
X136286982Y-124410279D02*
G75*
G03*
X136237499Y-124627157I450548J-216881D01*
G01*
X135584211Y-126898299D02*
G75*
G03*
X136286983Y-126249720I252259J431699D01*
G01*
X136237499Y-126032842D02*
G75*
G03*
X136286984Y-126249720I499301J-158D01*
G01*
%TO.C,L51*%
X294762501Y-87932842D02*
X294762501Y-86527158D01*
X295668048Y-85730000D02*
X297256952Y-85730000D01*
X297256952Y-88729999D02*
X295668047Y-88729999D01*
X298162499Y-86527158D02*
X298162499Y-87932842D01*
X294762500Y-86527158D02*
G75*
G03*
X294713015Y-86310280I-499989J2D01*
G01*
X295415789Y-85661701D02*
G75*
G03*
X294713017Y-86310281I-252259J-431700D01*
G01*
X294713016Y-88149720D02*
G75*
G03*
X294762501Y-87932843I-450505J216876D01*
G01*
X294713016Y-88149720D02*
G75*
G03*
X295415789Y-88798297I450515J-216877D01*
G01*
X295668047Y-88729999D02*
G75*
G03*
X295415789Y-88798298I3J-500009D01*
G01*
X295415789Y-85661701D02*
G75*
G03*
X295668048Y-85730000I252261J431710D01*
G01*
X297509211Y-88798299D02*
G75*
G03*
X297256953Y-88730000I-252261J-431711D01*
G01*
X297256952Y-85729999D02*
G75*
G03*
X297509210Y-85661701I-2J500009D01*
G01*
X298211981Y-86310278D02*
G75*
G03*
X297509211Y-85661704I-450511J216878D01*
G01*
X298211982Y-86310279D02*
G75*
G03*
X298162499Y-86527157I450548J-216881D01*
G01*
X297509211Y-88798299D02*
G75*
G03*
X298211983Y-88149720I252259J431699D01*
G01*
X298162499Y-87932842D02*
G75*
G03*
X298211984Y-88149720I499301J-158D01*
G01*
%TO.C,L7*%
X175700001Y-40307842D02*
X175700001Y-38902158D01*
X176605548Y-38105000D02*
X178194452Y-38105000D01*
X178194452Y-41104999D02*
X176605547Y-41104999D01*
X179099999Y-38902158D02*
X179099999Y-40307842D01*
X175700000Y-38902158D02*
G75*
G03*
X175650515Y-38685280I-499989J2D01*
G01*
X176353289Y-38036701D02*
G75*
G03*
X175650517Y-38685281I-252259J-431700D01*
G01*
X175650516Y-40524720D02*
G75*
G03*
X175700001Y-40307843I-450505J216876D01*
G01*
X175650516Y-40524720D02*
G75*
G03*
X176353289Y-41173297I450515J-216877D01*
G01*
X176605547Y-41104999D02*
G75*
G03*
X176353289Y-41173298I3J-500009D01*
G01*
X176353289Y-38036701D02*
G75*
G03*
X176605548Y-38105000I252261J431710D01*
G01*
X178446711Y-41173299D02*
G75*
G03*
X178194453Y-41105000I-252261J-431711D01*
G01*
X178194452Y-38104999D02*
G75*
G03*
X178446710Y-38036701I-2J500009D01*
G01*
X179149481Y-38685278D02*
G75*
G03*
X178446711Y-38036704I-450511J216878D01*
G01*
X179149482Y-38685279D02*
G75*
G03*
X179099999Y-38902157I450548J-216881D01*
G01*
X178446711Y-41173299D02*
G75*
G03*
X179149483Y-40524720I252259J431699D01*
G01*
X179099999Y-40307842D02*
G75*
G03*
X179149484Y-40524720I499301J-158D01*
G01*
%TO.C,L101*%
X342387501Y-145082842D02*
X342387501Y-143677158D01*
X343293048Y-142880000D02*
X344881952Y-142880000D01*
X344881952Y-145879999D02*
X343293047Y-145879999D01*
X345787499Y-143677158D02*
X345787499Y-145082842D01*
X342387500Y-143677158D02*
G75*
G03*
X342338015Y-143460280I-499989J2D01*
G01*
X343040789Y-142811701D02*
G75*
G03*
X342338017Y-143460281I-252259J-431700D01*
G01*
X342338016Y-145299720D02*
G75*
G03*
X342387501Y-145082843I-450505J216876D01*
G01*
X342338016Y-145299720D02*
G75*
G03*
X343040789Y-145948297I450515J-216877D01*
G01*
X343293047Y-145879999D02*
G75*
G03*
X343040789Y-145948298I3J-500009D01*
G01*
X343040789Y-142811701D02*
G75*
G03*
X343293048Y-142880000I252261J431710D01*
G01*
X345134211Y-145948299D02*
G75*
G03*
X344881953Y-145880000I-252261J-431711D01*
G01*
X344881952Y-142879999D02*
G75*
G03*
X345134210Y-142811701I-2J500009D01*
G01*
X345836981Y-143460278D02*
G75*
G03*
X345134211Y-142811704I-450511J216878D01*
G01*
X345836982Y-143460279D02*
G75*
G03*
X345787499Y-143677157I450548J-216881D01*
G01*
X345134211Y-145948299D02*
G75*
G03*
X345836983Y-145299720I252259J431699D01*
G01*
X345787499Y-145082842D02*
G75*
G03*
X345836984Y-145299720I499301J-158D01*
G01*
%TO.C,L40*%
X80450001Y-87932842D02*
X80450001Y-86527158D01*
X81355548Y-85730000D02*
X82944452Y-85730000D01*
X82944452Y-88729999D02*
X81355547Y-88729999D01*
X83849999Y-86527158D02*
X83849999Y-87932842D01*
X80450000Y-86527158D02*
G75*
G03*
X80400515Y-86310280I-499989J2D01*
G01*
X81103289Y-85661701D02*
G75*
G03*
X80400517Y-86310281I-252259J-431700D01*
G01*
X80400516Y-88149720D02*
G75*
G03*
X80450001Y-87932843I-450505J216876D01*
G01*
X80400516Y-88149720D02*
G75*
G03*
X81103289Y-88798297I450515J-216877D01*
G01*
X81355547Y-88729999D02*
G75*
G03*
X81103289Y-88798298I3J-500009D01*
G01*
X81103289Y-85661701D02*
G75*
G03*
X81355548Y-85730000I252261J431710D01*
G01*
X83196711Y-88798299D02*
G75*
G03*
X82944453Y-88730000I-252261J-431711D01*
G01*
X82944452Y-85729999D02*
G75*
G03*
X83196710Y-85661701I-2J500009D01*
G01*
X83899481Y-86310278D02*
G75*
G03*
X83196711Y-85661704I-450511J216878D01*
G01*
X83899482Y-86310279D02*
G75*
G03*
X83849999Y-86527157I450548J-216881D01*
G01*
X83196711Y-88798299D02*
G75*
G03*
X83899483Y-88149720I252259J431699D01*
G01*
X83849999Y-87932842D02*
G75*
G03*
X83899484Y-88149720I499301J-158D01*
G01*
%TO.C,L62*%
X104262501Y-106982842D02*
X104262501Y-105577158D01*
X105168048Y-104780000D02*
X106756952Y-104780000D01*
X106756952Y-107779999D02*
X105168047Y-107779999D01*
X107662499Y-105577158D02*
X107662499Y-106982842D01*
X104262500Y-105577158D02*
G75*
G03*
X104213015Y-105360280I-499989J2D01*
G01*
X104915789Y-104711701D02*
G75*
G03*
X104213017Y-105360281I-252259J-431700D01*
G01*
X104213016Y-107199720D02*
G75*
G03*
X104262501Y-106982843I-450505J216876D01*
G01*
X104213016Y-107199720D02*
G75*
G03*
X104915789Y-107848297I450515J-216877D01*
G01*
X105168047Y-107779999D02*
G75*
G03*
X104915789Y-107848298I3J-500009D01*
G01*
X104915789Y-104711701D02*
G75*
G03*
X105168048Y-104780000I252261J431710D01*
G01*
X107009211Y-107848299D02*
G75*
G03*
X106756953Y-107780000I-252261J-431711D01*
G01*
X106756952Y-104779999D02*
G75*
G03*
X107009210Y-104711701I-2J500009D01*
G01*
X107711981Y-105360278D02*
G75*
G03*
X107009211Y-104711704I-450511J216878D01*
G01*
X107711982Y-105360279D02*
G75*
G03*
X107662499Y-105577157I450548J-216881D01*
G01*
X107009211Y-107848299D02*
G75*
G03*
X107711983Y-107199720I252259J431699D01*
G01*
X107662499Y-106982842D02*
G75*
G03*
X107711984Y-107199720I499301J-158D01*
G01*
%TO.C,L45*%
X175700001Y-87932842D02*
X175700001Y-86527158D01*
X176605548Y-85730000D02*
X178194452Y-85730000D01*
X178194452Y-88729999D02*
X176605547Y-88729999D01*
X179099999Y-86527158D02*
X179099999Y-87932842D01*
X175700000Y-86527158D02*
G75*
G03*
X175650515Y-86310280I-499989J2D01*
G01*
X176353289Y-85661701D02*
G75*
G03*
X175650517Y-86310281I-252259J-431700D01*
G01*
X175650516Y-88149720D02*
G75*
G03*
X175700001Y-87932843I-450505J216876D01*
G01*
X175650516Y-88149720D02*
G75*
G03*
X176353289Y-88798297I450515J-216877D01*
G01*
X176605547Y-88729999D02*
G75*
G03*
X176353289Y-88798298I3J-500009D01*
G01*
X176353289Y-85661701D02*
G75*
G03*
X176605548Y-85730000I252261J431710D01*
G01*
X178446711Y-88798299D02*
G75*
G03*
X178194453Y-88730000I-252261J-431711D01*
G01*
X178194452Y-85729999D02*
G75*
G03*
X178446710Y-85661701I-2J500009D01*
G01*
X179149481Y-86310278D02*
G75*
G03*
X178446711Y-85661704I-450511J216878D01*
G01*
X179149482Y-86310279D02*
G75*
G03*
X179099999Y-86527157I450548J-216881D01*
G01*
X178446711Y-88798299D02*
G75*
G03*
X179149483Y-88149720I252259J431699D01*
G01*
X179099999Y-87932842D02*
G75*
G03*
X179149484Y-88149720I499301J-158D01*
G01*
%TO.C,L70*%
X256662501Y-106982842D02*
X256662501Y-105577158D01*
X257568048Y-104780000D02*
X259156952Y-104780000D01*
X259156952Y-107779999D02*
X257568047Y-107779999D01*
X260062499Y-105577158D02*
X260062499Y-106982842D01*
X256662500Y-105577158D02*
G75*
G03*
X256613015Y-105360280I-499989J2D01*
G01*
X257315789Y-104711701D02*
G75*
G03*
X256613017Y-105360281I-252259J-431700D01*
G01*
X256613016Y-107199720D02*
G75*
G03*
X256662501Y-106982843I-450505J216876D01*
G01*
X256613016Y-107199720D02*
G75*
G03*
X257315789Y-107848297I450515J-216877D01*
G01*
X257568047Y-107779999D02*
G75*
G03*
X257315789Y-107848298I3J-500009D01*
G01*
X257315789Y-104711701D02*
G75*
G03*
X257568048Y-104780000I252261J431710D01*
G01*
X259409211Y-107848299D02*
G75*
G03*
X259156953Y-107780000I-252261J-431711D01*
G01*
X259156952Y-104779999D02*
G75*
G03*
X259409210Y-104711701I-2J500009D01*
G01*
X260111981Y-105360278D02*
G75*
G03*
X259409211Y-104711704I-450511J216878D01*
G01*
X260111982Y-105360279D02*
G75*
G03*
X260062499Y-105577157I450548J-216881D01*
G01*
X259409211Y-107848299D02*
G75*
G03*
X260111983Y-107199720I252259J431699D01*
G01*
X260062499Y-106982842D02*
G75*
G03*
X260111984Y-107199720I499301J-158D01*
G01*
%TO.C,L12*%
X280475001Y-40307842D02*
X280475001Y-38902158D01*
X281380548Y-38105000D02*
X282969452Y-38105000D01*
X282969452Y-41104999D02*
X281380547Y-41104999D01*
X283874999Y-38902158D02*
X283874999Y-40307842D01*
X280475000Y-38902158D02*
G75*
G03*
X280425515Y-38685280I-499989J2D01*
G01*
X281128289Y-38036701D02*
G75*
G03*
X280425517Y-38685281I-252259J-431700D01*
G01*
X280425516Y-40524720D02*
G75*
G03*
X280475001Y-40307843I-450505J216876D01*
G01*
X280425516Y-40524720D02*
G75*
G03*
X281128289Y-41173297I450515J-216877D01*
G01*
X281380547Y-41104999D02*
G75*
G03*
X281128289Y-41173298I3J-500009D01*
G01*
X281128289Y-38036701D02*
G75*
G03*
X281380548Y-38105000I252261J431710D01*
G01*
X283221711Y-41173299D02*
G75*
G03*
X282969453Y-41105000I-252261J-431711D01*
G01*
X282969452Y-38104999D02*
G75*
G03*
X283221710Y-38036701I-2J500009D01*
G01*
X283924481Y-38685278D02*
G75*
G03*
X283221711Y-38036704I-450511J216878D01*
G01*
X283924482Y-38685279D02*
G75*
G03*
X283874999Y-38902157I450548J-216881D01*
G01*
X283221711Y-41173299D02*
G75*
G03*
X283924483Y-40524720I252259J431699D01*
G01*
X283874999Y-40307842D02*
G75*
G03*
X283924484Y-40524720I499301J-158D01*
G01*
%TO.C,L25*%
X185225001Y-68882842D02*
X185225001Y-67477158D01*
X186130548Y-66680000D02*
X187719452Y-66680000D01*
X187719452Y-69679999D02*
X186130547Y-69679999D01*
X188624999Y-67477158D02*
X188624999Y-68882842D01*
X185225000Y-67477158D02*
G75*
G03*
X185175515Y-67260280I-499989J2D01*
G01*
X185878289Y-66611701D02*
G75*
G03*
X185175517Y-67260281I-252259J-431700D01*
G01*
X185175516Y-69099720D02*
G75*
G03*
X185225001Y-68882843I-450505J216876D01*
G01*
X185175516Y-69099720D02*
G75*
G03*
X185878289Y-69748297I450515J-216877D01*
G01*
X186130547Y-69679999D02*
G75*
G03*
X185878289Y-69748298I3J-500009D01*
G01*
X185878289Y-66611701D02*
G75*
G03*
X186130548Y-66680000I252261J431710D01*
G01*
X187971711Y-69748299D02*
G75*
G03*
X187719453Y-69680000I-252261J-431711D01*
G01*
X187719452Y-66679999D02*
G75*
G03*
X187971710Y-66611701I-2J500009D01*
G01*
X188674481Y-67260278D02*
G75*
G03*
X187971711Y-66611704I-450511J216878D01*
G01*
X188674482Y-67260279D02*
G75*
G03*
X188624999Y-67477157I450548J-216881D01*
G01*
X187971711Y-69748299D02*
G75*
G03*
X188674483Y-69099720I252259J431699D01*
G01*
X188624999Y-68882842D02*
G75*
G03*
X188674484Y-69099720I499301J-158D01*
G01*
%TO.C,L55*%
X385250001Y-87932842D02*
X385250001Y-86527158D01*
X386155548Y-85730000D02*
X387744452Y-85730000D01*
X387744452Y-88729999D02*
X386155547Y-88729999D01*
X388649999Y-86527158D02*
X388649999Y-87932842D01*
X385250000Y-86527158D02*
G75*
G03*
X385200515Y-86310280I-499989J2D01*
G01*
X385903289Y-85661701D02*
G75*
G03*
X385200517Y-86310281I-252259J-431700D01*
G01*
X385200516Y-88149720D02*
G75*
G03*
X385250001Y-87932843I-450505J216876D01*
G01*
X385200516Y-88149720D02*
G75*
G03*
X385903289Y-88798297I450515J-216877D01*
G01*
X386155547Y-88729999D02*
G75*
G03*
X385903289Y-88798298I3J-500009D01*
G01*
X385903289Y-85661701D02*
G75*
G03*
X386155548Y-85730000I252261J431710D01*
G01*
X387996711Y-88798299D02*
G75*
G03*
X387744453Y-88730000I-252261J-431711D01*
G01*
X387744452Y-85729999D02*
G75*
G03*
X387996710Y-85661701I-2J500009D01*
G01*
X388699481Y-86310278D02*
G75*
G03*
X387996711Y-85661704I-450511J216878D01*
G01*
X388699482Y-86310279D02*
G75*
G03*
X388649999Y-86527157I450548J-216881D01*
G01*
X387996711Y-88798299D02*
G75*
G03*
X388699483Y-88149720I252259J431699D01*
G01*
X388649999Y-87932842D02*
G75*
G03*
X388699484Y-88149720I499301J-158D01*
G01*
%TO.C,L80*%
X151887501Y-126032842D02*
X151887501Y-124627158D01*
X152793048Y-123830000D02*
X154381952Y-123830000D01*
X154381952Y-126829999D02*
X152793047Y-126829999D01*
X155287499Y-124627158D02*
X155287499Y-126032842D01*
X151887500Y-124627158D02*
G75*
G03*
X151838015Y-124410280I-499989J2D01*
G01*
X152540789Y-123761701D02*
G75*
G03*
X151838017Y-124410281I-252259J-431700D01*
G01*
X151838016Y-126249720D02*
G75*
G03*
X151887501Y-126032843I-450505J216876D01*
G01*
X151838016Y-126249720D02*
G75*
G03*
X152540789Y-126898297I450515J-216877D01*
G01*
X152793047Y-126829999D02*
G75*
G03*
X152540789Y-126898298I3J-500009D01*
G01*
X152540789Y-123761701D02*
G75*
G03*
X152793048Y-123830000I252261J431710D01*
G01*
X154634211Y-126898299D02*
G75*
G03*
X154381953Y-126830000I-252261J-431711D01*
G01*
X154381952Y-123829999D02*
G75*
G03*
X154634210Y-123761701I-2J500009D01*
G01*
X155336981Y-124410278D02*
G75*
G03*
X154634211Y-123761704I-450511J216878D01*
G01*
X155336982Y-124410279D02*
G75*
G03*
X155287499Y-124627157I450548J-216881D01*
G01*
X154634211Y-126898299D02*
G75*
G03*
X155336983Y-126249720I252259J431699D01*
G01*
X155287499Y-126032842D02*
G75*
G03*
X155336984Y-126249720I499301J-158D01*
G01*
%TO.C,L103*%
X394775001Y-145082842D02*
X394775001Y-143677158D01*
X395680548Y-142880000D02*
X397269452Y-142880000D01*
X397269452Y-145879999D02*
X395680547Y-145879999D01*
X398174999Y-143677158D02*
X398174999Y-145082842D01*
X394775000Y-143677158D02*
G75*
G03*
X394725515Y-143460280I-499989J2D01*
G01*
X395428289Y-142811701D02*
G75*
G03*
X394725517Y-143460281I-252259J-431700D01*
G01*
X394725516Y-145299720D02*
G75*
G03*
X394775001Y-145082843I-450505J216876D01*
G01*
X394725516Y-145299720D02*
G75*
G03*
X395428289Y-145948297I450515J-216877D01*
G01*
X395680547Y-145879999D02*
G75*
G03*
X395428289Y-145948298I3J-500009D01*
G01*
X395428289Y-142811701D02*
G75*
G03*
X395680548Y-142880000I252261J431710D01*
G01*
X397521711Y-145948299D02*
G75*
G03*
X397269453Y-145880000I-252261J-431711D01*
G01*
X397269452Y-142879999D02*
G75*
G03*
X397521710Y-142811701I-2J500009D01*
G01*
X398224481Y-143460278D02*
G75*
G03*
X397521711Y-142811704I-450511J216878D01*
G01*
X398224482Y-143460279D02*
G75*
G03*
X398174999Y-143677157I450548J-216881D01*
G01*
X397521711Y-145948299D02*
G75*
G03*
X398224483Y-145299720I252259J431699D01*
G01*
X398174999Y-145082842D02*
G75*
G03*
X398224484Y-145299720I499301J-158D01*
G01*
%TO.C,L37*%
X442400001Y-68882842D02*
X442400001Y-67477158D01*
X443305548Y-66680000D02*
X444894452Y-66680000D01*
X444894452Y-69679999D02*
X443305547Y-69679999D01*
X445799999Y-67477158D02*
X445799999Y-68882842D01*
X442400000Y-67477158D02*
G75*
G03*
X442350515Y-67260280I-499989J2D01*
G01*
X443053289Y-66611701D02*
G75*
G03*
X442350517Y-67260281I-252259J-431700D01*
G01*
X442350516Y-69099720D02*
G75*
G03*
X442400001Y-68882843I-450505J216876D01*
G01*
X442350516Y-69099720D02*
G75*
G03*
X443053289Y-69748297I450515J-216877D01*
G01*
X443305547Y-69679999D02*
G75*
G03*
X443053289Y-69748298I3J-500009D01*
G01*
X443053289Y-66611701D02*
G75*
G03*
X443305548Y-66680000I252261J431710D01*
G01*
X445146711Y-69748299D02*
G75*
G03*
X444894453Y-69680000I-252261J-431711D01*
G01*
X444894452Y-66679999D02*
G75*
G03*
X445146710Y-66611701I-2J500009D01*
G01*
X445849481Y-67260278D02*
G75*
G03*
X445146711Y-66611704I-450511J216878D01*
G01*
X445849482Y-67260279D02*
G75*
G03*
X445799999Y-67477157I450548J-216881D01*
G01*
X445146711Y-69748299D02*
G75*
G03*
X445849483Y-69099720I252259J431699D01*
G01*
X445799999Y-68882842D02*
G75*
G03*
X445849484Y-69099720I499301J-158D01*
G01*
%TO.C,L38*%
X37587501Y-87932842D02*
X37587501Y-86527158D01*
X38493048Y-85730000D02*
X40081952Y-85730000D01*
X40081952Y-88729999D02*
X38493047Y-88729999D01*
X40987499Y-86527158D02*
X40987499Y-87932842D01*
X37587500Y-86527158D02*
G75*
G03*
X37538015Y-86310280I-499989J2D01*
G01*
X38240789Y-85661701D02*
G75*
G03*
X37538017Y-86310281I-252259J-431700D01*
G01*
X37538016Y-88149720D02*
G75*
G03*
X37587501Y-87932843I-450505J216876D01*
G01*
X37538016Y-88149720D02*
G75*
G03*
X38240789Y-88798297I450515J-216877D01*
G01*
X38493047Y-88729999D02*
G75*
G03*
X38240789Y-88798298I3J-500009D01*
G01*
X38240789Y-85661701D02*
G75*
G03*
X38493048Y-85730000I252261J431710D01*
G01*
X40334211Y-88798299D02*
G75*
G03*
X40081953Y-88730000I-252261J-431711D01*
G01*
X40081952Y-85729999D02*
G75*
G03*
X40334210Y-85661701I-2J500009D01*
G01*
X41036981Y-86310278D02*
G75*
G03*
X40334211Y-85661704I-450511J216878D01*
G01*
X41036982Y-86310279D02*
G75*
G03*
X40987499Y-86527157I450548J-216881D01*
G01*
X40334211Y-88798299D02*
G75*
G03*
X41036983Y-88149720I252259J431699D01*
G01*
X40987499Y-87932842D02*
G75*
G03*
X41036984Y-88149720I499301J-158D01*
G01*
%TO.C,L67*%
X199512501Y-106982842D02*
X199512501Y-105577158D01*
X200418048Y-104780000D02*
X202006952Y-104780000D01*
X202006952Y-107779999D02*
X200418047Y-107779999D01*
X202912499Y-105577158D02*
X202912499Y-106982842D01*
X199512500Y-105577158D02*
G75*
G03*
X199463015Y-105360280I-499989J2D01*
G01*
X200165789Y-104711701D02*
G75*
G03*
X199463017Y-105360281I-252259J-431700D01*
G01*
X199463016Y-107199720D02*
G75*
G03*
X199512501Y-106982843I-450505J216876D01*
G01*
X199463016Y-107199720D02*
G75*
G03*
X200165789Y-107848297I450515J-216877D01*
G01*
X200418047Y-107779999D02*
G75*
G03*
X200165789Y-107848298I3J-500009D01*
G01*
X200165789Y-104711701D02*
G75*
G03*
X200418048Y-104780000I252261J431710D01*
G01*
X202259211Y-107848299D02*
G75*
G03*
X202006953Y-107780000I-252261J-431711D01*
G01*
X202006952Y-104779999D02*
G75*
G03*
X202259210Y-104711701I-2J500009D01*
G01*
X202961981Y-105360278D02*
G75*
G03*
X202259211Y-104711704I-450511J216878D01*
G01*
X202961982Y-105360279D02*
G75*
G03*
X202912499Y-105577157I450548J-216881D01*
G01*
X202259211Y-107848299D02*
G75*
G03*
X202961983Y-107199720I252259J431699D01*
G01*
X202912499Y-106982842D02*
G75*
G03*
X202961984Y-107199720I499301J-158D01*
G01*
%TO.C,L97*%
X249518801Y-145082842D02*
X249518801Y-143677158D01*
X250424348Y-142880000D02*
X252013252Y-142880000D01*
X252013252Y-145879999D02*
X250424347Y-145879999D01*
X252918799Y-143677158D02*
X252918799Y-145082842D01*
X249518800Y-143677158D02*
G75*
G03*
X249469315Y-143460280I-499989J2D01*
G01*
X250172089Y-142811701D02*
G75*
G03*
X249469317Y-143460281I-252259J-431700D01*
G01*
X249469316Y-145299720D02*
G75*
G03*
X249518801Y-145082843I-450505J216876D01*
G01*
X249469316Y-145299720D02*
G75*
G03*
X250172089Y-145948297I450515J-216877D01*
G01*
X250424347Y-145879999D02*
G75*
G03*
X250172089Y-145948298I3J-500009D01*
G01*
X250172089Y-142811701D02*
G75*
G03*
X250424348Y-142880000I252261J431710D01*
G01*
X252265511Y-145948299D02*
G75*
G03*
X252013253Y-145880000I-252261J-431711D01*
G01*
X252013252Y-142879999D02*
G75*
G03*
X252265510Y-142811701I-2J500009D01*
G01*
X252968281Y-143460278D02*
G75*
G03*
X252265511Y-142811704I-450511J216878D01*
G01*
X252968282Y-143460279D02*
G75*
G03*
X252918799Y-143677157I450548J-216881D01*
G01*
X252265511Y-145948299D02*
G75*
G03*
X252968283Y-145299720I252259J431699D01*
G01*
X252918799Y-145082842D02*
G75*
G03*
X252968284Y-145299720I499301J-158D01*
G01*
%TO.C,L46*%
X194750001Y-87932842D02*
X194750001Y-86527158D01*
X195655548Y-85730000D02*
X197244452Y-85730000D01*
X197244452Y-88729999D02*
X195655547Y-88729999D01*
X198149999Y-86527158D02*
X198149999Y-87932842D01*
X194750000Y-86527158D02*
G75*
G03*
X194700515Y-86310280I-499989J2D01*
G01*
X195403289Y-85661701D02*
G75*
G03*
X194700517Y-86310281I-252259J-431700D01*
G01*
X194700516Y-88149720D02*
G75*
G03*
X194750001Y-87932843I-450505J216876D01*
G01*
X194700516Y-88149720D02*
G75*
G03*
X195403289Y-88798297I450515J-216877D01*
G01*
X195655547Y-88729999D02*
G75*
G03*
X195403289Y-88798298I3J-500009D01*
G01*
X195403289Y-85661701D02*
G75*
G03*
X195655548Y-85730000I252261J431710D01*
G01*
X197496711Y-88798299D02*
G75*
G03*
X197244453Y-88730000I-252261J-431711D01*
G01*
X197244452Y-85729999D02*
G75*
G03*
X197496710Y-85661701I-2J500009D01*
G01*
X198199481Y-86310278D02*
G75*
G03*
X197496711Y-85661704I-450511J216878D01*
G01*
X198199482Y-86310279D02*
G75*
G03*
X198149999Y-86527157I450548J-216881D01*
G01*
X197496711Y-88798299D02*
G75*
G03*
X198199483Y-88149720I252259J431699D01*
G01*
X198149999Y-87932842D02*
G75*
G03*
X198199484Y-88149720I499301J-158D01*
G01*
%TO.C,L77*%
X94737501Y-126032842D02*
X94737501Y-124627158D01*
X95643048Y-123830000D02*
X97231952Y-123830000D01*
X97231952Y-126829999D02*
X95643047Y-126829999D01*
X98137499Y-124627158D02*
X98137499Y-126032842D01*
X94737500Y-124627158D02*
G75*
G03*
X94688015Y-124410280I-499989J2D01*
G01*
X95390789Y-123761701D02*
G75*
G03*
X94688017Y-124410281I-252259J-431700D01*
G01*
X94688016Y-126249720D02*
G75*
G03*
X94737501Y-126032843I-450505J216876D01*
G01*
X94688016Y-126249720D02*
G75*
G03*
X95390789Y-126898297I450515J-216877D01*
G01*
X95643047Y-126829999D02*
G75*
G03*
X95390789Y-126898298I3J-500009D01*
G01*
X95390789Y-123761701D02*
G75*
G03*
X95643048Y-123830000I252261J431710D01*
G01*
X97484211Y-126898299D02*
G75*
G03*
X97231953Y-126830000I-252261J-431711D01*
G01*
X97231952Y-123829999D02*
G75*
G03*
X97484210Y-123761701I-2J500009D01*
G01*
X98186981Y-124410278D02*
G75*
G03*
X97484211Y-123761704I-450511J216878D01*
G01*
X98186982Y-124410279D02*
G75*
G03*
X98137499Y-124627157I450548J-216881D01*
G01*
X97484211Y-126898299D02*
G75*
G03*
X98186983Y-126249720I252259J431699D01*
G01*
X98137499Y-126032842D02*
G75*
G03*
X98186984Y-126249720I499301J-158D01*
G01*
%TO.C,L27*%
X223325001Y-68882842D02*
X223325001Y-67477158D01*
X224230548Y-66680000D02*
X225819452Y-66680000D01*
X225819452Y-69679999D02*
X224230547Y-69679999D01*
X226724999Y-67477158D02*
X226724999Y-68882842D01*
X223325000Y-67477158D02*
G75*
G03*
X223275515Y-67260280I-499989J2D01*
G01*
X223978289Y-66611701D02*
G75*
G03*
X223275517Y-67260281I-252259J-431700D01*
G01*
X223275516Y-69099720D02*
G75*
G03*
X223325001Y-68882843I-450505J216876D01*
G01*
X223275516Y-69099720D02*
G75*
G03*
X223978289Y-69748297I450515J-216877D01*
G01*
X224230547Y-69679999D02*
G75*
G03*
X223978289Y-69748298I3J-500009D01*
G01*
X223978289Y-66611701D02*
G75*
G03*
X224230548Y-66680000I252261J431710D01*
G01*
X226071711Y-69748299D02*
G75*
G03*
X225819453Y-69680000I-252261J-431711D01*
G01*
X225819452Y-66679999D02*
G75*
G03*
X226071710Y-66611701I-2J500009D01*
G01*
X226774481Y-67260278D02*
G75*
G03*
X226071711Y-66611704I-450511J216878D01*
G01*
X226774482Y-67260279D02*
G75*
G03*
X226724999Y-67477157I450548J-216881D01*
G01*
X226071711Y-69748299D02*
G75*
G03*
X226774483Y-69099720I252259J431699D01*
G01*
X226724999Y-68882842D02*
G75*
G03*
X226774484Y-69099720I499301J-158D01*
G01*
%TO.C,L36*%
X423350001Y-68882842D02*
X423350001Y-67477158D01*
X424255548Y-66680000D02*
X425844452Y-66680000D01*
X425844452Y-69679999D02*
X424255547Y-69679999D01*
X426749999Y-67477158D02*
X426749999Y-68882842D01*
X423350000Y-67477158D02*
G75*
G03*
X423300515Y-67260280I-499989J2D01*
G01*
X424003289Y-66611701D02*
G75*
G03*
X423300517Y-67260281I-252259J-431700D01*
G01*
X423300516Y-69099720D02*
G75*
G03*
X423350001Y-68882843I-450505J216876D01*
G01*
X423300516Y-69099720D02*
G75*
G03*
X424003289Y-69748297I450515J-216877D01*
G01*
X424255547Y-69679999D02*
G75*
G03*
X424003289Y-69748298I3J-500009D01*
G01*
X424003289Y-66611701D02*
G75*
G03*
X424255548Y-66680000I252261J431710D01*
G01*
X426096711Y-69748299D02*
G75*
G03*
X425844453Y-69680000I-252261J-431711D01*
G01*
X425844452Y-66679999D02*
G75*
G03*
X426096710Y-66611701I-2J500009D01*
G01*
X426799481Y-67260278D02*
G75*
G03*
X426096711Y-66611704I-450511J216878D01*
G01*
X426799482Y-67260279D02*
G75*
G03*
X426749999Y-67477157I450548J-216881D01*
G01*
X426096711Y-69748299D02*
G75*
G03*
X426799483Y-69099720I252259J431699D01*
G01*
X426749999Y-68882842D02*
G75*
G03*
X426799484Y-69099720I499301J-158D01*
G01*
%TO.C,L89*%
X404300001Y-126032842D02*
X404300001Y-124627158D01*
X405205548Y-123830000D02*
X406794452Y-123830000D01*
X406794452Y-126829999D02*
X405205547Y-126829999D01*
X407699999Y-124627158D02*
X407699999Y-126032842D01*
X404300000Y-124627158D02*
G75*
G03*
X404250515Y-124410280I-499989J2D01*
G01*
X404953289Y-123761701D02*
G75*
G03*
X404250517Y-124410281I-252259J-431700D01*
G01*
X404250516Y-126249720D02*
G75*
G03*
X404300001Y-126032843I-450505J216876D01*
G01*
X404250516Y-126249720D02*
G75*
G03*
X404953289Y-126898297I450515J-216877D01*
G01*
X405205547Y-126829999D02*
G75*
G03*
X404953289Y-126898298I3J-500009D01*
G01*
X404953289Y-123761701D02*
G75*
G03*
X405205548Y-123830000I252261J431710D01*
G01*
X407046711Y-126898299D02*
G75*
G03*
X406794453Y-126830000I-252261J-431711D01*
G01*
X406794452Y-123829999D02*
G75*
G03*
X407046710Y-123761701I-2J500009D01*
G01*
X407749481Y-124410278D02*
G75*
G03*
X407046711Y-123761704I-450511J216878D01*
G01*
X407749482Y-124410279D02*
G75*
G03*
X407699999Y-124627157I450548J-216881D01*
G01*
X407046711Y-126898299D02*
G75*
G03*
X407749483Y-126249720I252259J431699D01*
G01*
X407699999Y-126032842D02*
G75*
G03*
X407749484Y-126249720I499301J-158D01*
G01*
%TO.C,L39*%
X61400001Y-87932842D02*
X61400001Y-86527158D01*
X62305548Y-85730000D02*
X63894452Y-85730000D01*
X63894452Y-88729999D02*
X62305547Y-88729999D01*
X64799999Y-86527158D02*
X64799999Y-87932842D01*
X61400000Y-86527158D02*
G75*
G03*
X61350515Y-86310280I-499989J2D01*
G01*
X62053289Y-85661701D02*
G75*
G03*
X61350517Y-86310281I-252259J-431700D01*
G01*
X61350516Y-88149720D02*
G75*
G03*
X61400001Y-87932843I-450505J216876D01*
G01*
X61350516Y-88149720D02*
G75*
G03*
X62053289Y-88798297I450515J-216877D01*
G01*
X62305547Y-88729999D02*
G75*
G03*
X62053289Y-88798298I3J-500009D01*
G01*
X62053289Y-85661701D02*
G75*
G03*
X62305548Y-85730000I252261J431710D01*
G01*
X64146711Y-88798299D02*
G75*
G03*
X63894453Y-88730000I-252261J-431711D01*
G01*
X63894452Y-85729999D02*
G75*
G03*
X64146710Y-85661701I-2J500009D01*
G01*
X64849481Y-86310278D02*
G75*
G03*
X64146711Y-85661704I-450511J216878D01*
G01*
X64849482Y-86310279D02*
G75*
G03*
X64799999Y-86527157I450548J-216881D01*
G01*
X64146711Y-88798299D02*
G75*
G03*
X64849483Y-88149720I252259J431699D01*
G01*
X64799999Y-87932842D02*
G75*
G03*
X64849484Y-88149720I499301J-158D01*
G01*
%TO.C,L15*%
X342387501Y-40307842D02*
X342387501Y-38902158D01*
X343293048Y-38105000D02*
X344881952Y-38105000D01*
X344881952Y-41104999D02*
X343293047Y-41104999D01*
X345787499Y-38902158D02*
X345787499Y-40307842D01*
X342387500Y-38902158D02*
G75*
G03*
X342338015Y-38685280I-499989J2D01*
G01*
X343040789Y-38036701D02*
G75*
G03*
X342338017Y-38685281I-252259J-431700D01*
G01*
X342338016Y-40524720D02*
G75*
G03*
X342387501Y-40307843I-450505J216876D01*
G01*
X342338016Y-40524720D02*
G75*
G03*
X343040789Y-41173297I450515J-216877D01*
G01*
X343293047Y-41104999D02*
G75*
G03*
X343040789Y-41173298I3J-500009D01*
G01*
X343040789Y-38036701D02*
G75*
G03*
X343293048Y-38105000I252261J431710D01*
G01*
X345134211Y-41173299D02*
G75*
G03*
X344881953Y-41105000I-252261J-431711D01*
G01*
X344881952Y-38104999D02*
G75*
G03*
X345134210Y-38036701I-2J500009D01*
G01*
X345836981Y-38685278D02*
G75*
G03*
X345134211Y-38036704I-450511J216878D01*
G01*
X345836982Y-38685279D02*
G75*
G03*
X345787499Y-38902157I450548J-216881D01*
G01*
X345134211Y-41173299D02*
G75*
G03*
X345836983Y-40524720I252259J431699D01*
G01*
X345787499Y-40307842D02*
G75*
G03*
X345836984Y-40524720I499301J-158D01*
G01*
%TO.C,L19*%
X70925001Y-68882842D02*
X70925001Y-67477158D01*
X71830548Y-66680000D02*
X73419452Y-66680000D01*
X73419452Y-69679999D02*
X71830547Y-69679999D01*
X74324999Y-67477158D02*
X74324999Y-68882842D01*
X70925000Y-67477158D02*
G75*
G03*
X70875515Y-67260280I-499989J2D01*
G01*
X71578289Y-66611701D02*
G75*
G03*
X70875517Y-67260281I-252259J-431700D01*
G01*
X70875516Y-69099720D02*
G75*
G03*
X70925001Y-68882843I-450505J216876D01*
G01*
X70875516Y-69099720D02*
G75*
G03*
X71578289Y-69748297I450515J-216877D01*
G01*
X71830547Y-69679999D02*
G75*
G03*
X71578289Y-69748298I3J-500009D01*
G01*
X71578289Y-66611701D02*
G75*
G03*
X71830548Y-66680000I252261J431710D01*
G01*
X73671711Y-69748299D02*
G75*
G03*
X73419453Y-69680000I-252261J-431711D01*
G01*
X73419452Y-66679999D02*
G75*
G03*
X73671710Y-66611701I-2J500009D01*
G01*
X74374481Y-67260278D02*
G75*
G03*
X73671711Y-66611704I-450511J216878D01*
G01*
X74374482Y-67260279D02*
G75*
G03*
X74324999Y-67477157I450548J-216881D01*
G01*
X73671711Y-69748299D02*
G75*
G03*
X74374483Y-69099720I252259J431699D01*
G01*
X74324999Y-68882842D02*
G75*
G03*
X74374484Y-69099720I499301J-158D01*
G01*
%TO.C,L14*%
X323337501Y-40307842D02*
X323337501Y-38902158D01*
X324243048Y-38105000D02*
X325831952Y-38105000D01*
X325831952Y-41104999D02*
X324243047Y-41104999D01*
X326737499Y-38902158D02*
X326737499Y-40307842D01*
X323337500Y-38902158D02*
G75*
G03*
X323288015Y-38685280I-499989J2D01*
G01*
X323990789Y-38036701D02*
G75*
G03*
X323288017Y-38685281I-252259J-431700D01*
G01*
X323288016Y-40524720D02*
G75*
G03*
X323337501Y-40307843I-450505J216876D01*
G01*
X323288016Y-40524720D02*
G75*
G03*
X323990789Y-41173297I450515J-216877D01*
G01*
X324243047Y-41104999D02*
G75*
G03*
X323990789Y-41173298I3J-500009D01*
G01*
X323990789Y-38036701D02*
G75*
G03*
X324243048Y-38105000I252261J431710D01*
G01*
X326084211Y-41173299D02*
G75*
G03*
X325831953Y-41105000I-252261J-431711D01*
G01*
X325831952Y-38104999D02*
G75*
G03*
X326084210Y-38036701I-2J500009D01*
G01*
X326786981Y-38685278D02*
G75*
G03*
X326084211Y-38036704I-450511J216878D01*
G01*
X326786982Y-38685279D02*
G75*
G03*
X326737499Y-38902157I450548J-216881D01*
G01*
X326084211Y-41173299D02*
G75*
G03*
X326786983Y-40524720I252259J431699D01*
G01*
X326737499Y-40307842D02*
G75*
G03*
X326786984Y-40524720I499301J-158D01*
G01*
%TO.C,L50*%
X270950001Y-87932842D02*
X270950001Y-86527158D01*
X271855548Y-85730000D02*
X273444452Y-85730000D01*
X273444452Y-88729999D02*
X271855547Y-88729999D01*
X274349999Y-86527158D02*
X274349999Y-87932842D01*
X270950000Y-86527158D02*
G75*
G03*
X270900515Y-86310280I-499989J2D01*
G01*
X271603289Y-85661701D02*
G75*
G03*
X270900517Y-86310281I-252259J-431700D01*
G01*
X270900516Y-88149720D02*
G75*
G03*
X270950001Y-87932843I-450505J216876D01*
G01*
X270900516Y-88149720D02*
G75*
G03*
X271603289Y-88798297I450515J-216877D01*
G01*
X271855547Y-88729999D02*
G75*
G03*
X271603289Y-88798298I3J-500009D01*
G01*
X271603289Y-85661701D02*
G75*
G03*
X271855548Y-85730000I252261J431710D01*
G01*
X273696711Y-88798299D02*
G75*
G03*
X273444453Y-88730000I-252261J-431711D01*
G01*
X273444452Y-85729999D02*
G75*
G03*
X273696710Y-85661701I-2J500009D01*
G01*
X274399481Y-86310278D02*
G75*
G03*
X273696711Y-85661704I-450511J216878D01*
G01*
X274399482Y-86310279D02*
G75*
G03*
X274349999Y-86527157I450548J-216881D01*
G01*
X273696711Y-88798299D02*
G75*
G03*
X274399483Y-88149720I252259J431699D01*
G01*
X274349999Y-87932842D02*
G75*
G03*
X274399484Y-88149720I499301J-158D01*
G01*
%TO.C,L26*%
X204275001Y-68882842D02*
X204275001Y-67477158D01*
X205180548Y-66680000D02*
X206769452Y-66680000D01*
X206769452Y-69679999D02*
X205180547Y-69679999D01*
X207674999Y-67477158D02*
X207674999Y-68882842D01*
X204275000Y-67477158D02*
G75*
G03*
X204225515Y-67260280I-499989J2D01*
G01*
X204928289Y-66611701D02*
G75*
G03*
X204225517Y-67260281I-252259J-431700D01*
G01*
X204225516Y-69099720D02*
G75*
G03*
X204275001Y-68882843I-450505J216876D01*
G01*
X204225516Y-69099720D02*
G75*
G03*
X204928289Y-69748297I450515J-216877D01*
G01*
X205180547Y-69679999D02*
G75*
G03*
X204928289Y-69748298I3J-500009D01*
G01*
X204928289Y-66611701D02*
G75*
G03*
X205180548Y-66680000I252261J431710D01*
G01*
X207021711Y-69748299D02*
G75*
G03*
X206769453Y-69680000I-252261J-431711D01*
G01*
X206769452Y-66679999D02*
G75*
G03*
X207021710Y-66611701I-2J500009D01*
G01*
X207724481Y-67260278D02*
G75*
G03*
X207021711Y-66611704I-450511J216878D01*
G01*
X207724482Y-67260279D02*
G75*
G03*
X207674999Y-67477157I450548J-216881D01*
G01*
X207021711Y-69748299D02*
G75*
G03*
X207724483Y-69099720I252259J431699D01*
G01*
X207674999Y-68882842D02*
G75*
G03*
X207724484Y-69099720I499301J-158D01*
G01*
%TO.C,L69*%
X237612501Y-106982842D02*
X237612501Y-105577158D01*
X238518048Y-104780000D02*
X240106952Y-104780000D01*
X240106952Y-107779999D02*
X238518047Y-107779999D01*
X241012499Y-105577158D02*
X241012499Y-106982842D01*
X237612500Y-105577158D02*
G75*
G03*
X237563015Y-105360280I-499989J2D01*
G01*
X238265789Y-104711701D02*
G75*
G03*
X237563017Y-105360281I-252259J-431700D01*
G01*
X237563016Y-107199720D02*
G75*
G03*
X237612501Y-106982843I-450505J216876D01*
G01*
X237563016Y-107199720D02*
G75*
G03*
X238265789Y-107848297I450515J-216877D01*
G01*
X238518047Y-107779999D02*
G75*
G03*
X238265789Y-107848298I3J-500009D01*
G01*
X238265789Y-104711701D02*
G75*
G03*
X238518048Y-104780000I252261J431710D01*
G01*
X240359211Y-107848299D02*
G75*
G03*
X240106953Y-107780000I-252261J-431711D01*
G01*
X240106952Y-104779999D02*
G75*
G03*
X240359210Y-104711701I-2J500009D01*
G01*
X241061981Y-105360278D02*
G75*
G03*
X240359211Y-104711704I-450511J216878D01*
G01*
X241061982Y-105360279D02*
G75*
G03*
X241012499Y-105577157I450548J-216881D01*
G01*
X240359211Y-107848299D02*
G75*
G03*
X241061983Y-107199720I252259J431699D01*
G01*
X241012499Y-106982842D02*
G75*
G03*
X241061984Y-107199720I499301J-158D01*
G01*
%TO.C,L9*%
X213800001Y-40307842D02*
X213800001Y-38902158D01*
X214705548Y-38105000D02*
X216294452Y-38105000D01*
X216294452Y-41104999D02*
X214705547Y-41104999D01*
X217199999Y-38902158D02*
X217199999Y-40307842D01*
X213800000Y-38902158D02*
G75*
G03*
X213750515Y-38685280I-499989J2D01*
G01*
X214453289Y-38036701D02*
G75*
G03*
X213750517Y-38685281I-252259J-431700D01*
G01*
X213750516Y-40524720D02*
G75*
G03*
X213800001Y-40307843I-450505J216876D01*
G01*
X213750516Y-40524720D02*
G75*
G03*
X214453289Y-41173297I450515J-216877D01*
G01*
X214705547Y-41104999D02*
G75*
G03*
X214453289Y-41173298I3J-500009D01*
G01*
X214453289Y-38036701D02*
G75*
G03*
X214705548Y-38105000I252261J431710D01*
G01*
X216546711Y-41173299D02*
G75*
G03*
X216294453Y-41105000I-252261J-431711D01*
G01*
X216294452Y-38104999D02*
G75*
G03*
X216546710Y-38036701I-2J500009D01*
G01*
X217249481Y-38685278D02*
G75*
G03*
X216546711Y-38036704I-450511J216878D01*
G01*
X217249482Y-38685279D02*
G75*
G03*
X217199999Y-38902157I450548J-216881D01*
G01*
X216546711Y-41173299D02*
G75*
G03*
X217249483Y-40524720I252259J431699D01*
G01*
X217199999Y-40307842D02*
G75*
G03*
X217249484Y-40524720I499301J-158D01*
G01*
%TO.C,L31*%
X323337501Y-68882842D02*
X323337501Y-67477158D01*
X324243048Y-66680000D02*
X325831952Y-66680000D01*
X325831952Y-69679999D02*
X324243047Y-69679999D01*
X326737499Y-67477158D02*
X326737499Y-68882842D01*
X323337500Y-67477158D02*
G75*
G03*
X323288015Y-67260280I-499989J2D01*
G01*
X323990789Y-66611701D02*
G75*
G03*
X323288017Y-67260281I-252259J-431700D01*
G01*
X323288016Y-69099720D02*
G75*
G03*
X323337501Y-68882843I-450505J216876D01*
G01*
X323288016Y-69099720D02*
G75*
G03*
X323990789Y-69748297I450515J-216877D01*
G01*
X324243047Y-69679999D02*
G75*
G03*
X323990789Y-69748298I3J-500009D01*
G01*
X323990789Y-66611701D02*
G75*
G03*
X324243048Y-66680000I252261J431710D01*
G01*
X326084211Y-69748299D02*
G75*
G03*
X325831953Y-69680000I-252261J-431711D01*
G01*
X325831952Y-66679999D02*
G75*
G03*
X326084210Y-66611701I-2J500009D01*
G01*
X326786981Y-67260278D02*
G75*
G03*
X326084211Y-66611704I-450511J216878D01*
G01*
X326786982Y-67260279D02*
G75*
G03*
X326737499Y-67477157I450548J-216881D01*
G01*
X326084211Y-69748299D02*
G75*
G03*
X326786983Y-69099720I252259J431699D01*
G01*
X326737499Y-68882842D02*
G75*
G03*
X326786984Y-69099720I499301J-158D01*
G01*
%TO.C,L84*%
X228087501Y-126032842D02*
X228087501Y-124627158D01*
X228993048Y-123830000D02*
X230581952Y-123830000D01*
X230581952Y-126829999D02*
X228993047Y-126829999D01*
X231487499Y-124627158D02*
X231487499Y-126032842D01*
X228087500Y-124627158D02*
G75*
G03*
X228038015Y-124410280I-499989J2D01*
G01*
X228740789Y-123761701D02*
G75*
G03*
X228038017Y-124410281I-252259J-431700D01*
G01*
X228038016Y-126249720D02*
G75*
G03*
X228087501Y-126032843I-450505J216876D01*
G01*
X228038016Y-126249720D02*
G75*
G03*
X228740789Y-126898297I450515J-216877D01*
G01*
X228993047Y-126829999D02*
G75*
G03*
X228740789Y-126898298I3J-500009D01*
G01*
X228740789Y-123761701D02*
G75*
G03*
X228993048Y-123830000I252261J431710D01*
G01*
X230834211Y-126898299D02*
G75*
G03*
X230581953Y-126830000I-252261J-431711D01*
G01*
X230581952Y-123829999D02*
G75*
G03*
X230834210Y-123761701I-2J500009D01*
G01*
X231536981Y-124410278D02*
G75*
G03*
X230834211Y-123761704I-450511J216878D01*
G01*
X231536982Y-124410279D02*
G75*
G03*
X231487499Y-124627157I450548J-216881D01*
G01*
X230834211Y-126898299D02*
G75*
G03*
X231536983Y-126249720I252259J431699D01*
G01*
X231487499Y-126032842D02*
G75*
G03*
X231536984Y-126249720I499301J-158D01*
G01*
%TO.C,L4*%
X109025001Y-40307842D02*
X109025001Y-38902158D01*
X109930548Y-38105000D02*
X111519452Y-38105000D01*
X111519452Y-41104999D02*
X109930547Y-41104999D01*
X112424999Y-38902158D02*
X112424999Y-40307842D01*
X109025000Y-38902158D02*
G75*
G03*
X108975515Y-38685280I-499989J2D01*
G01*
X109678289Y-38036701D02*
G75*
G03*
X108975517Y-38685281I-252259J-431700D01*
G01*
X108975516Y-40524720D02*
G75*
G03*
X109025001Y-40307843I-450505J216876D01*
G01*
X108975516Y-40524720D02*
G75*
G03*
X109678289Y-41173297I450515J-216877D01*
G01*
X109930547Y-41104999D02*
G75*
G03*
X109678289Y-41173298I3J-500009D01*
G01*
X109678289Y-38036701D02*
G75*
G03*
X109930548Y-38105000I252261J431710D01*
G01*
X111771711Y-41173299D02*
G75*
G03*
X111519453Y-41105000I-252261J-431711D01*
G01*
X111519452Y-38104999D02*
G75*
G03*
X111771710Y-38036701I-2J500009D01*
G01*
X112474481Y-38685278D02*
G75*
G03*
X111771711Y-38036704I-450511J216878D01*
G01*
X112474482Y-38685279D02*
G75*
G03*
X112424999Y-38902157I450548J-216881D01*
G01*
X111771711Y-41173299D02*
G75*
G03*
X112474483Y-40524720I252259J431699D01*
G01*
X112424999Y-40307842D02*
G75*
G03*
X112474484Y-40524720I499301J-158D01*
G01*
%TO.C,L10*%
X242375001Y-40307842D02*
X242375001Y-38902158D01*
X243280548Y-38105000D02*
X244869452Y-38105000D01*
X244869452Y-41104999D02*
X243280547Y-41104999D01*
X245774999Y-38902158D02*
X245774999Y-40307842D01*
X242375000Y-38902158D02*
G75*
G03*
X242325515Y-38685280I-499989J2D01*
G01*
X243028289Y-38036701D02*
G75*
G03*
X242325517Y-38685281I-252259J-431700D01*
G01*
X242325516Y-40524720D02*
G75*
G03*
X242375001Y-40307843I-450505J216876D01*
G01*
X242325516Y-40524720D02*
G75*
G03*
X243028289Y-41173297I450515J-216877D01*
G01*
X243280547Y-41104999D02*
G75*
G03*
X243028289Y-41173298I3J-500009D01*
G01*
X243028289Y-38036701D02*
G75*
G03*
X243280548Y-38105000I252261J431710D01*
G01*
X245121711Y-41173299D02*
G75*
G03*
X244869453Y-41105000I-252261J-431711D01*
G01*
X244869452Y-38104999D02*
G75*
G03*
X245121710Y-38036701I-2J500009D01*
G01*
X245824481Y-38685278D02*
G75*
G03*
X245121711Y-38036704I-450511J216878D01*
G01*
X245824482Y-38685279D02*
G75*
G03*
X245774999Y-38902157I450548J-216881D01*
G01*
X245121711Y-41173299D02*
G75*
G03*
X245824483Y-40524720I252259J431699D01*
G01*
X245774999Y-40307842D02*
G75*
G03*
X245824484Y-40524720I499301J-158D01*
G01*
%TO.C,L93*%
X59018801Y-145082842D02*
X59018801Y-143677158D01*
X59924348Y-142880000D02*
X61513252Y-142880000D01*
X61513252Y-145879999D02*
X59924347Y-145879999D01*
X62418799Y-143677158D02*
X62418799Y-145082842D01*
X59018800Y-143677158D02*
G75*
G03*
X58969315Y-143460280I-499989J2D01*
G01*
X59672089Y-142811701D02*
G75*
G03*
X58969317Y-143460281I-252259J-431700D01*
G01*
X58969316Y-145299720D02*
G75*
G03*
X59018801Y-145082843I-450505J216876D01*
G01*
X58969316Y-145299720D02*
G75*
G03*
X59672089Y-145948297I450515J-216877D01*
G01*
X59924347Y-145879999D02*
G75*
G03*
X59672089Y-145948298I3J-500009D01*
G01*
X59672089Y-142811701D02*
G75*
G03*
X59924348Y-142880000I252261J431710D01*
G01*
X61765511Y-145948299D02*
G75*
G03*
X61513253Y-145880000I-252261J-431711D01*
G01*
X61513252Y-142879999D02*
G75*
G03*
X61765510Y-142811701I-2J500009D01*
G01*
X62468281Y-143460278D02*
G75*
G03*
X61765511Y-142811704I-450511J216878D01*
G01*
X62468282Y-143460279D02*
G75*
G03*
X62418799Y-143677157I450548J-216881D01*
G01*
X61765511Y-145948299D02*
G75*
G03*
X62468283Y-145299720I252259J431699D01*
G01*
X62418799Y-145082842D02*
G75*
G03*
X62468284Y-145299720I499301J-158D01*
G01*
%TO.C,L16*%
X361437501Y-40307842D02*
X361437501Y-38902158D01*
X362343048Y-38105000D02*
X363931952Y-38105000D01*
X363931952Y-41104999D02*
X362343047Y-41104999D01*
X364837499Y-38902158D02*
X364837499Y-40307842D01*
X361437500Y-38902158D02*
G75*
G03*
X361388015Y-38685280I-499989J2D01*
G01*
X362090789Y-38036701D02*
G75*
G03*
X361388017Y-38685281I-252259J-431700D01*
G01*
X361388016Y-40524720D02*
G75*
G03*
X361437501Y-40307843I-450505J216876D01*
G01*
X361388016Y-40524720D02*
G75*
G03*
X362090789Y-41173297I450515J-216877D01*
G01*
X362343047Y-41104999D02*
G75*
G03*
X362090789Y-41173298I3J-500009D01*
G01*
X362090789Y-38036701D02*
G75*
G03*
X362343048Y-38105000I252261J431710D01*
G01*
X364184211Y-41173299D02*
G75*
G03*
X363931953Y-41105000I-252261J-431711D01*
G01*
X363931952Y-38104999D02*
G75*
G03*
X364184210Y-38036701I-2J500009D01*
G01*
X364886981Y-38685278D02*
G75*
G03*
X364184211Y-38036704I-450511J216878D01*
G01*
X364886982Y-38685279D02*
G75*
G03*
X364837499Y-38902157I450548J-216881D01*
G01*
X364184211Y-41173299D02*
G75*
G03*
X364886983Y-40524720I252259J431699D01*
G01*
X364837499Y-40307842D02*
G75*
G03*
X364886984Y-40524720I499301J-158D01*
G01*
%TO.C,L30*%
X290000001Y-68882842D02*
X290000001Y-67477158D01*
X290905548Y-66680000D02*
X292494452Y-66680000D01*
X292494452Y-69679999D02*
X290905547Y-69679999D01*
X293399999Y-67477158D02*
X293399999Y-68882842D01*
X290000000Y-67477158D02*
G75*
G03*
X289950515Y-67260280I-499989J2D01*
G01*
X290653289Y-66611701D02*
G75*
G03*
X289950517Y-67260281I-252259J-431700D01*
G01*
X289950516Y-69099720D02*
G75*
G03*
X290000001Y-68882843I-450505J216876D01*
G01*
X289950516Y-69099720D02*
G75*
G03*
X290653289Y-69748297I450515J-216877D01*
G01*
X290905547Y-69679999D02*
G75*
G03*
X290653289Y-69748298I3J-500009D01*
G01*
X290653289Y-66611701D02*
G75*
G03*
X290905548Y-66680000I252261J431710D01*
G01*
X292746711Y-69748299D02*
G75*
G03*
X292494453Y-69680000I-252261J-431711D01*
G01*
X292494452Y-66679999D02*
G75*
G03*
X292746710Y-66611701I-2J500009D01*
G01*
X293449481Y-67260278D02*
G75*
G03*
X292746711Y-66611704I-450511J216878D01*
G01*
X293449482Y-67260279D02*
G75*
G03*
X293399999Y-67477157I450548J-216881D01*
G01*
X292746711Y-69748299D02*
G75*
G03*
X293449483Y-69099720I252259J431699D01*
G01*
X293399999Y-68882842D02*
G75*
G03*
X293449484Y-69099720I499301J-158D01*
G01*
%TO.C,L78*%
X113787501Y-126032842D02*
X113787501Y-124627158D01*
X114693048Y-123830000D02*
X116281952Y-123830000D01*
X116281952Y-126829999D02*
X114693047Y-126829999D01*
X117187499Y-124627158D02*
X117187499Y-126032842D01*
X113787500Y-124627158D02*
G75*
G03*
X113738015Y-124410280I-499989J2D01*
G01*
X114440789Y-123761701D02*
G75*
G03*
X113738017Y-124410281I-252259J-431700D01*
G01*
X113738016Y-126249720D02*
G75*
G03*
X113787501Y-126032843I-450505J216876D01*
G01*
X113738016Y-126249720D02*
G75*
G03*
X114440789Y-126898297I450515J-216877D01*
G01*
X114693047Y-126829999D02*
G75*
G03*
X114440789Y-126898298I3J-500009D01*
G01*
X114440789Y-123761701D02*
G75*
G03*
X114693048Y-123830000I252261J431710D01*
G01*
X116534211Y-126898299D02*
G75*
G03*
X116281953Y-126830000I-252261J-431711D01*
G01*
X116281952Y-123829999D02*
G75*
G03*
X116534210Y-123761701I-2J500009D01*
G01*
X117236981Y-124410278D02*
G75*
G03*
X116534211Y-123761704I-450511J216878D01*
G01*
X117236982Y-124410279D02*
G75*
G03*
X117187499Y-124627157I450548J-216881D01*
G01*
X116534211Y-126898299D02*
G75*
G03*
X117236983Y-126249720I252259J431699D01*
G01*
X117187499Y-126032842D02*
G75*
G03*
X117236984Y-126249720I499301J-158D01*
G01*
%TO.C,L96*%
X225706301Y-145082842D02*
X225706301Y-143677158D01*
X226611848Y-142880000D02*
X228200752Y-142880000D01*
X228200752Y-145879999D02*
X226611847Y-145879999D01*
X229106299Y-143677158D02*
X229106299Y-145082842D01*
X225706300Y-143677158D02*
G75*
G03*
X225656815Y-143460280I-499989J2D01*
G01*
X226359589Y-142811701D02*
G75*
G03*
X225656817Y-143460281I-252259J-431700D01*
G01*
X225656816Y-145299720D02*
G75*
G03*
X225706301Y-145082843I-450505J216876D01*
G01*
X225656816Y-145299720D02*
G75*
G03*
X226359589Y-145948297I450515J-216877D01*
G01*
X226611847Y-145879999D02*
G75*
G03*
X226359589Y-145948298I3J-500009D01*
G01*
X226359589Y-142811701D02*
G75*
G03*
X226611848Y-142880000I252261J431710D01*
G01*
X228453011Y-145948299D02*
G75*
G03*
X228200753Y-145880000I-252261J-431711D01*
G01*
X228200752Y-142879999D02*
G75*
G03*
X228453010Y-142811701I-2J500009D01*
G01*
X229155781Y-143460278D02*
G75*
G03*
X228453011Y-142811704I-450511J216878D01*
G01*
X229155782Y-143460279D02*
G75*
G03*
X229106299Y-143677157I450548J-216881D01*
G01*
X228453011Y-145948299D02*
G75*
G03*
X229155783Y-145299720I252259J431699D01*
G01*
X229106299Y-145082842D02*
G75*
G03*
X229155784Y-145299720I499301J-158D01*
G01*
%TO.C,L56*%
X404300001Y-87932842D02*
X404300001Y-86527158D01*
X405205548Y-85730000D02*
X406794452Y-85730000D01*
X406794452Y-88729999D02*
X405205547Y-88729999D01*
X407699999Y-86527158D02*
X407699999Y-87932842D01*
X404300000Y-86527158D02*
G75*
G03*
X404250515Y-86310280I-499989J2D01*
G01*
X404953289Y-85661701D02*
G75*
G03*
X404250517Y-86310281I-252259J-431700D01*
G01*
X404250516Y-88149720D02*
G75*
G03*
X404300001Y-87932843I-450505J216876D01*
G01*
X404250516Y-88149720D02*
G75*
G03*
X404953289Y-88798297I450515J-216877D01*
G01*
X405205547Y-88729999D02*
G75*
G03*
X404953289Y-88798298I3J-500009D01*
G01*
X404953289Y-85661701D02*
G75*
G03*
X405205548Y-85730000I252261J431710D01*
G01*
X407046711Y-88798299D02*
G75*
G03*
X406794453Y-88730000I-252261J-431711D01*
G01*
X406794452Y-85729999D02*
G75*
G03*
X407046710Y-85661701I-2J500009D01*
G01*
X407749481Y-86310278D02*
G75*
G03*
X407046711Y-85661704I-450511J216878D01*
G01*
X407749482Y-86310279D02*
G75*
G03*
X407699999Y-86527157I450548J-216881D01*
G01*
X407046711Y-88798299D02*
G75*
G03*
X407749483Y-88149720I252259J431699D01*
G01*
X407699999Y-87932842D02*
G75*
G03*
X407749484Y-88149720I499301J-158D01*
G01*
%TO.C,L102*%
X361437501Y-145082842D02*
X361437501Y-143677158D01*
X362343048Y-142880000D02*
X363931952Y-142880000D01*
X363931952Y-145879999D02*
X362343047Y-145879999D01*
X364837499Y-143677158D02*
X364837499Y-145082842D01*
X361437500Y-143677158D02*
G75*
G03*
X361388015Y-143460280I-499989J2D01*
G01*
X362090789Y-142811701D02*
G75*
G03*
X361388017Y-143460281I-252259J-431700D01*
G01*
X361388016Y-145299720D02*
G75*
G03*
X361437501Y-145082843I-450505J216876D01*
G01*
X361388016Y-145299720D02*
G75*
G03*
X362090789Y-145948297I450515J-216877D01*
G01*
X362343047Y-145879999D02*
G75*
G03*
X362090789Y-145948298I3J-500009D01*
G01*
X362090789Y-142811701D02*
G75*
G03*
X362343048Y-142880000I252261J431710D01*
G01*
X364184211Y-145948299D02*
G75*
G03*
X363931953Y-145880000I-252261J-431711D01*
G01*
X363931952Y-142879999D02*
G75*
G03*
X364184210Y-142811701I-2J500009D01*
G01*
X364886981Y-143460278D02*
G75*
G03*
X364184211Y-142811704I-450511J216878D01*
G01*
X364886982Y-143460279D02*
G75*
G03*
X364837499Y-143677157I450548J-216881D01*
G01*
X364184211Y-145948299D02*
G75*
G03*
X364886983Y-145299720I252259J431699D01*
G01*
X364837499Y-145082842D02*
G75*
G03*
X364886984Y-145299720I499301J-158D01*
G01*
%TO.C,L71*%
X287618801Y-106982842D02*
X287618801Y-105577158D01*
X288524348Y-104780000D02*
X290113252Y-104780000D01*
X290113252Y-107779999D02*
X288524347Y-107779999D01*
X291018799Y-105577158D02*
X291018799Y-106982842D01*
X287618800Y-105577158D02*
G75*
G03*
X287569315Y-105360280I-499989J2D01*
G01*
X288272089Y-104711701D02*
G75*
G03*
X287569317Y-105360281I-252259J-431700D01*
G01*
X287569316Y-107199720D02*
G75*
G03*
X287618801Y-106982843I-450505J216876D01*
G01*
X287569316Y-107199720D02*
G75*
G03*
X288272089Y-107848297I450515J-216877D01*
G01*
X288524347Y-107779999D02*
G75*
G03*
X288272089Y-107848298I3J-500009D01*
G01*
X288272089Y-104711701D02*
G75*
G03*
X288524348Y-104780000I252261J431710D01*
G01*
X290365511Y-107848299D02*
G75*
G03*
X290113253Y-107780000I-252261J-431711D01*
G01*
X290113252Y-104779999D02*
G75*
G03*
X290365510Y-104711701I-2J500009D01*
G01*
X291068281Y-105360278D02*
G75*
G03*
X290365511Y-104711704I-450511J216878D01*
G01*
X291068282Y-105360279D02*
G75*
G03*
X291018799Y-105577157I450548J-216881D01*
G01*
X290365511Y-107848299D02*
G75*
G03*
X291068283Y-107199720I252259J431699D01*
G01*
X291018799Y-106982842D02*
G75*
G03*
X291068284Y-107199720I499301J-158D01*
G01*
%TO.C,L32*%
X342387501Y-68882842D02*
X342387501Y-67477158D01*
X343293048Y-66680000D02*
X344881952Y-66680000D01*
X344881952Y-69679999D02*
X343293047Y-69679999D01*
X345787499Y-67477158D02*
X345787499Y-68882842D01*
X342387500Y-67477158D02*
G75*
G03*
X342338015Y-67260280I-499989J2D01*
G01*
X343040789Y-66611701D02*
G75*
G03*
X342338017Y-67260281I-252259J-431700D01*
G01*
X342338016Y-69099720D02*
G75*
G03*
X342387501Y-68882843I-450505J216876D01*
G01*
X342338016Y-69099720D02*
G75*
G03*
X343040789Y-69748297I450515J-216877D01*
G01*
X343293047Y-69679999D02*
G75*
G03*
X343040789Y-69748298I3J-500009D01*
G01*
X343040789Y-66611701D02*
G75*
G03*
X343293048Y-66680000I252261J431710D01*
G01*
X345134211Y-69748299D02*
G75*
G03*
X344881953Y-69680000I-252261J-431711D01*
G01*
X344881952Y-66679999D02*
G75*
G03*
X345134210Y-66611701I-2J500009D01*
G01*
X345836981Y-67260278D02*
G75*
G03*
X345134211Y-66611704I-450511J216878D01*
G01*
X345836982Y-67260279D02*
G75*
G03*
X345787499Y-67477157I450548J-216881D01*
G01*
X345134211Y-69748299D02*
G75*
G03*
X345836983Y-69099720I252259J431699D01*
G01*
X345787499Y-68882842D02*
G75*
G03*
X345836984Y-69099720I499301J-158D01*
G01*
%TO.C,L28*%
X242375001Y-68882842D02*
X242375001Y-67477158D01*
X243280548Y-66680000D02*
X244869452Y-66680000D01*
X244869452Y-69679999D02*
X243280547Y-69679999D01*
X245774999Y-67477158D02*
X245774999Y-68882842D01*
X242375000Y-67477158D02*
G75*
G03*
X242325515Y-67260280I-499989J2D01*
G01*
X243028289Y-66611701D02*
G75*
G03*
X242325517Y-67260281I-252259J-431700D01*
G01*
X242325516Y-69099720D02*
G75*
G03*
X242375001Y-68882843I-450505J216876D01*
G01*
X242325516Y-69099720D02*
G75*
G03*
X243028289Y-69748297I450515J-216877D01*
G01*
X243280547Y-69679999D02*
G75*
G03*
X243028289Y-69748298I3J-500009D01*
G01*
X243028289Y-66611701D02*
G75*
G03*
X243280548Y-66680000I252261J431710D01*
G01*
X245121711Y-69748299D02*
G75*
G03*
X244869453Y-69680000I-252261J-431711D01*
G01*
X244869452Y-66679999D02*
G75*
G03*
X245121710Y-66611701I-2J500009D01*
G01*
X245824481Y-67260278D02*
G75*
G03*
X245121711Y-66611704I-450511J216878D01*
G01*
X245824482Y-67260279D02*
G75*
G03*
X245774999Y-67477157I450548J-216881D01*
G01*
X245121711Y-69748299D02*
G75*
G03*
X245824483Y-69099720I252259J431699D01*
G01*
X245774999Y-68882842D02*
G75*
G03*
X245824484Y-69099720I499301J-158D01*
G01*
%TO.C,L48*%
X232850001Y-87932842D02*
X232850001Y-86527158D01*
X233755548Y-85730000D02*
X235344452Y-85730000D01*
X235344452Y-88729999D02*
X233755547Y-88729999D01*
X236249999Y-86527158D02*
X236249999Y-87932842D01*
X232850000Y-86527158D02*
G75*
G03*
X232800515Y-86310280I-499989J2D01*
G01*
X233503289Y-85661701D02*
G75*
G03*
X232800517Y-86310281I-252259J-431700D01*
G01*
X232800516Y-88149720D02*
G75*
G03*
X232850001Y-87932843I-450505J216876D01*
G01*
X232800516Y-88149720D02*
G75*
G03*
X233503289Y-88798297I450515J-216877D01*
G01*
X233755547Y-88729999D02*
G75*
G03*
X233503289Y-88798298I3J-500009D01*
G01*
X233503289Y-85661701D02*
G75*
G03*
X233755548Y-85730000I252261J431710D01*
G01*
X235596711Y-88798299D02*
G75*
G03*
X235344453Y-88730000I-252261J-431711D01*
G01*
X235344452Y-85729999D02*
G75*
G03*
X235596710Y-85661701I-2J500009D01*
G01*
X236299481Y-86310278D02*
G75*
G03*
X235596711Y-85661704I-450511J216878D01*
G01*
X236299482Y-86310279D02*
G75*
G03*
X236249999Y-86527157I450548J-216881D01*
G01*
X235596711Y-88798299D02*
G75*
G03*
X236299483Y-88149720I252259J431699D01*
G01*
X236249999Y-87932842D02*
G75*
G03*
X236299484Y-88149720I499301J-158D01*
G01*
%TO.C,L35*%
X404300001Y-68882842D02*
X404300001Y-67477158D01*
X405205548Y-66680000D02*
X406794452Y-66680000D01*
X406794452Y-69679999D02*
X405205547Y-69679999D01*
X407699999Y-67477158D02*
X407699999Y-68882842D01*
X404300000Y-67477158D02*
G75*
G03*
X404250515Y-67260280I-499989J2D01*
G01*
X404953289Y-66611701D02*
G75*
G03*
X404250517Y-67260281I-252259J-431700D01*
G01*
X404250516Y-69099720D02*
G75*
G03*
X404300001Y-68882843I-450505J216876D01*
G01*
X404250516Y-69099720D02*
G75*
G03*
X404953289Y-69748297I450515J-216877D01*
G01*
X405205547Y-69679999D02*
G75*
G03*
X404953289Y-69748298I3J-500009D01*
G01*
X404953289Y-66611701D02*
G75*
G03*
X405205548Y-66680000I252261J431710D01*
G01*
X407046711Y-69748299D02*
G75*
G03*
X406794453Y-69680000I-252261J-431711D01*
G01*
X406794452Y-66679999D02*
G75*
G03*
X407046710Y-66611701I-2J500009D01*
G01*
X407749481Y-67260278D02*
G75*
G03*
X407046711Y-66611704I-450511J216878D01*
G01*
X407749482Y-67260279D02*
G75*
G03*
X407699999Y-67477157I450548J-216881D01*
G01*
X407046711Y-69748299D02*
G75*
G03*
X407749483Y-69099720I252259J431699D01*
G01*
X407699999Y-68882842D02*
G75*
G03*
X407749484Y-69099720I499301J-158D01*
G01*
%TO.C,L94*%
X82831301Y-145082842D02*
X82831301Y-143677158D01*
X83736848Y-142880000D02*
X85325752Y-142880000D01*
X85325752Y-145879999D02*
X83736847Y-145879999D01*
X86231299Y-143677158D02*
X86231299Y-145082842D01*
X82831300Y-143677158D02*
G75*
G03*
X82781815Y-143460280I-499989J2D01*
G01*
X83484589Y-142811701D02*
G75*
G03*
X82781817Y-143460281I-252259J-431700D01*
G01*
X82781816Y-145299720D02*
G75*
G03*
X82831301Y-145082843I-450505J216876D01*
G01*
X82781816Y-145299720D02*
G75*
G03*
X83484589Y-145948297I450515J-216877D01*
G01*
X83736847Y-145879999D02*
G75*
G03*
X83484589Y-145948298I3J-500009D01*
G01*
X83484589Y-142811701D02*
G75*
G03*
X83736848Y-142880000I252261J431710D01*
G01*
X85578011Y-145948299D02*
G75*
G03*
X85325753Y-145880000I-252261J-431711D01*
G01*
X85325752Y-142879999D02*
G75*
G03*
X85578010Y-142811701I-2J500009D01*
G01*
X86280781Y-143460278D02*
G75*
G03*
X85578011Y-142811704I-450511J216878D01*
G01*
X86280782Y-143460279D02*
G75*
G03*
X86231299Y-143677157I450548J-216881D01*
G01*
X85578011Y-145948299D02*
G75*
G03*
X86280783Y-145299720I252259J431699D01*
G01*
X86231299Y-145082842D02*
G75*
G03*
X86280784Y-145299720I499301J-158D01*
G01*
%TO.C,L90*%
X423350001Y-126032842D02*
X423350001Y-124627158D01*
X424255548Y-123830000D02*
X425844452Y-123830000D01*
X425844452Y-126829999D02*
X424255547Y-126829999D01*
X426749999Y-124627158D02*
X426749999Y-126032842D01*
X423350000Y-124627158D02*
G75*
G03*
X423300515Y-124410280I-499989J2D01*
G01*
X424003289Y-123761701D02*
G75*
G03*
X423300517Y-124410281I-252259J-431700D01*
G01*
X423300516Y-126249720D02*
G75*
G03*
X423350001Y-126032843I-450505J216876D01*
G01*
X423300516Y-126249720D02*
G75*
G03*
X424003289Y-126898297I450515J-216877D01*
G01*
X424255547Y-126829999D02*
G75*
G03*
X424003289Y-126898298I3J-500009D01*
G01*
X424003289Y-123761701D02*
G75*
G03*
X424255548Y-123830000I252261J431710D01*
G01*
X426096711Y-126898299D02*
G75*
G03*
X425844453Y-126830000I-252261J-431711D01*
G01*
X425844452Y-123829999D02*
G75*
G03*
X426096710Y-123761701I-2J500009D01*
G01*
X426799481Y-124410278D02*
G75*
G03*
X426096711Y-123761704I-450511J216878D01*
G01*
X426799482Y-124410279D02*
G75*
G03*
X426749999Y-124627157I450548J-216881D01*
G01*
X426096711Y-126898299D02*
G75*
G03*
X426799483Y-126249720I252259J431699D01*
G01*
X426749999Y-126032842D02*
G75*
G03*
X426799484Y-126249720I499301J-158D01*
G01*
%TO.C,L57*%
X423350001Y-87932842D02*
X423350001Y-86527158D01*
X424255548Y-85730000D02*
X425844452Y-85730000D01*
X425844452Y-88729999D02*
X424255547Y-88729999D01*
X426749999Y-86527158D02*
X426749999Y-87932842D01*
X423350000Y-86527158D02*
G75*
G03*
X423300515Y-86310280I-499989J2D01*
G01*
X424003289Y-85661701D02*
G75*
G03*
X423300517Y-86310281I-252259J-431700D01*
G01*
X423300516Y-88149720D02*
G75*
G03*
X423350001Y-87932843I-450505J216876D01*
G01*
X423300516Y-88149720D02*
G75*
G03*
X424003289Y-88798297I450515J-216877D01*
G01*
X424255547Y-88729999D02*
G75*
G03*
X424003289Y-88798298I3J-500009D01*
G01*
X424003289Y-85661701D02*
G75*
G03*
X424255548Y-85730000I252261J431710D01*
G01*
X426096711Y-88798299D02*
G75*
G03*
X425844453Y-88730000I-252261J-431711D01*
G01*
X425844452Y-85729999D02*
G75*
G03*
X426096710Y-85661701I-2J500009D01*
G01*
X426799481Y-86310278D02*
G75*
G03*
X426096711Y-85661704I-450511J216878D01*
G01*
X426799482Y-86310279D02*
G75*
G03*
X426749999Y-86527157I450548J-216881D01*
G01*
X426096711Y-88798299D02*
G75*
G03*
X426799483Y-88149720I252259J431699D01*
G01*
X426749999Y-87932842D02*
G75*
G03*
X426799484Y-88149720I499301J-158D01*
G01*
%TO.C,L53*%
X342387501Y-87932842D02*
X342387501Y-86527158D01*
X343293048Y-85730000D02*
X344881952Y-85730000D01*
X344881952Y-88729999D02*
X343293047Y-88729999D01*
X345787499Y-86527158D02*
X345787499Y-87932842D01*
X342387500Y-86527158D02*
G75*
G03*
X342338015Y-86310280I-499989J2D01*
G01*
X343040789Y-85661701D02*
G75*
G03*
X342338017Y-86310281I-252259J-431700D01*
G01*
X342338016Y-88149720D02*
G75*
G03*
X342387501Y-87932843I-450505J216876D01*
G01*
X342338016Y-88149720D02*
G75*
G03*
X343040789Y-88798297I450515J-216877D01*
G01*
X343293047Y-88729999D02*
G75*
G03*
X343040789Y-88798298I3J-500009D01*
G01*
X343040789Y-85661701D02*
G75*
G03*
X343293048Y-85730000I252261J431710D01*
G01*
X345134211Y-88798299D02*
G75*
G03*
X344881953Y-88730000I-252261J-431711D01*
G01*
X344881952Y-85729999D02*
G75*
G03*
X345134210Y-85661701I-2J500009D01*
G01*
X345836981Y-86310278D02*
G75*
G03*
X345134211Y-85661704I-450511J216878D01*
G01*
X345836982Y-86310279D02*
G75*
G03*
X345787499Y-86527157I450548J-216881D01*
G01*
X345134211Y-88798299D02*
G75*
G03*
X345836983Y-88149720I252259J431699D01*
G01*
X345787499Y-87932842D02*
G75*
G03*
X345836984Y-88149720I499301J-158D01*
G01*
%TO.C,L17*%
X32825001Y-68882842D02*
X32825001Y-67477158D01*
X33730548Y-66680000D02*
X35319452Y-66680000D01*
X35319452Y-69679999D02*
X33730547Y-69679999D01*
X36224999Y-67477158D02*
X36224999Y-68882842D01*
X32825000Y-67477158D02*
G75*
G03*
X32775515Y-67260280I-499989J2D01*
G01*
X33478289Y-66611701D02*
G75*
G03*
X32775517Y-67260281I-252259J-431700D01*
G01*
X32775516Y-69099720D02*
G75*
G03*
X32825001Y-68882843I-450505J216876D01*
G01*
X32775516Y-69099720D02*
G75*
G03*
X33478289Y-69748297I450515J-216877D01*
G01*
X33730547Y-69679999D02*
G75*
G03*
X33478289Y-69748298I3J-500009D01*
G01*
X33478289Y-66611701D02*
G75*
G03*
X33730548Y-66680000I252261J431710D01*
G01*
X35571711Y-69748299D02*
G75*
G03*
X35319453Y-69680000I-252261J-431711D01*
G01*
X35319452Y-66679999D02*
G75*
G03*
X35571710Y-66611701I-2J500009D01*
G01*
X36274481Y-67260278D02*
G75*
G03*
X35571711Y-66611704I-450511J216878D01*
G01*
X36274482Y-67260279D02*
G75*
G03*
X36224999Y-67477157I450548J-216881D01*
G01*
X35571711Y-69748299D02*
G75*
G03*
X36274483Y-69099720I252259J431699D01*
G01*
X36224999Y-68882842D02*
G75*
G03*
X36274484Y-69099720I499301J-158D01*
G01*
%TO.C,L75*%
X44731301Y-126032842D02*
X44731301Y-124627158D01*
X45636848Y-123830000D02*
X47225752Y-123830000D01*
X47225752Y-126829999D02*
X45636847Y-126829999D01*
X48131299Y-124627158D02*
X48131299Y-126032842D01*
X44731300Y-124627158D02*
G75*
G03*
X44681815Y-124410280I-499989J2D01*
G01*
X45384589Y-123761701D02*
G75*
G03*
X44681817Y-124410281I-252259J-431700D01*
G01*
X44681816Y-126249720D02*
G75*
G03*
X44731301Y-126032843I-450505J216876D01*
G01*
X44681816Y-126249720D02*
G75*
G03*
X45384589Y-126898297I450515J-216877D01*
G01*
X45636847Y-126829999D02*
G75*
G03*
X45384589Y-126898298I3J-500009D01*
G01*
X45384589Y-123761701D02*
G75*
G03*
X45636848Y-123830000I252261J431710D01*
G01*
X47478011Y-126898299D02*
G75*
G03*
X47225753Y-126830000I-252261J-431711D01*
G01*
X47225752Y-123829999D02*
G75*
G03*
X47478010Y-123761701I-2J500009D01*
G01*
X48180781Y-124410278D02*
G75*
G03*
X47478011Y-123761704I-450511J216878D01*
G01*
X48180782Y-124410279D02*
G75*
G03*
X48131299Y-124627157I450548J-216881D01*
G01*
X47478011Y-126898299D02*
G75*
G03*
X48180783Y-126249720I252259J431699D01*
G01*
X48131299Y-126032842D02*
G75*
G03*
X48180784Y-126249720I499301J-158D01*
G01*
%TO.C,L13*%
X299525001Y-40307842D02*
X299525001Y-38902158D01*
X300430548Y-38105000D02*
X302019452Y-38105000D01*
X302019452Y-41104999D02*
X300430547Y-41104999D01*
X302924999Y-38902158D02*
X302924999Y-40307842D01*
X299525000Y-38902158D02*
G75*
G03*
X299475515Y-38685280I-499989J2D01*
G01*
X300178289Y-38036701D02*
G75*
G03*
X299475517Y-38685281I-252259J-431700D01*
G01*
X299475516Y-40524720D02*
G75*
G03*
X299525001Y-40307843I-450505J216876D01*
G01*
X299475516Y-40524720D02*
G75*
G03*
X300178289Y-41173297I450515J-216877D01*
G01*
X300430547Y-41104999D02*
G75*
G03*
X300178289Y-41173298I3J-500009D01*
G01*
X300178289Y-38036701D02*
G75*
G03*
X300430548Y-38105000I252261J431710D01*
G01*
X302271711Y-41173299D02*
G75*
G03*
X302019453Y-41105000I-252261J-431711D01*
G01*
X302019452Y-38104999D02*
G75*
G03*
X302271710Y-38036701I-2J500009D01*
G01*
X302974481Y-38685278D02*
G75*
G03*
X302271711Y-38036704I-450511J216878D01*
G01*
X302974482Y-38685279D02*
G75*
G03*
X302924999Y-38902157I450548J-216881D01*
G01*
X302271711Y-41173299D02*
G75*
G03*
X302974483Y-40524720I252259J431699D01*
G01*
X302924999Y-40307842D02*
G75*
G03*
X302974484Y-40524720I499301J-158D01*
G01*
%TO.C,L52*%
X323337501Y-87932842D02*
X323337501Y-86527158D01*
X324243048Y-85730000D02*
X325831952Y-85730000D01*
X325831952Y-88729999D02*
X324243047Y-88729999D01*
X326737499Y-86527158D02*
X326737499Y-87932842D01*
X323337500Y-86527158D02*
G75*
G03*
X323288015Y-86310280I-499989J2D01*
G01*
X323990789Y-85661701D02*
G75*
G03*
X323288017Y-86310281I-252259J-431700D01*
G01*
X323288016Y-88149720D02*
G75*
G03*
X323337501Y-87932843I-450505J216876D01*
G01*
X323288016Y-88149720D02*
G75*
G03*
X323990789Y-88798297I450515J-216877D01*
G01*
X324243047Y-88729999D02*
G75*
G03*
X323990789Y-88798298I3J-500009D01*
G01*
X323990789Y-85661701D02*
G75*
G03*
X324243048Y-85730000I252261J431710D01*
G01*
X326084211Y-88798299D02*
G75*
G03*
X325831953Y-88730000I-252261J-431711D01*
G01*
X325831952Y-85729999D02*
G75*
G03*
X326084210Y-85661701I-2J500009D01*
G01*
X326786981Y-86310278D02*
G75*
G03*
X326084211Y-85661704I-450511J216878D01*
G01*
X326786982Y-86310279D02*
G75*
G03*
X326737499Y-86527157I450548J-216881D01*
G01*
X326084211Y-88798299D02*
G75*
G03*
X326786983Y-88149720I252259J431699D01*
G01*
X326737499Y-87932842D02*
G75*
G03*
X326786984Y-88149720I499301J-158D01*
G01*
%TO.C,L22*%
X128075001Y-68882842D02*
X128075001Y-67477158D01*
X128980548Y-66680000D02*
X130569452Y-66680000D01*
X130569452Y-69679999D02*
X128980547Y-69679999D01*
X131474999Y-67477158D02*
X131474999Y-68882842D01*
X128075000Y-67477158D02*
G75*
G03*
X128025515Y-67260280I-499989J2D01*
G01*
X128728289Y-66611701D02*
G75*
G03*
X128025517Y-67260281I-252259J-431700D01*
G01*
X128025516Y-69099720D02*
G75*
G03*
X128075001Y-68882843I-450505J216876D01*
G01*
X128025516Y-69099720D02*
G75*
G03*
X128728289Y-69748297I450515J-216877D01*
G01*
X128980547Y-69679999D02*
G75*
G03*
X128728289Y-69748298I3J-500009D01*
G01*
X128728289Y-66611701D02*
G75*
G03*
X128980548Y-66680000I252261J431710D01*
G01*
X130821711Y-69748299D02*
G75*
G03*
X130569453Y-69680000I-252261J-431711D01*
G01*
X130569452Y-66679999D02*
G75*
G03*
X130821710Y-66611701I-2J500009D01*
G01*
X131524481Y-67260278D02*
G75*
G03*
X130821711Y-66611704I-450511J216878D01*
G01*
X131524482Y-67260279D02*
G75*
G03*
X131474999Y-67477157I450548J-216881D01*
G01*
X130821711Y-69748299D02*
G75*
G03*
X131524483Y-69099720I252259J431699D01*
G01*
X131474999Y-68882842D02*
G75*
G03*
X131524484Y-69099720I499301J-158D01*
G01*
%TO.C,L44*%
X156650001Y-87932842D02*
X156650001Y-86527158D01*
X157555548Y-85730000D02*
X159144452Y-85730000D01*
X159144452Y-88729999D02*
X157555547Y-88729999D01*
X160049999Y-86527158D02*
X160049999Y-87932842D01*
X156650000Y-86527158D02*
G75*
G03*
X156600515Y-86310280I-499989J2D01*
G01*
X157303289Y-85661701D02*
G75*
G03*
X156600517Y-86310281I-252259J-431700D01*
G01*
X156600516Y-88149720D02*
G75*
G03*
X156650001Y-87932843I-450505J216876D01*
G01*
X156600516Y-88149720D02*
G75*
G03*
X157303289Y-88798297I450515J-216877D01*
G01*
X157555547Y-88729999D02*
G75*
G03*
X157303289Y-88798298I3J-500009D01*
G01*
X157303289Y-85661701D02*
G75*
G03*
X157555548Y-85730000I252261J431710D01*
G01*
X159396711Y-88798299D02*
G75*
G03*
X159144453Y-88730000I-252261J-431711D01*
G01*
X159144452Y-85729999D02*
G75*
G03*
X159396710Y-85661701I-2J500009D01*
G01*
X160099481Y-86310278D02*
G75*
G03*
X159396711Y-85661704I-450511J216878D01*
G01*
X160099482Y-86310279D02*
G75*
G03*
X160049999Y-86527157I450548J-216881D01*
G01*
X159396711Y-88798299D02*
G75*
G03*
X160099483Y-88149720I252259J431699D01*
G01*
X160049999Y-87932842D02*
G75*
G03*
X160099484Y-88149720I499301J-158D01*
G01*
%TO.C,L60*%
X66162501Y-106982842D02*
X66162501Y-105577158D01*
X67068048Y-104780000D02*
X68656952Y-104780000D01*
X68656952Y-107779999D02*
X67068047Y-107779999D01*
X69562499Y-105577158D02*
X69562499Y-106982842D01*
X66162500Y-105577158D02*
G75*
G03*
X66113015Y-105360280I-499989J2D01*
G01*
X66815789Y-104711701D02*
G75*
G03*
X66113017Y-105360281I-252259J-431700D01*
G01*
X66113016Y-107199720D02*
G75*
G03*
X66162501Y-106982843I-450505J216876D01*
G01*
X66113016Y-107199720D02*
G75*
G03*
X66815789Y-107848297I450515J-216877D01*
G01*
X67068047Y-107779999D02*
G75*
G03*
X66815789Y-107848298I3J-500009D01*
G01*
X66815789Y-104711701D02*
G75*
G03*
X67068048Y-104780000I252261J431710D01*
G01*
X68909211Y-107848299D02*
G75*
G03*
X68656953Y-107780000I-252261J-431711D01*
G01*
X68656952Y-104779999D02*
G75*
G03*
X68909210Y-104711701I-2J500009D01*
G01*
X69611981Y-105360278D02*
G75*
G03*
X68909211Y-104711704I-450511J216878D01*
G01*
X69611982Y-105360279D02*
G75*
G03*
X69562499Y-105577157I450548J-216881D01*
G01*
X68909211Y-107848299D02*
G75*
G03*
X69611983Y-107199720I252259J431699D01*
G01*
X69562499Y-106982842D02*
G75*
G03*
X69611984Y-107199720I499301J-158D01*
G01*
%TO.C,L3*%
X89975001Y-40307842D02*
X89975001Y-38902158D01*
X90880548Y-38105000D02*
X92469452Y-38105000D01*
X92469452Y-41104999D02*
X90880547Y-41104999D01*
X93374999Y-38902158D02*
X93374999Y-40307842D01*
X89975000Y-38902158D02*
G75*
G03*
X89925515Y-38685280I-499989J2D01*
G01*
X90628289Y-38036701D02*
G75*
G03*
X89925517Y-38685281I-252259J-431700D01*
G01*
X89925516Y-40524720D02*
G75*
G03*
X89975001Y-40307843I-450505J216876D01*
G01*
X89925516Y-40524720D02*
G75*
G03*
X90628289Y-41173297I450515J-216877D01*
G01*
X90880547Y-41104999D02*
G75*
G03*
X90628289Y-41173298I3J-500009D01*
G01*
X90628289Y-38036701D02*
G75*
G03*
X90880548Y-38105000I252261J431710D01*
G01*
X92721711Y-41173299D02*
G75*
G03*
X92469453Y-41105000I-252261J-431711D01*
G01*
X92469452Y-38104999D02*
G75*
G03*
X92721710Y-38036701I-2J500009D01*
G01*
X93424481Y-38685278D02*
G75*
G03*
X92721711Y-38036704I-450511J216878D01*
G01*
X93424482Y-38685279D02*
G75*
G03*
X93374999Y-38902157I450548J-216881D01*
G01*
X92721711Y-41173299D02*
G75*
G03*
X93424483Y-40524720I252259J431699D01*
G01*
X93374999Y-40307842D02*
G75*
G03*
X93424484Y-40524720I499301J-158D01*
G01*
%TO.C,L49*%
X251900001Y-87932842D02*
X251900001Y-86527158D01*
X252805548Y-85730000D02*
X254394452Y-85730000D01*
X254394452Y-88729999D02*
X252805547Y-88729999D01*
X255299999Y-86527158D02*
X255299999Y-87932842D01*
X251900000Y-86527158D02*
G75*
G03*
X251850515Y-86310280I-499989J2D01*
G01*
X252553289Y-85661701D02*
G75*
G03*
X251850517Y-86310281I-252259J-431700D01*
G01*
X251850516Y-88149720D02*
G75*
G03*
X251900001Y-87932843I-450505J216876D01*
G01*
X251850516Y-88149720D02*
G75*
G03*
X252553289Y-88798297I450515J-216877D01*
G01*
X252805547Y-88729999D02*
G75*
G03*
X252553289Y-88798298I3J-500009D01*
G01*
X252553289Y-85661701D02*
G75*
G03*
X252805548Y-85730000I252261J431710D01*
G01*
X254646711Y-88798299D02*
G75*
G03*
X254394453Y-88730000I-252261J-431711D01*
G01*
X254394452Y-85729999D02*
G75*
G03*
X254646710Y-85661701I-2J500009D01*
G01*
X255349481Y-86310278D02*
G75*
G03*
X254646711Y-85661704I-450511J216878D01*
G01*
X255349482Y-86310279D02*
G75*
G03*
X255299999Y-86527157I450548J-216881D01*
G01*
X254646711Y-88798299D02*
G75*
G03*
X255349483Y-88149720I252259J431699D01*
G01*
X255299999Y-87932842D02*
G75*
G03*
X255349484Y-88149720I499301J-158D01*
G01*
%TO.C,L8*%
X194750001Y-40307842D02*
X194750001Y-38902158D01*
X195655548Y-38105000D02*
X197244452Y-38105000D01*
X197244452Y-41104999D02*
X195655547Y-41104999D01*
X198149999Y-38902158D02*
X198149999Y-40307842D01*
X194750000Y-38902158D02*
G75*
G03*
X194700515Y-38685280I-499989J2D01*
G01*
X195403289Y-38036701D02*
G75*
G03*
X194700517Y-38685281I-252259J-431700D01*
G01*
X194700516Y-40524720D02*
G75*
G03*
X194750001Y-40307843I-450505J216876D01*
G01*
X194700516Y-40524720D02*
G75*
G03*
X195403289Y-41173297I450515J-216877D01*
G01*
X195655547Y-41104999D02*
G75*
G03*
X195403289Y-41173298I3J-500009D01*
G01*
X195403289Y-38036701D02*
G75*
G03*
X195655548Y-38105000I252261J431710D01*
G01*
X197496711Y-41173299D02*
G75*
G03*
X197244453Y-41105000I-252261J-431711D01*
G01*
X197244452Y-38104999D02*
G75*
G03*
X197496710Y-38036701I-2J500009D01*
G01*
X198199481Y-38685278D02*
G75*
G03*
X197496711Y-38036704I-450511J216878D01*
G01*
X198199482Y-38685279D02*
G75*
G03*
X198149999Y-38902157I450548J-216881D01*
G01*
X197496711Y-41173299D02*
G75*
G03*
X198199483Y-40524720I252259J431699D01*
G01*
X198149999Y-40307842D02*
G75*
G03*
X198199484Y-40524720I499301J-158D01*
G01*
%TO.C,L11*%
X261425001Y-40307842D02*
X261425001Y-38902158D01*
X262330548Y-38105000D02*
X263919452Y-38105000D01*
X263919452Y-41104999D02*
X262330547Y-41104999D01*
X264824999Y-38902158D02*
X264824999Y-40307842D01*
X261425000Y-38902158D02*
G75*
G03*
X261375515Y-38685280I-499989J2D01*
G01*
X262078289Y-38036701D02*
G75*
G03*
X261375517Y-38685281I-252259J-431700D01*
G01*
X261375516Y-40524720D02*
G75*
G03*
X261425001Y-40307843I-450505J216876D01*
G01*
X261375516Y-40524720D02*
G75*
G03*
X262078289Y-41173297I450515J-216877D01*
G01*
X262330547Y-41104999D02*
G75*
G03*
X262078289Y-41173298I3J-500009D01*
G01*
X262078289Y-38036701D02*
G75*
G03*
X262330548Y-38105000I252261J431710D01*
G01*
X264171711Y-41173299D02*
G75*
G03*
X263919453Y-41105000I-252261J-431711D01*
G01*
X263919452Y-38104999D02*
G75*
G03*
X264171710Y-38036701I-2J500009D01*
G01*
X264874481Y-38685278D02*
G75*
G03*
X264171711Y-38036704I-450511J216878D01*
G01*
X264874482Y-38685279D02*
G75*
G03*
X264824999Y-38902157I450548J-216881D01*
G01*
X264171711Y-41173299D02*
G75*
G03*
X264874483Y-40524720I252259J431699D01*
G01*
X264824999Y-40307842D02*
G75*
G03*
X264874484Y-40524720I499301J-158D01*
G01*
%TO.C,L104*%
X423350001Y-145082842D02*
X423350001Y-143677158D01*
X424255548Y-142880000D02*
X425844452Y-142880000D01*
X425844452Y-145879999D02*
X424255547Y-145879999D01*
X426749999Y-143677158D02*
X426749999Y-145082842D01*
X423350000Y-143677158D02*
G75*
G03*
X423300515Y-143460280I-499989J2D01*
G01*
X424003289Y-142811701D02*
G75*
G03*
X423300517Y-143460281I-252259J-431700D01*
G01*
X423300516Y-145299720D02*
G75*
G03*
X423350001Y-145082843I-450505J216876D01*
G01*
X423300516Y-145299720D02*
G75*
G03*
X424003289Y-145948297I450515J-216877D01*
G01*
X424255547Y-145879999D02*
G75*
G03*
X424003289Y-145948298I3J-500009D01*
G01*
X424003289Y-142811701D02*
G75*
G03*
X424255548Y-142880000I252261J431710D01*
G01*
X426096711Y-145948299D02*
G75*
G03*
X425844453Y-145880000I-252261J-431711D01*
G01*
X425844452Y-142879999D02*
G75*
G03*
X426096710Y-142811701I-2J500009D01*
G01*
X426799481Y-143460278D02*
G75*
G03*
X426096711Y-142811704I-450511J216878D01*
G01*
X426799482Y-143460279D02*
G75*
G03*
X426749999Y-143677157I450548J-216881D01*
G01*
X426096711Y-145948299D02*
G75*
G03*
X426799483Y-145299720I252259J431699D01*
G01*
X426749999Y-145082842D02*
G75*
G03*
X426799484Y-145299720I499301J-158D01*
G01*
%TO.C,L59*%
X39968801Y-106982842D02*
X39968801Y-105577158D01*
X40874348Y-104780000D02*
X42463252Y-104780000D01*
X42463252Y-107779999D02*
X40874347Y-107779999D01*
X43368799Y-105577158D02*
X43368799Y-106982842D01*
X39968800Y-105577158D02*
G75*
G03*
X39919315Y-105360280I-499989J2D01*
G01*
X40622089Y-104711701D02*
G75*
G03*
X39919317Y-105360281I-252259J-431700D01*
G01*
X39919316Y-107199720D02*
G75*
G03*
X39968801Y-106982843I-450505J216876D01*
G01*
X39919316Y-107199720D02*
G75*
G03*
X40622089Y-107848297I450515J-216877D01*
G01*
X40874347Y-107779999D02*
G75*
G03*
X40622089Y-107848298I3J-500009D01*
G01*
X40622089Y-104711701D02*
G75*
G03*
X40874348Y-104780000I252261J431710D01*
G01*
X42715511Y-107848299D02*
G75*
G03*
X42463253Y-107780000I-252261J-431711D01*
G01*
X42463252Y-104779999D02*
G75*
G03*
X42715510Y-104711701I-2J500009D01*
G01*
X43418281Y-105360278D02*
G75*
G03*
X42715511Y-104711704I-450511J216878D01*
G01*
X43418282Y-105360279D02*
G75*
G03*
X43368799Y-105577157I450548J-216881D01*
G01*
X42715511Y-107848299D02*
G75*
G03*
X43418283Y-107199720I252259J431699D01*
G01*
X43368799Y-106982842D02*
G75*
G03*
X43418284Y-107199720I499301J-158D01*
G01*
%TO.C,L100*%
X323337501Y-145082842D02*
X323337501Y-143677158D01*
X324243048Y-142880000D02*
X325831952Y-142880000D01*
X325831952Y-145879999D02*
X324243047Y-145879999D01*
X326737499Y-143677158D02*
X326737499Y-145082842D01*
X323337500Y-143677158D02*
G75*
G03*
X323288015Y-143460280I-499989J2D01*
G01*
X323990789Y-142811701D02*
G75*
G03*
X323288017Y-143460281I-252259J-431700D01*
G01*
X323288016Y-145299720D02*
G75*
G03*
X323337501Y-145082843I-450505J216876D01*
G01*
X323288016Y-145299720D02*
G75*
G03*
X323990789Y-145948297I450515J-216877D01*
G01*
X324243047Y-145879999D02*
G75*
G03*
X323990789Y-145948298I3J-500009D01*
G01*
X323990789Y-142811701D02*
G75*
G03*
X324243048Y-142880000I252261J431710D01*
G01*
X326084211Y-145948299D02*
G75*
G03*
X325831953Y-145880000I-252261J-431711D01*
G01*
X325831952Y-142879999D02*
G75*
G03*
X326084210Y-142811701I-2J500009D01*
G01*
X326786981Y-143460278D02*
G75*
G03*
X326084211Y-142811704I-450511J216878D01*
G01*
X326786982Y-143460279D02*
G75*
G03*
X326737499Y-143677157I450548J-216881D01*
G01*
X326084211Y-145948299D02*
G75*
G03*
X326786983Y-145299720I252259J431699D01*
G01*
X326737499Y-145082842D02*
G75*
G03*
X326786984Y-145299720I499301J-158D01*
G01*
%TO.C,L73*%
X404300001Y-106982842D02*
X404300001Y-105577158D01*
X405205548Y-104780000D02*
X406794452Y-104780000D01*
X406794452Y-107779999D02*
X405205547Y-107779999D01*
X407699999Y-105577158D02*
X407699999Y-106982842D01*
X404300000Y-105577158D02*
G75*
G03*
X404250515Y-105360280I-499989J2D01*
G01*
X404953289Y-104711701D02*
G75*
G03*
X404250517Y-105360281I-252259J-431700D01*
G01*
X404250516Y-107199720D02*
G75*
G03*
X404300001Y-106982843I-450505J216876D01*
G01*
X404250516Y-107199720D02*
G75*
G03*
X404953289Y-107848297I450515J-216877D01*
G01*
X405205547Y-107779999D02*
G75*
G03*
X404953289Y-107848298I3J-500009D01*
G01*
X404953289Y-104711701D02*
G75*
G03*
X405205548Y-104780000I252261J431710D01*
G01*
X407046711Y-107848299D02*
G75*
G03*
X406794453Y-107780000I-252261J-431711D01*
G01*
X406794452Y-104779999D02*
G75*
G03*
X407046710Y-104711701I-2J500009D01*
G01*
X407749481Y-105360278D02*
G75*
G03*
X407046711Y-104711704I-450511J216878D01*
G01*
X407749482Y-105360279D02*
G75*
G03*
X407699999Y-105577157I450548J-216881D01*
G01*
X407046711Y-107848299D02*
G75*
G03*
X407749483Y-107199720I252259J431699D01*
G01*
X407699999Y-106982842D02*
G75*
G03*
X407749484Y-107199720I499301J-158D01*
G01*
%TO.C,L68*%
X218562501Y-106982842D02*
X218562501Y-105577158D01*
X219468048Y-104780000D02*
X221056952Y-104780000D01*
X221056952Y-107779999D02*
X219468047Y-107779999D01*
X221962499Y-105577158D02*
X221962499Y-106982842D01*
X218562500Y-105577158D02*
G75*
G03*
X218513015Y-105360280I-499989J2D01*
G01*
X219215789Y-104711701D02*
G75*
G03*
X218513017Y-105360281I-252259J-431700D01*
G01*
X218513016Y-107199720D02*
G75*
G03*
X218562501Y-106982843I-450505J216876D01*
G01*
X218513016Y-107199720D02*
G75*
G03*
X219215789Y-107848297I450515J-216877D01*
G01*
X219468047Y-107779999D02*
G75*
G03*
X219215789Y-107848298I3J-500009D01*
G01*
X219215789Y-104711701D02*
G75*
G03*
X219468048Y-104780000I252261J431710D01*
G01*
X221309211Y-107848299D02*
G75*
G03*
X221056953Y-107780000I-252261J-431711D01*
G01*
X221056952Y-104779999D02*
G75*
G03*
X221309210Y-104711701I-2J500009D01*
G01*
X222011981Y-105360278D02*
G75*
G03*
X221309211Y-104711704I-450511J216878D01*
G01*
X222011982Y-105360279D02*
G75*
G03*
X221962499Y-105577157I450548J-216881D01*
G01*
X221309211Y-107848299D02*
G75*
G03*
X222011983Y-107199720I252259J431699D01*
G01*
X221962499Y-106982842D02*
G75*
G03*
X222011984Y-107199720I499301J-158D01*
G01*
%TO.C,L92*%
X35206301Y-145082842D02*
X35206301Y-143677158D01*
X36111848Y-142880000D02*
X37700752Y-142880000D01*
X37700752Y-145879999D02*
X36111847Y-145879999D01*
X38606299Y-143677158D02*
X38606299Y-145082842D01*
X35206300Y-143677158D02*
G75*
G03*
X35156815Y-143460280I-499989J2D01*
G01*
X35859589Y-142811701D02*
G75*
G03*
X35156817Y-143460281I-252259J-431700D01*
G01*
X35156816Y-145299720D02*
G75*
G03*
X35206301Y-145082843I-450505J216876D01*
G01*
X35156816Y-145299720D02*
G75*
G03*
X35859589Y-145948297I450515J-216877D01*
G01*
X36111847Y-145879999D02*
G75*
G03*
X35859589Y-145948298I3J-500009D01*
G01*
X35859589Y-142811701D02*
G75*
G03*
X36111848Y-142880000I252261J431710D01*
G01*
X37953011Y-145948299D02*
G75*
G03*
X37700753Y-145880000I-252261J-431711D01*
G01*
X37700752Y-142879999D02*
G75*
G03*
X37953010Y-142811701I-2J500009D01*
G01*
X38655781Y-143460278D02*
G75*
G03*
X37953011Y-142811704I-450511J216878D01*
G01*
X38655782Y-143460279D02*
G75*
G03*
X38606299Y-143677157I450548J-216881D01*
G01*
X37953011Y-145948299D02*
G75*
G03*
X38655783Y-145299720I252259J431699D01*
G01*
X38606299Y-145082842D02*
G75*
G03*
X38655784Y-145299720I499301J-158D01*
G01*
%TO.C,L85*%
X247137501Y-126032842D02*
X247137501Y-124627158D01*
X248043048Y-123830000D02*
X249631952Y-123830000D01*
X249631952Y-126829999D02*
X248043047Y-126829999D01*
X250537499Y-124627158D02*
X250537499Y-126032842D01*
X247137500Y-124627158D02*
G75*
G03*
X247088015Y-124410280I-499989J2D01*
G01*
X247790789Y-123761701D02*
G75*
G03*
X247088017Y-124410281I-252259J-431700D01*
G01*
X247088016Y-126249720D02*
G75*
G03*
X247137501Y-126032843I-450505J216876D01*
G01*
X247088016Y-126249720D02*
G75*
G03*
X247790789Y-126898297I450515J-216877D01*
G01*
X248043047Y-126829999D02*
G75*
G03*
X247790789Y-126898298I3J-500009D01*
G01*
X247790789Y-123761701D02*
G75*
G03*
X248043048Y-123830000I252261J431710D01*
G01*
X249884211Y-126898299D02*
G75*
G03*
X249631953Y-126830000I-252261J-431711D01*
G01*
X249631952Y-123829999D02*
G75*
G03*
X249884210Y-123761701I-2J500009D01*
G01*
X250586981Y-124410278D02*
G75*
G03*
X249884211Y-123761704I-450511J216878D01*
G01*
X250586982Y-124410279D02*
G75*
G03*
X250537499Y-124627157I450548J-216881D01*
G01*
X249884211Y-126898299D02*
G75*
G03*
X250586983Y-126249720I252259J431699D01*
G01*
X250537499Y-126032842D02*
G75*
G03*
X250586984Y-126249720I499301J-158D01*
G01*
%TO.C,L72*%
X385250001Y-106982842D02*
X385250001Y-105577158D01*
X386155548Y-104780000D02*
X387744452Y-104780000D01*
X387744452Y-107779999D02*
X386155547Y-107779999D01*
X388649999Y-105577158D02*
X388649999Y-106982842D01*
X385250000Y-105577158D02*
G75*
G03*
X385200515Y-105360280I-499989J2D01*
G01*
X385903289Y-104711701D02*
G75*
G03*
X385200517Y-105360281I-252259J-431700D01*
G01*
X385200516Y-107199720D02*
G75*
G03*
X385250001Y-106982843I-450505J216876D01*
G01*
X385200516Y-107199720D02*
G75*
G03*
X385903289Y-107848297I450515J-216877D01*
G01*
X386155547Y-107779999D02*
G75*
G03*
X385903289Y-107848298I3J-500009D01*
G01*
X385903289Y-104711701D02*
G75*
G03*
X386155548Y-104780000I252261J431710D01*
G01*
X387996711Y-107848299D02*
G75*
G03*
X387744453Y-107780000I-252261J-431711D01*
G01*
X387744452Y-104779999D02*
G75*
G03*
X387996710Y-104711701I-2J500009D01*
G01*
X388699481Y-105360278D02*
G75*
G03*
X387996711Y-104711704I-450511J216878D01*
G01*
X388699482Y-105360279D02*
G75*
G03*
X388649999Y-105577157I450548J-216881D01*
G01*
X387996711Y-107848299D02*
G75*
G03*
X388699483Y-107199720I252259J431699D01*
G01*
X388649999Y-106982842D02*
G75*
G03*
X388699484Y-107199720I499301J-158D01*
G01*
%TO.C,L87*%
X342387501Y-126032842D02*
X342387501Y-124627158D01*
X343293048Y-123830000D02*
X344881952Y-123830000D01*
X344881952Y-126829999D02*
X343293047Y-126829999D01*
X345787499Y-124627158D02*
X345787499Y-126032842D01*
X342387500Y-124627158D02*
G75*
G03*
X342338015Y-124410280I-499989J2D01*
G01*
X343040789Y-123761701D02*
G75*
G03*
X342338017Y-124410281I-252259J-431700D01*
G01*
X342338016Y-126249720D02*
G75*
G03*
X342387501Y-126032843I-450505J216876D01*
G01*
X342338016Y-126249720D02*
G75*
G03*
X343040789Y-126898297I450515J-216877D01*
G01*
X343293047Y-126829999D02*
G75*
G03*
X343040789Y-126898298I3J-500009D01*
G01*
X343040789Y-123761701D02*
G75*
G03*
X343293048Y-123830000I252261J431710D01*
G01*
X345134211Y-126898299D02*
G75*
G03*
X344881953Y-126830000I-252261J-431711D01*
G01*
X344881952Y-123829999D02*
G75*
G03*
X345134210Y-123761701I-2J500009D01*
G01*
X345836981Y-124410278D02*
G75*
G03*
X345134211Y-123761704I-450511J216878D01*
G01*
X345836982Y-124410279D02*
G75*
G03*
X345787499Y-124627157I450548J-216881D01*
G01*
X345134211Y-126898299D02*
G75*
G03*
X345836983Y-126249720I252259J431699D01*
G01*
X345787499Y-126032842D02*
G75*
G03*
X345836984Y-126249720I499301J-158D01*
G01*
%TO.C,L24*%
X166175001Y-68882842D02*
X166175001Y-67477158D01*
X167080548Y-66680000D02*
X168669452Y-66680000D01*
X168669452Y-69679999D02*
X167080547Y-69679999D01*
X169574999Y-67477158D02*
X169574999Y-68882842D01*
X166175000Y-67477158D02*
G75*
G03*
X166125515Y-67260280I-499989J2D01*
G01*
X166828289Y-66611701D02*
G75*
G03*
X166125517Y-67260281I-252259J-431700D01*
G01*
X166125516Y-69099720D02*
G75*
G03*
X166175001Y-68882843I-450505J216876D01*
G01*
X166125516Y-69099720D02*
G75*
G03*
X166828289Y-69748297I450515J-216877D01*
G01*
X167080547Y-69679999D02*
G75*
G03*
X166828289Y-69748298I3J-500009D01*
G01*
X166828289Y-66611701D02*
G75*
G03*
X167080548Y-66680000I252261J431710D01*
G01*
X168921711Y-69748299D02*
G75*
G03*
X168669453Y-69680000I-252261J-431711D01*
G01*
X168669452Y-66679999D02*
G75*
G03*
X168921710Y-66611701I-2J500009D01*
G01*
X169624481Y-67260278D02*
G75*
G03*
X168921711Y-66611704I-450511J216878D01*
G01*
X169624482Y-67260279D02*
G75*
G03*
X169574999Y-67477157I450548J-216881D01*
G01*
X168921711Y-69748299D02*
G75*
G03*
X169624483Y-69099720I252259J431699D01*
G01*
X169574999Y-68882842D02*
G75*
G03*
X169624484Y-69099720I499301J-158D01*
G01*
%TO.C,L82*%
X189987501Y-126032842D02*
X189987501Y-124627158D01*
X190893048Y-123830000D02*
X192481952Y-123830000D01*
X192481952Y-126829999D02*
X190893047Y-126829999D01*
X193387499Y-124627158D02*
X193387499Y-126032842D01*
X189987500Y-124627158D02*
G75*
G03*
X189938015Y-124410280I-499989J2D01*
G01*
X190640789Y-123761701D02*
G75*
G03*
X189938017Y-124410281I-252259J-431700D01*
G01*
X189938016Y-126249720D02*
G75*
G03*
X189987501Y-126032843I-450505J216876D01*
G01*
X189938016Y-126249720D02*
G75*
G03*
X190640789Y-126898297I450515J-216877D01*
G01*
X190893047Y-126829999D02*
G75*
G03*
X190640789Y-126898298I3J-500009D01*
G01*
X190640789Y-123761701D02*
G75*
G03*
X190893048Y-123830000I252261J431710D01*
G01*
X192734211Y-126898299D02*
G75*
G03*
X192481953Y-126830000I-252261J-431711D01*
G01*
X192481952Y-123829999D02*
G75*
G03*
X192734210Y-123761701I-2J500009D01*
G01*
X193436981Y-124410278D02*
G75*
G03*
X192734211Y-123761704I-450511J216878D01*
G01*
X193436982Y-124410279D02*
G75*
G03*
X193387499Y-124627157I450548J-216881D01*
G01*
X192734211Y-126898299D02*
G75*
G03*
X193436983Y-126249720I252259J431699D01*
G01*
X193387499Y-126032842D02*
G75*
G03*
X193436984Y-126249720I499301J-158D01*
G01*
%TO.C,L34*%
X385250001Y-68882842D02*
X385250001Y-67477158D01*
X386155548Y-66680000D02*
X387744452Y-66680000D01*
X387744452Y-69679999D02*
X386155547Y-69679999D01*
X388649999Y-67477158D02*
X388649999Y-68882842D01*
X385250000Y-67477158D02*
G75*
G03*
X385200515Y-67260280I-499989J2D01*
G01*
X385903289Y-66611701D02*
G75*
G03*
X385200517Y-67260281I-252259J-431700D01*
G01*
X385200516Y-69099720D02*
G75*
G03*
X385250001Y-68882843I-450505J216876D01*
G01*
X385200516Y-69099720D02*
G75*
G03*
X385903289Y-69748297I450515J-216877D01*
G01*
X386155547Y-69679999D02*
G75*
G03*
X385903289Y-69748298I3J-500009D01*
G01*
X385903289Y-66611701D02*
G75*
G03*
X386155548Y-66680000I252261J431710D01*
G01*
X387996711Y-69748299D02*
G75*
G03*
X387744453Y-69680000I-252261J-431711D01*
G01*
X387744452Y-66679999D02*
G75*
G03*
X387996710Y-66611701I-2J500009D01*
G01*
X388699481Y-67260278D02*
G75*
G03*
X387996711Y-66611704I-450511J216878D01*
G01*
X388699482Y-67260279D02*
G75*
G03*
X388649999Y-67477157I450548J-216881D01*
G01*
X387996711Y-69748299D02*
G75*
G03*
X388699483Y-69099720I252259J431699D01*
G01*
X388649999Y-68882842D02*
G75*
G03*
X388699484Y-69099720I499301J-158D01*
G01*
%TO.C,L58*%
X442400001Y-97457842D02*
X442400001Y-96052158D01*
X443305548Y-95255000D02*
X444894452Y-95255000D01*
X444894452Y-98254999D02*
X443305547Y-98254999D01*
X445799999Y-96052158D02*
X445799999Y-97457842D01*
X442400000Y-96052158D02*
G75*
G03*
X442350515Y-95835280I-499989J2D01*
G01*
X443053289Y-95186701D02*
G75*
G03*
X442350517Y-95835281I-252259J-431700D01*
G01*
X442350516Y-97674720D02*
G75*
G03*
X442400001Y-97457843I-450505J216876D01*
G01*
X442350516Y-97674720D02*
G75*
G03*
X443053289Y-98323297I450515J-216877D01*
G01*
X443305547Y-98254999D02*
G75*
G03*
X443053289Y-98323298I3J-500009D01*
G01*
X443053289Y-95186701D02*
G75*
G03*
X443305548Y-95255000I252261J431710D01*
G01*
X445146711Y-98323299D02*
G75*
G03*
X444894453Y-98255000I-252261J-431711D01*
G01*
X444894452Y-95254999D02*
G75*
G03*
X445146710Y-95186701I-2J500009D01*
G01*
X445849481Y-95835278D02*
G75*
G03*
X445146711Y-95186704I-450511J216878D01*
G01*
X445849482Y-95835279D02*
G75*
G03*
X445799999Y-96052157I450548J-216881D01*
G01*
X445146711Y-98323299D02*
G75*
G03*
X445849483Y-97674720I252259J431699D01*
G01*
X445799999Y-97457842D02*
G75*
G03*
X445849484Y-97674720I499301J-158D01*
G01*
%TO.C,L47*%
X213800001Y-87932842D02*
X213800001Y-86527158D01*
X214705548Y-85730000D02*
X216294452Y-85730000D01*
X216294452Y-88729999D02*
X214705547Y-88729999D01*
X217199999Y-86527158D02*
X217199999Y-87932842D01*
X213800000Y-86527158D02*
G75*
G03*
X213750515Y-86310280I-499989J2D01*
G01*
X214453289Y-85661701D02*
G75*
G03*
X213750517Y-86310281I-252259J-431700D01*
G01*
X213750516Y-88149720D02*
G75*
G03*
X213800001Y-87932843I-450505J216876D01*
G01*
X213750516Y-88149720D02*
G75*
G03*
X214453289Y-88798297I450515J-216877D01*
G01*
X214705547Y-88729999D02*
G75*
G03*
X214453289Y-88798298I3J-500009D01*
G01*
X214453289Y-85661701D02*
G75*
G03*
X214705548Y-85730000I252261J431710D01*
G01*
X216546711Y-88798299D02*
G75*
G03*
X216294453Y-88730000I-252261J-431711D01*
G01*
X216294452Y-85729999D02*
G75*
G03*
X216546710Y-85661701I-2J500009D01*
G01*
X217249481Y-86310278D02*
G75*
G03*
X216546711Y-85661704I-450511J216878D01*
G01*
X217249482Y-86310279D02*
G75*
G03*
X217199999Y-86527157I450548J-216881D01*
G01*
X216546711Y-88798299D02*
G75*
G03*
X217249483Y-88149720I252259J431699D01*
G01*
X217199999Y-87932842D02*
G75*
G03*
X217249484Y-88149720I499301J-158D01*
G01*
%TO.C,L5*%
X128075001Y-40307842D02*
X128075001Y-38902158D01*
X128980548Y-38105000D02*
X130569452Y-38105000D01*
X130569452Y-41104999D02*
X128980547Y-41104999D01*
X131474999Y-38902158D02*
X131474999Y-40307842D01*
X128075000Y-38902158D02*
G75*
G03*
X128025515Y-38685280I-499989J2D01*
G01*
X128728289Y-38036701D02*
G75*
G03*
X128025517Y-38685281I-252259J-431700D01*
G01*
X128025516Y-40524720D02*
G75*
G03*
X128075001Y-40307843I-450505J216876D01*
G01*
X128025516Y-40524720D02*
G75*
G03*
X128728289Y-41173297I450515J-216877D01*
G01*
X128980547Y-41104999D02*
G75*
G03*
X128728289Y-41173298I3J-500009D01*
G01*
X128728289Y-38036701D02*
G75*
G03*
X128980548Y-38105000I252261J431710D01*
G01*
X130821711Y-41173299D02*
G75*
G03*
X130569453Y-41105000I-252261J-431711D01*
G01*
X130569452Y-38104999D02*
G75*
G03*
X130821710Y-38036701I-2J500009D01*
G01*
X131524481Y-38685278D02*
G75*
G03*
X130821711Y-38036704I-450511J216878D01*
G01*
X131524482Y-38685279D02*
G75*
G03*
X131474999Y-38902157I450548J-216881D01*
G01*
X130821711Y-41173299D02*
G75*
G03*
X131524483Y-40524720I252259J431699D01*
G01*
X131474999Y-40307842D02*
G75*
G03*
X131524484Y-40524720I499301J-158D01*
G01*
%TD*%
M02*
