M48
; DRILL file {KiCad 7.0.7} date Tue Feb 20 17:11:55 2024
; FORMAT={-:-/ absolute / inch / decimal}
; #@! TF.CreationDate,2024-02-20T17:11:55+02:00
; #@! TF.GenerationSoftware,Kicad,Pcbnew,7.0.7
; #@! TF.FileFunction,NonPlated,1,2,NPTH
FMAT,2
INCH
; #@! TA.AperFunction,NonPlated,NPTH,ComponentDrill
T1C0.0256
; #@! TA.AperFunction,NonPlated,NPTH,ComponentDrill
T2C0.0689
; #@! TA.AperFunction,NonPlated,NPTH,ComponentDrill
T3C0.1200
; #@! TA.AperFunction,NonPlated,NPTH,ComponentDrill
T4C0.1201
; #@! TA.AperFunction,NonPlated,NPTH,ComponentDrill
T5C0.1570
; #@! TA.AperFunction,NonPlated,NPTH,ComponentDrill
T6C0.1575
%
G90
G05
T1
X15.0764Y-0.7717
X15.3039Y-0.7717
T2
X1.1593Y-1.3593
X1.1593Y-2.4843
X1.253Y-5.4843
X1.3468Y-3.2343
X1.4405Y-3.9843
X1.5593Y-1.3593
X1.5593Y-2.4843
X1.628Y-4.7343
X1.653Y-5.4843
X1.7468Y-3.2343
X1.8405Y-3.9843
X1.9093Y-2.4843
X2.028Y-4.7343
X2.1905Y-5.4843
X2.2843Y-3.2343
X2.3093Y-2.4843
X2.4718Y-3.9843
X2.5905Y-5.4843
X2.6593Y-1.3593
X2.6593Y-2.4843
X2.6843Y-3.2343
X2.8468Y-4.7343
X2.8718Y-3.9843
X3.0343Y-3.2343
X3.0593Y-1.3593
X3.0593Y-2.4843
X3.128Y-5.4843
X3.2218Y-3.9843
X3.2468Y-4.7343
X3.4093Y-1.3593
X3.4093Y-2.4843
X3.4343Y-3.2343
X3.528Y-5.4843
X3.5968Y-4.7343
X3.6218Y-3.9843
X3.7843Y-3.2343
X3.8093Y-1.3593
X3.8093Y-2.4843
X3.9718Y-3.9843
X3.9968Y-4.7343
X4.1593Y-1.3593
X4.1593Y-2.4843
X4.1843Y-3.2343
X4.3468Y-4.7343
X4.3718Y-3.9843
X4.5343Y-3.2343
X4.5593Y-1.3593
X4.5593Y-2.4843
X4.7218Y-3.9843
X4.7468Y-4.7343
X4.9093Y-1.3593
X4.9093Y-2.4843
X4.9343Y-3.2343
X5.0968Y-4.7343
X5.1218Y-3.9843
X5.2843Y-3.2343
X5.3093Y-1.3593
X5.3093Y-2.4843
X5.4718Y-3.9843
X5.4968Y-4.7343
X5.6593Y-2.4843
X5.6843Y-3.2343
X5.8468Y-4.7343
X5.8718Y-3.9843
X5.9405Y-5.4843
X6.0343Y-1.3593
X6.0343Y-3.2343
X6.0593Y-2.4843
X6.2218Y-3.9843
X6.2468Y-4.7343
X6.3405Y-5.4843
X6.4093Y-2.4843
X6.4343Y-1.3593
X6.4343Y-3.2343
X6.5968Y-4.7343
X6.6218Y-3.9843
X6.7843Y-1.3593
X6.7843Y-3.2343
X6.8093Y-2.4843
X6.9718Y-3.9843
X6.9968Y-4.7343
X7.1593Y-2.4843
X7.1843Y-1.3593
X7.1843Y-3.2343
X7.3468Y-4.7343
X7.3718Y-3.9843
X7.5343Y-1.3593
X7.5343Y-3.2343
X7.5593Y-2.4843
X7.7218Y-3.9843
X7.7468Y-4.7343
X7.9093Y-2.4843
X7.9343Y-1.3593
X7.9343Y-3.2343
X8.0968Y-4.7343
X8.1218Y-3.9843
X8.2843Y-1.3593
X8.2843Y-3.2343
X8.3093Y-2.4843
X8.4718Y-3.9843
X8.4968Y-4.7343
X8.6593Y-2.4843
X8.6843Y-1.3593
X8.6843Y-3.2343
X8.753Y-5.4843
X8.8468Y-4.7343
X8.8718Y-3.9843
X9.0343Y-3.2343
X9.0593Y-2.4843
X9.153Y-5.4843
X9.2218Y-3.9843
X9.2468Y-4.7343
X9.4093Y-1.3593
X9.4093Y-2.4843
X9.4343Y-3.2343
X9.5968Y-4.7343
X9.6218Y-3.9843
X9.6905Y-5.4843
X9.7843Y-3.2343
X9.8093Y-1.3593
X9.8093Y-2.4843
X9.9718Y-3.9843
X9.9968Y-4.7343
X10.0905Y-5.4843
X10.1593Y-1.3593
X10.1593Y-2.4843
X10.1843Y-3.2343
X10.3718Y-3.9843
X10.5343Y-3.2343
X10.5593Y-1.3593
X10.5593Y-2.4843
X10.628Y-5.4843
X10.9093Y-1.3593
X10.9343Y-3.2343
X11.003Y-4.7343
X11.028Y-5.4843
X11.1905Y-3.9843
X11.2843Y-2.4843
X11.3093Y-1.3593
X11.403Y-4.7343
X11.4718Y-3.2343
X11.5655Y-5.4843
X11.5905Y-3.9843
X11.6593Y-1.3593
X11.6843Y-2.4843
X11.8718Y-3.2343
X11.9655Y-5.4843
X12.0593Y-1.3593
X12.5968Y-1.3593
X12.5968Y-2.4843
X12.5968Y-3.2343
X12.5968Y-5.4843
X12.9968Y-1.3593
X12.9968Y-2.4843
X12.9968Y-3.2343
X12.9968Y-5.4843
X13.3468Y-1.3593
X13.3468Y-2.4843
X13.3468Y-3.2343
X13.3468Y-4.7343
X13.3468Y-5.4843
X13.7468Y-1.3593
X13.7468Y-2.4843
X13.7468Y-3.2343
X13.7468Y-4.7343
X13.7468Y-5.4843
X14.0968Y-1.3593
X14.0968Y-2.4843
X14.0968Y-3.2343
X14.0968Y-5.4843
X14.4968Y-1.3593
X14.4968Y-2.4843
X14.4968Y-3.2343
X14.4968Y-5.4843
X15.0343Y-2.4843
X15.0343Y-3.2343
X15.0343Y-3.9843
X15.0343Y-4.7343
X15.4093Y-5.4843
X15.4343Y-2.4843
X15.4343Y-3.2343
X15.4343Y-3.9843
X15.4343Y-4.7343
X15.7843Y-2.4843
X15.7843Y-3.2343
X15.7843Y-3.9843
X15.7843Y-4.7343
X15.8093Y-5.4843
X16.1843Y-2.4843
X16.1843Y-3.2343
X16.1843Y-3.9843
X16.1843Y-4.7343
X16.5343Y-2.4843
X16.5343Y-3.2343
X16.5343Y-3.9843
X16.5343Y-4.7343
X16.5343Y-5.4843
X16.9343Y-2.4843
X16.9343Y-3.2343
X16.9343Y-3.9843
X16.9343Y-4.7343
X16.9343Y-5.4843
X17.2843Y-2.4843
X17.2843Y-3.6093
X17.2843Y-5.1093
X17.6843Y-2.4843
X17.6843Y-3.6093
X17.6843Y-5.1093
T3
X1.358Y-4.4593
X2.298Y-4.4593
X4.172Y-5.2093
X8.109Y-5.2093
X10.733Y-4.4593
X10.9205Y-3.7093
X11.0143Y-2.2093
X11.673Y-4.4593
X11.8605Y-3.7093
X11.9543Y-2.2093
X15.1393Y-5.2093
X16.0793Y-5.2093
X17.7593Y-3.1393
X17.7593Y-4.0793
X17.7593Y-4.6393
X17.7593Y-5.5793
T4
X1.2093Y-1.2593
X1.2093Y-2.3843
X1.303Y-5.3843
X1.3968Y-3.1343
X1.4593Y-1.1593
X1.4593Y-2.2843
X1.4905Y-3.8843
X1.553Y-5.2843
X1.6468Y-3.0343
X1.678Y-4.6343
X1.7405Y-3.7843
X1.928Y-4.5343
X1.9593Y-2.3843
X2.2093Y-2.2843
X2.2405Y-5.3843
X2.3343Y-3.1343
X2.4905Y-5.2843
X2.5218Y-3.8843
X2.5843Y-3.0343
X2.7093Y-1.2593
X2.7093Y-2.3843
X2.7718Y-3.7843
X2.8968Y-4.6343
X2.9593Y-1.1593
X2.9593Y-2.2843
X3.0843Y-3.1343
X3.1468Y-4.5343
X3.178Y-5.3843
X3.2718Y-3.8843
X3.3343Y-3.0343
X3.428Y-5.2843
X3.4593Y-1.2593
X3.4593Y-2.3843
X3.5218Y-3.7843
X3.6468Y-4.6343
X3.7093Y-1.1593
X3.7093Y-2.2843
X3.8343Y-3.1343
X3.8968Y-4.5343
X4.0218Y-3.8843
X4.0843Y-3.0343
X4.2093Y-1.2593
X4.2093Y-2.3843
X4.2718Y-3.7843
X4.3968Y-4.6343
X4.4593Y-1.1593
X4.4593Y-2.2843
X4.5843Y-3.1343
X4.6468Y-4.5343
X4.7718Y-3.8843
X4.8343Y-3.0343
X4.9593Y-1.2593
X4.9593Y-2.3843
X5.0218Y-3.7843
X5.1468Y-4.6343
X5.2093Y-1.1593
X5.2093Y-2.2843
X5.3343Y-3.1343
X5.3968Y-4.5343
X5.5218Y-3.8843
X5.5843Y-3.0343
X5.7093Y-2.3843
X5.7718Y-3.7843
X5.8968Y-4.6343
X5.9593Y-2.2843
X5.9905Y-5.3843
X6.0843Y-1.2593
X6.0843Y-3.1343
X6.1468Y-4.5343
X6.2405Y-5.2843
X6.2718Y-3.8843
X6.3343Y-1.1593
X6.3343Y-3.0343
X6.4593Y-2.3843
X6.5218Y-3.7843
X6.6468Y-4.6343
X6.7093Y-2.2843
X6.8343Y-1.2593
X6.8343Y-3.1343
X6.8968Y-4.5343
X7.0218Y-3.8843
X7.0843Y-1.1593
X7.0843Y-3.0343
X7.2093Y-2.3843
X7.2718Y-3.7843
X7.3968Y-4.6343
X7.4593Y-2.2843
X7.5843Y-1.2593
X7.5843Y-3.1343
X7.6468Y-4.5343
X7.7718Y-3.8843
X7.8343Y-1.1593
X7.8343Y-3.0343
X7.9593Y-2.3843
X8.0218Y-3.7843
X8.1468Y-4.6343
X8.2093Y-2.2843
X8.3343Y-1.2593
X8.3343Y-3.1343
X8.3968Y-4.5343
X8.5218Y-3.8843
X8.5843Y-1.1593
X8.5843Y-3.0343
X8.7093Y-2.3843
X8.7718Y-3.7843
X8.803Y-5.3843
X8.8968Y-4.6343
X8.9593Y-2.2843
X9.053Y-5.2843
X9.0843Y-3.1343
X9.1468Y-4.5343
X9.2718Y-3.8843
X9.3343Y-3.0343
X9.4593Y-1.2593
X9.4593Y-2.3843
X9.5218Y-3.7843
X9.6468Y-4.6343
X9.7093Y-1.1593
X9.7093Y-2.2843
X9.7405Y-5.3843
X9.8343Y-3.1343
X9.8968Y-4.5343
X9.9905Y-5.2843
X10.0218Y-3.8843
X10.0843Y-3.0343
X10.2093Y-1.2593
X10.2093Y-2.3843
X10.2718Y-3.7843
X10.4593Y-1.1593
X10.4593Y-2.2843
X10.5843Y-3.1343
X10.678Y-5.3843
X10.8343Y-3.0343
X10.928Y-5.2843
X10.9593Y-1.2593
X11.053Y-4.6343
X11.2093Y-1.1593
X11.2405Y-3.8843
X11.303Y-4.5343
X11.3343Y-2.3843
X11.4905Y-3.7843
X11.5218Y-3.1343
X11.5843Y-2.2843
X11.6155Y-5.3843
X11.7093Y-1.2593
X11.7718Y-3.0343
X11.8655Y-5.2843
X11.9593Y-1.1593
X12.6468Y-1.2593
X12.6468Y-2.3843
X12.6468Y-3.1343
X12.6468Y-5.3843
X12.8968Y-1.1593
X12.8968Y-2.2843
X12.8968Y-3.0343
X12.8968Y-5.2843
X13.3968Y-1.2593
X13.3968Y-2.3843
X13.3968Y-3.1343
X13.3968Y-4.6343
X13.3968Y-5.3843
X13.6468Y-1.1593
X13.6468Y-2.2843
X13.6468Y-3.0343
X13.6468Y-4.5343
X13.6468Y-5.2843
X14.1468Y-1.2593
X14.1468Y-2.3843
X14.1468Y-3.1343
X14.1468Y-5.3843
X14.3968Y-1.1593
X14.3968Y-2.2843
X14.3968Y-3.0343
X14.3968Y-5.2843
X15.0843Y-2.3843
X15.0843Y-3.1343
X15.0843Y-3.8843
X15.0843Y-4.6343
X15.3343Y-2.2843
X15.3343Y-3.0343
X15.3343Y-3.7843
X15.3343Y-4.5343
X15.4593Y-5.3843
X15.7093Y-5.2843
X15.8343Y-2.3843
X15.8343Y-3.1343
X15.8343Y-3.8843
X15.8343Y-4.6343
X16.0843Y-2.2843
X16.0843Y-3.0343
X16.0843Y-3.7843
X16.0843Y-4.5343
X16.5843Y-2.3843
X16.5843Y-3.1343
X16.5843Y-3.8843
X16.5843Y-4.6343
X16.5843Y-5.3843
X16.8343Y-2.2843
X16.8343Y-3.0343
X16.8343Y-3.7843
X16.8343Y-4.5343
X16.8343Y-5.2843
X17.3343Y-2.3843
X17.3343Y-3.5093
X17.3343Y-5.0093
X17.5843Y-2.2843
X17.5843Y-3.4093
X17.5843Y-4.9093
T5
X1.358Y-5.0581
X2.298Y-5.0581
X4.172Y-5.8081
X8.109Y-5.8081
X10.733Y-5.0581
X10.9205Y-4.3081
X11.0143Y-2.8081
X11.673Y-5.0581
X11.8605Y-4.3081
X11.9543Y-2.8081
X15.1393Y-5.8081
X16.0793Y-5.8081
X17.1604Y-3.1393
X17.1604Y-4.0793
X17.1604Y-4.6393
X17.1604Y-5.5793
T6
X1.3593Y-1.3593
X1.3593Y-2.4843
X1.453Y-5.4843
X1.5468Y-3.2343
X1.6405Y-3.9843
X1.828Y-4.7343
X2.1093Y-2.4843
X2.3905Y-5.4843
X2.4843Y-3.2343
X2.6718Y-3.9843
X2.8593Y-1.3593
X2.8593Y-2.4843
X3.0468Y-4.7343
X3.2343Y-3.2343
X3.328Y-5.4843
X3.4218Y-3.9843
X3.6093Y-1.3593
X3.6093Y-2.4843
X3.7968Y-4.7343
X3.9843Y-3.2343
X4.1718Y-3.9843
X4.3593Y-1.3593
X4.3593Y-2.4843
X4.5468Y-4.7343
X4.7343Y-3.2343
X4.9218Y-3.9843
X5.1093Y-1.3593
X5.1093Y-2.4843
X5.2968Y-4.7343
X5.4843Y-3.2343
X5.6718Y-3.9843
X5.8593Y-2.4843
X6.0468Y-4.7343
X6.1405Y-5.4843
X6.2343Y-1.3593
X6.2343Y-3.2343
X6.4218Y-3.9843
X6.6093Y-2.4843
X6.7968Y-4.7343
X6.9843Y-1.3593
X6.9843Y-3.2343
X7.1718Y-3.9843
X7.3593Y-2.4843
X7.5468Y-4.7343
X7.7343Y-1.3593
X7.7343Y-3.2343
X7.9218Y-3.9843
X8.1093Y-2.4843
X8.2968Y-4.7343
X8.4843Y-1.3593
X8.4843Y-3.2343
X8.6718Y-3.9843
X8.8593Y-2.4843
X8.953Y-5.4843
X9.0468Y-4.7343
X9.2343Y-3.2343
X9.4218Y-3.9843
X9.6093Y-1.3593
X9.6093Y-2.4843
X9.7968Y-4.7343
X9.8905Y-5.4843
X9.9843Y-3.2343
X10.1718Y-3.9843
X10.3593Y-1.3593
X10.3593Y-2.4843
X10.7343Y-3.2343
X10.828Y-5.4843
X11.1093Y-1.3593
X11.203Y-4.7343
X11.3905Y-3.9843
X11.4843Y-2.4843
X11.6718Y-3.2343
X11.7655Y-5.4843
X11.8593Y-1.3593
X12.7968Y-1.3593
X12.7968Y-2.4843
X12.7968Y-3.2343
X12.7968Y-5.4843
X13.5468Y-1.3593
X13.5468Y-2.4843
X13.5468Y-3.2343
X13.5468Y-4.7343
X13.5468Y-5.4843
X14.2968Y-1.3593
X14.2968Y-2.4843
X14.2968Y-3.2343
X14.2968Y-5.4843
X15.2343Y-2.4843
X15.2343Y-3.2343
X15.2343Y-3.9843
X15.2343Y-4.7343
X15.6093Y-5.4843
X15.9843Y-2.4843
X15.9843Y-3.2343
X15.9843Y-3.9843
X15.9843Y-4.7343
X16.7343Y-2.4843
X16.7343Y-3.2343
X16.7343Y-3.9843
X16.7343Y-4.7343
X16.7343Y-5.4843
X17.4843Y-2.4843
X17.4843Y-3.6093
X17.4843Y-5.1093
T0
M30
