%TF.GenerationSoftware,KiCad,Pcbnew,7.0.7*%
%TF.CreationDate,2024-02-20T17:11:52+02:00*%
%TF.ProjectId,keyboard,6b657962-6f61-4726-942e-6b696361645f,rev?*%
%TF.SameCoordinates,Original*%
%TF.FileFunction,Soldermask,Bot*%
%TF.FilePolarity,Negative*%
%FSLAX46Y46*%
G04 Gerber Fmt 4.6, Leading zero omitted, Abs format (unit mm)*
G04 Created by KiCad (PCBNEW 7.0.7) date 2024-02-20 17:11:52*
%MOMM*%
%LPD*%
G01*
G04 APERTURE LIST*
G04 Aperture macros list*
%AMRoundRect*
0 Rectangle with rounded corners*
0 $1 Rounding radius*
0 $2 $3 $4 $5 $6 $7 $8 $9 X,Y pos of 4 corners*
0 Add a 4 corners polygon primitive as box body*
4,1,4,$2,$3,$4,$5,$6,$7,$8,$9,$2,$3,0*
0 Add four circle primitives for the rounded corners*
1,1,$1+$1,$2,$3*
1,1,$1+$1,$4,$5*
1,1,$1+$1,$6,$7*
1,1,$1+$1,$8,$9*
0 Add four rect primitives between the rounded corners*
20,1,$1+$1,$2,$3,$4,$5,0*
20,1,$1+$1,$4,$5,$6,$7,0*
20,1,$1+$1,$6,$7,$8,$9,0*
20,1,$1+$1,$8,$9,$2,$3,0*%
G04 Aperture macros list end*
%ADD10C,3.048000*%
%ADD11C,3.987800*%
%ADD12RoundRect,0.082000X0.718000X-0.328000X0.718000X0.328000X-0.718000X0.328000X-0.718000X-0.328000X0*%
%ADD13C,1.750000*%
%ADD14C,3.050000*%
%ADD15C,4.000000*%
%ADD16RoundRect,0.250000X-1.025000X-1.000000X1.025000X-1.000000X1.025000X1.000000X-1.025000X1.000000X0*%
%ADD17R,1.700000X1.700000*%
%ADD18O,1.700000X1.700000*%
%ADD19RoundRect,0.225000X0.225000X0.250000X-0.225000X0.250000X-0.225000X-0.250000X0.225000X-0.250000X0*%
%ADD20RoundRect,0.243750X-0.456250X0.243750X-0.456250X-0.243750X0.456250X-0.243750X0.456250X0.243750X0*%
%ADD21RoundRect,0.250000X-0.262500X-0.450000X0.262500X-0.450000X0.262500X0.450000X-0.262500X0.450000X0*%
%ADD22C,0.650000*%
%ADD23R,0.600000X1.450000*%
%ADD24R,0.300000X1.450000*%
%ADD25O,1.000000X1.600000*%
%ADD26O,1.000000X2.100000*%
%ADD27R,1.700000X3.500000*%
%ADD28R,3.500000X1.700000*%
%ADD29RoundRect,0.437500X0.437500X-0.437500X0.437500X0.437500X-0.437500X0.437500X-0.437500X-0.437500X0*%
%ADD30RoundRect,0.243750X0.243750X0.456250X-0.243750X0.456250X-0.243750X-0.456250X0.243750X-0.456250X0*%
G04 APERTURE END LIST*
D10*
%TO.C,H5*%
X272618300Y-113265000D03*
D11*
X272618300Y-128475000D03*
D10*
X296494300Y-113265000D03*
D11*
X296494300Y-128475000D03*
%TD*%
D12*
%TO.C,L66*%
X184762500Y-107030000D03*
X184762500Y-105530000D03*
X179562500Y-105530000D03*
X179562500Y-107030000D03*
%TD*%
D13*
%TO.C,SW68*%
X215182500Y-101200000D03*
D14*
X216452500Y-98660000D03*
D15*
X220262500Y-101200000D03*
D14*
X222802500Y-96120000D03*
D13*
X225342500Y-101200000D03*
D16*
X213177500Y-98660000D03*
X226104500Y-96120000D03*
%TD*%
D13*
%TO.C,SW51*%
X291382500Y-82150000D03*
D14*
X292652500Y-79610000D03*
D15*
X296462500Y-82150000D03*
D14*
X299002500Y-77070000D03*
D13*
X301542500Y-82150000D03*
D16*
X289377500Y-79610000D03*
X302304500Y-77070000D03*
%TD*%
D12*
%TO.C,L63*%
X127612500Y-107030000D03*
X127612500Y-105530000D03*
X122412500Y-105530000D03*
X122412500Y-107030000D03*
%TD*%
D13*
%TO.C,SW53*%
X339007500Y-82150000D03*
D14*
X340277500Y-79610000D03*
D15*
X344087500Y-82150000D03*
D14*
X346627500Y-77070000D03*
D13*
X349167500Y-82150000D03*
D16*
X337002500Y-79610000D03*
X349929500Y-77070000D03*
%TD*%
D13*
%TO.C,SW72*%
X381870000Y-101200000D03*
D14*
X383140000Y-98660000D03*
D15*
X386950000Y-101200000D03*
D14*
X389490000Y-96120000D03*
D13*
X392030000Y-101200000D03*
D16*
X379865000Y-98660000D03*
X392792000Y-96120000D03*
%TD*%
D12*
%TO.C,L99*%
X301443800Y-145130000D03*
X301443800Y-143630000D03*
X296243800Y-143630000D03*
X296243800Y-145130000D03*
%TD*%
%TO.C,L29*%
X265725000Y-68930000D03*
X265725000Y-67430000D03*
X260525000Y-67430000D03*
X260525000Y-68930000D03*
%TD*%
%TO.C,L76*%
X79987500Y-126080000D03*
X79987500Y-124580000D03*
X74787500Y-124580000D03*
X74787500Y-126080000D03*
%TD*%
D13*
%TO.C,SW31*%
X319957500Y-63100000D03*
D14*
X321227500Y-60560000D03*
D15*
X325037500Y-63100000D03*
D14*
X327577500Y-58020000D03*
D13*
X330117500Y-63100000D03*
D16*
X317952500Y-60560000D03*
X330879500Y-58020000D03*
%TD*%
D17*
%TO.C,J1*%
X452000000Y-34200000D03*
D18*
X452000000Y-36740000D03*
X452000000Y-39280000D03*
X452000000Y-41820000D03*
%TD*%
D13*
%TO.C,SW1*%
X29445000Y-34525000D03*
D14*
X30715000Y-31985000D03*
D15*
X34525000Y-34525000D03*
D14*
X37065000Y-29445000D03*
D13*
X39605000Y-34525000D03*
D16*
X27440000Y-31985000D03*
X40367000Y-29445000D03*
%TD*%
D12*
%TO.C,L74*%
X427650000Y-107030000D03*
X427650000Y-105530000D03*
X422450000Y-105530000D03*
X422450000Y-107030000D03*
%TD*%
%TO.C,L83*%
X213337500Y-126080000D03*
X213337500Y-124580000D03*
X208137500Y-124580000D03*
X208137500Y-126080000D03*
%TD*%
D13*
%TO.C,SW10*%
X238995000Y-34525000D03*
D14*
X240265000Y-31985000D03*
D15*
X244075000Y-34525000D03*
D14*
X246615000Y-29445000D03*
D13*
X249155000Y-34525000D03*
D16*
X236990000Y-31985000D03*
X249917000Y-29445000D03*
%TD*%
D13*
%TO.C,SW19*%
X67545000Y-63100000D03*
D14*
X68815000Y-60560000D03*
D15*
X72625000Y-63100000D03*
D14*
X75165000Y-58020000D03*
D13*
X77705000Y-63100000D03*
D16*
X65540000Y-60560000D03*
X78467000Y-58020000D03*
%TD*%
D12*
%TO.C,L42*%
X122850000Y-87980000D03*
X122850000Y-86480000D03*
X117650000Y-86480000D03*
X117650000Y-87980000D03*
%TD*%
%TO.C,L33*%
X365737500Y-68930000D03*
X365737500Y-67430000D03*
X360537500Y-67430000D03*
X360537500Y-68930000D03*
%TD*%
%TO.C,L6*%
X160950000Y-40355000D03*
X160950000Y-38855000D03*
X155750000Y-38855000D03*
X155750000Y-40355000D03*
%TD*%
%TO.C,L43*%
X141900000Y-87980000D03*
X141900000Y-86480000D03*
X136700000Y-86480000D03*
X136700000Y-87980000D03*
%TD*%
%TO.C,L23*%
X151425000Y-68930000D03*
X151425000Y-67430000D03*
X146225000Y-67430000D03*
X146225000Y-68930000D03*
%TD*%
D13*
%TO.C,SW60*%
X62782500Y-101200000D03*
D14*
X64052500Y-98660000D03*
D15*
X67862500Y-101200000D03*
D14*
X70402500Y-96120000D03*
D13*
X72942500Y-101200000D03*
D16*
X60777500Y-98660000D03*
X73704500Y-96120000D03*
%TD*%
D13*
%TO.C,SW17*%
X29445000Y-63100000D03*
D14*
X30715000Y-60560000D03*
D15*
X34525000Y-63100000D03*
D14*
X37065000Y-58020000D03*
D13*
X39605000Y-63100000D03*
D16*
X27440000Y-60560000D03*
X40367000Y-58020000D03*
%TD*%
D10*
%TO.C,H8*%
X384537000Y-132315000D03*
D11*
X384537000Y-147525000D03*
D10*
X408413000Y-132315000D03*
D11*
X408413000Y-147525000D03*
%TD*%
D12*
%TO.C,L54*%
X365737500Y-87980000D03*
X365737500Y-86480000D03*
X360537500Y-86480000D03*
X360537500Y-87980000D03*
%TD*%
D13*
%TO.C,SW74*%
X419970000Y-101200000D03*
D14*
X421240000Y-98660000D03*
D15*
X425050000Y-101200000D03*
D14*
X427590000Y-96120000D03*
D13*
X430130000Y-101200000D03*
D16*
X417965000Y-98660000D03*
X430892000Y-96120000D03*
%TD*%
D12*
%TO.C,L2*%
X75225000Y-40355000D03*
X75225000Y-38855000D03*
X70025000Y-38855000D03*
X70025000Y-40355000D03*
%TD*%
D13*
%TO.C,SW69*%
X234232500Y-101200000D03*
D14*
X235502500Y-98660000D03*
D15*
X239312500Y-101200000D03*
D14*
X241852500Y-96120000D03*
D13*
X244392500Y-101200000D03*
D16*
X232227500Y-98660000D03*
X245154500Y-96120000D03*
%TD*%
D12*
%TO.C,L61*%
X89512500Y-107030000D03*
X89512500Y-105530000D03*
X84312500Y-105530000D03*
X84312500Y-107030000D03*
%TD*%
D13*
%TO.C,SW87*%
X339007500Y-120250000D03*
D14*
X340277500Y-117710000D03*
D15*
X344087500Y-120250000D03*
D14*
X346627500Y-115170000D03*
D13*
X349167500Y-120250000D03*
D16*
X337002500Y-117710000D03*
X349929500Y-115170000D03*
%TD*%
D13*
%TO.C,SW96*%
X222326300Y-139300000D03*
D14*
X223596300Y-136760000D03*
D15*
X227406300Y-139300000D03*
D14*
X229946300Y-134220000D03*
D13*
X232486300Y-139300000D03*
D16*
X220321300Y-136760000D03*
X233248300Y-134220000D03*
%TD*%
D12*
%TO.C,L88*%
X389550000Y-126080000D03*
X389550000Y-124580000D03*
X384350000Y-124580000D03*
X384350000Y-126080000D03*
%TD*%
D13*
%TO.C,SW83*%
X205657500Y-120250000D03*
D14*
X206927500Y-117710000D03*
D15*
X210737500Y-120250000D03*
D14*
X213277500Y-115170000D03*
D13*
X215817500Y-120250000D03*
D16*
X203652500Y-117710000D03*
X216579500Y-115170000D03*
%TD*%
D13*
%TO.C,SW15*%
X339007500Y-34525000D03*
D14*
X340277500Y-31985000D03*
D15*
X344087500Y-34525000D03*
D14*
X346627500Y-29445000D03*
D13*
X349167500Y-34525000D03*
D16*
X337002500Y-31985000D03*
X349929500Y-29445000D03*
%TD*%
D13*
%TO.C,SW6*%
X153270000Y-34525000D03*
D14*
X154540000Y-31985000D03*
D15*
X158350000Y-34525000D03*
D14*
X160890000Y-29445000D03*
D13*
X163430000Y-34525000D03*
D16*
X151265000Y-31985000D03*
X164192000Y-29445000D03*
%TD*%
D12*
%TO.C,L81*%
X175237500Y-126080000D03*
X175237500Y-124580000D03*
X170037500Y-124580000D03*
X170037500Y-126080000D03*
%TD*%
%TO.C,L86*%
X287156300Y-126080000D03*
X287156300Y-124580000D03*
X281956300Y-124580000D03*
X281956300Y-126080000D03*
%TD*%
%TO.C,L64*%
X146662500Y-107030000D03*
X146662500Y-105530000D03*
X141462500Y-105530000D03*
X141462500Y-107030000D03*
%TD*%
D13*
%TO.C,SW76*%
X72307500Y-120250000D03*
D14*
X73577500Y-117710000D03*
D15*
X77387500Y-120250000D03*
D14*
X79927500Y-115170000D03*
D13*
X82467500Y-120250000D03*
D16*
X70302500Y-117710000D03*
X83229500Y-115170000D03*
%TD*%
D13*
%TO.C,SW67*%
X196132500Y-101200000D03*
D14*
X197402500Y-98660000D03*
D15*
X201212500Y-101200000D03*
D14*
X203752500Y-96120000D03*
D13*
X206292500Y-101200000D03*
D16*
X194127500Y-98660000D03*
X207054500Y-96120000D03*
%TD*%
D13*
%TO.C,SW35*%
X400920000Y-63100000D03*
D14*
X402190000Y-60560000D03*
D15*
X406000000Y-63100000D03*
D14*
X408540000Y-58020000D03*
D13*
X411080000Y-63100000D03*
D16*
X398915000Y-60560000D03*
X411842000Y-58020000D03*
%TD*%
D13*
%TO.C,SW78*%
X110407500Y-120250000D03*
D14*
X111677500Y-117710000D03*
D15*
X115487500Y-120250000D03*
D14*
X118027500Y-115170000D03*
D13*
X120567500Y-120250000D03*
D16*
X108402500Y-117710000D03*
X121329500Y-115170000D03*
%TD*%
D12*
%TO.C,L98*%
X277631300Y-145130000D03*
X277631300Y-143630000D03*
X272431300Y-143630000D03*
X272431300Y-145130000D03*
%TD*%
D13*
%TO.C,SW43*%
X134220000Y-82150000D03*
D14*
X135490000Y-79610000D03*
D15*
X139300000Y-82150000D03*
D14*
X141840000Y-77070000D03*
D13*
X144380000Y-82150000D03*
D16*
X132215000Y-79610000D03*
X145142000Y-77070000D03*
%TD*%
D12*
%TO.C,L91*%
X446700000Y-135605000D03*
X446700000Y-134105000D03*
X441500000Y-134105000D03*
X441500000Y-135605000D03*
%TD*%
%TO.C,L21*%
X113325000Y-68930000D03*
X113325000Y-67430000D03*
X108125000Y-67430000D03*
X108125000Y-68930000D03*
%TD*%
D13*
%TO.C,SW40*%
X77070000Y-82150000D03*
D14*
X78340000Y-79610000D03*
D15*
X82150000Y-82150000D03*
D14*
X84690000Y-77070000D03*
D13*
X87230000Y-82150000D03*
D16*
X75065000Y-79610000D03*
X87992000Y-77070000D03*
%TD*%
D13*
%TO.C,SW12*%
X277095000Y-34525000D03*
D14*
X278365000Y-31985000D03*
D15*
X282175000Y-34525000D03*
D14*
X284715000Y-29445000D03*
D13*
X287255000Y-34525000D03*
D16*
X275090000Y-31985000D03*
X288017000Y-29445000D03*
%TD*%
D13*
%TO.C,SW86*%
X279476300Y-120250000D03*
D14*
X280746300Y-117710000D03*
D15*
X284556300Y-120250000D03*
D14*
X287096300Y-115170000D03*
D13*
X289636300Y-120250000D03*
D16*
X277471300Y-117710000D03*
X290398300Y-115170000D03*
%TD*%
D13*
%TO.C,SW21*%
X105645000Y-63100000D03*
D14*
X106915000Y-60560000D03*
D15*
X110725000Y-63100000D03*
D14*
X113265000Y-58020000D03*
D13*
X115805000Y-63100000D03*
D16*
X103640000Y-60560000D03*
X116567000Y-58020000D03*
%TD*%
D12*
%TO.C,L95*%
X158568800Y-145130000D03*
X158568800Y-143630000D03*
X153368800Y-143630000D03*
X153368800Y-145130000D03*
%TD*%
%TO.C,L41*%
X103800000Y-87980000D03*
X103800000Y-86480000D03*
X98600000Y-86480000D03*
X98600000Y-87980000D03*
%TD*%
%TO.C,L65*%
X165712500Y-107030000D03*
X165712500Y-105530000D03*
X160512500Y-105530000D03*
X160512500Y-107030000D03*
%TD*%
%TO.C,L20*%
X94275000Y-68930000D03*
X94275000Y-67430000D03*
X89075000Y-67430000D03*
X89075000Y-68930000D03*
%TD*%
%TO.C,L1*%
X37125000Y-40355000D03*
X37125000Y-38855000D03*
X31925000Y-38855000D03*
X31925000Y-40355000D03*
%TD*%
%TO.C,L18*%
X56175000Y-68930000D03*
X56175000Y-67430000D03*
X50975000Y-67430000D03*
X50975000Y-68930000D03*
%TD*%
D13*
%TO.C,SW29*%
X258045000Y-63100000D03*
D14*
X259315000Y-60560000D03*
D15*
X263125000Y-63100000D03*
D14*
X265665000Y-58020000D03*
D13*
X268205000Y-63100000D03*
D16*
X256040000Y-60560000D03*
X268967000Y-58020000D03*
%TD*%
D13*
%TO.C,SW7*%
X172320000Y-34525000D03*
D14*
X173590000Y-31985000D03*
D15*
X177400000Y-34525000D03*
D14*
X179940000Y-29445000D03*
D13*
X182480000Y-34525000D03*
D16*
X170315000Y-31985000D03*
X183242000Y-29445000D03*
%TD*%
D13*
%TO.C,SW32*%
X339007500Y-63100000D03*
D14*
X340277500Y-60560000D03*
D15*
X344087500Y-63100000D03*
D14*
X346627500Y-58020000D03*
D13*
X349167500Y-63100000D03*
D16*
X337002500Y-60560000D03*
X349929500Y-58020000D03*
%TD*%
D10*
%TO.C,H7*%
X105968800Y-132315000D03*
D11*
X105968800Y-147525000D03*
D10*
X205968800Y-132315000D03*
D11*
X205968800Y-147525000D03*
%TD*%
D13*
%TO.C,SW91*%
X439020000Y-129775000D03*
D14*
X440290000Y-127235000D03*
D15*
X444100000Y-129775000D03*
D14*
X446640000Y-124695000D03*
D13*
X449180000Y-129775000D03*
D16*
X437015000Y-127235000D03*
X449942000Y-124695000D03*
%TD*%
D12*
%TO.C,L79*%
X137137500Y-126080000D03*
X137137500Y-124580000D03*
X131937500Y-124580000D03*
X131937500Y-126080000D03*
%TD*%
D13*
%TO.C,SW37*%
X439020000Y-63100000D03*
D14*
X440290000Y-60560000D03*
D15*
X444100000Y-63100000D03*
D14*
X446640000Y-58020000D03*
D13*
X449180000Y-63100000D03*
D16*
X437015000Y-60560000D03*
X449942000Y-58020000D03*
%TD*%
D13*
%TO.C,SW84*%
X224707500Y-120250000D03*
D14*
X225977500Y-117710000D03*
D15*
X229787500Y-120250000D03*
D14*
X232327500Y-115170000D03*
D13*
X234867500Y-120250000D03*
D16*
X222702500Y-117710000D03*
X235629500Y-115170000D03*
%TD*%
D12*
%TO.C,L51*%
X299062500Y-87980000D03*
X299062500Y-86480000D03*
X293862500Y-86480000D03*
X293862500Y-87980000D03*
%TD*%
D13*
%TO.C,SW85*%
X243757500Y-120250000D03*
D14*
X245027500Y-117710000D03*
D15*
X248837500Y-120250000D03*
D14*
X251377500Y-115170000D03*
D13*
X253917500Y-120250000D03*
D16*
X241752500Y-117710000D03*
X254679500Y-115170000D03*
%TD*%
D12*
%TO.C,L7*%
X180000000Y-40355000D03*
X180000000Y-38855000D03*
X174800000Y-38855000D03*
X174800000Y-40355000D03*
%TD*%
%TO.C,L101*%
X346687500Y-145130000D03*
X346687500Y-143630000D03*
X341487500Y-143630000D03*
X341487500Y-145130000D03*
%TD*%
D13*
%TO.C,SW22*%
X124695000Y-63100000D03*
D14*
X125965000Y-60560000D03*
D15*
X129775000Y-63100000D03*
D14*
X132315000Y-58020000D03*
D13*
X134855000Y-63100000D03*
D16*
X122690000Y-60560000D03*
X135617000Y-58020000D03*
%TD*%
D13*
%TO.C,SW38*%
X34207500Y-82150000D03*
D14*
X35477500Y-79610000D03*
D15*
X39287500Y-82150000D03*
D14*
X41827500Y-77070000D03*
D13*
X44367500Y-82150000D03*
D16*
X32202500Y-79610000D03*
X45129500Y-77070000D03*
%TD*%
D13*
%TO.C,SW61*%
X81832500Y-101200000D03*
D14*
X83102500Y-98660000D03*
D15*
X86912500Y-101200000D03*
D14*
X89452500Y-96120000D03*
D13*
X91992500Y-101200000D03*
D16*
X79827500Y-98660000D03*
X92754500Y-96120000D03*
%TD*%
D13*
%TO.C,SW54*%
X358057500Y-82150000D03*
D14*
X359327500Y-79610000D03*
D15*
X363137500Y-82150000D03*
D14*
X365677500Y-77070000D03*
D13*
X368217500Y-82150000D03*
D16*
X356052500Y-79610000D03*
X368979500Y-77070000D03*
%TD*%
D12*
%TO.C,L40*%
X84750000Y-87980000D03*
X84750000Y-86480000D03*
X79550000Y-86480000D03*
X79550000Y-87980000D03*
%TD*%
D13*
%TO.C,SW28*%
X238995000Y-63100000D03*
D14*
X240265000Y-60560000D03*
D15*
X244075000Y-63100000D03*
D14*
X246615000Y-58020000D03*
D13*
X249155000Y-63100000D03*
D16*
X236990000Y-60560000D03*
X249917000Y-58020000D03*
%TD*%
D12*
%TO.C,L62*%
X108562500Y-107030000D03*
X108562500Y-105530000D03*
X103362500Y-105530000D03*
X103362500Y-107030000D03*
%TD*%
%TO.C,L45*%
X180000000Y-87980000D03*
X180000000Y-86480000D03*
X174800000Y-86480000D03*
X174800000Y-87980000D03*
%TD*%
%TO.C,L70*%
X260962500Y-107030000D03*
X260962500Y-105530000D03*
X255762500Y-105530000D03*
X255762500Y-107030000D03*
%TD*%
D13*
%TO.C,SW65*%
X158032500Y-101200000D03*
D14*
X159302500Y-98660000D03*
D15*
X163112500Y-101200000D03*
D14*
X165652500Y-96120000D03*
D13*
X168192500Y-101200000D03*
D16*
X156027500Y-98660000D03*
X168954500Y-96120000D03*
%TD*%
D13*
%TO.C,SW59*%
X36588800Y-101200000D03*
D14*
X37858800Y-98660000D03*
D15*
X41668800Y-101200000D03*
D14*
X44208800Y-96120000D03*
D13*
X46748800Y-101200000D03*
D16*
X34583800Y-98660000D03*
X47510800Y-96120000D03*
%TD*%
D12*
%TO.C,L12*%
X284775000Y-40355000D03*
X284775000Y-38855000D03*
X279575000Y-38855000D03*
X279575000Y-40355000D03*
%TD*%
%TO.C,L25*%
X189525000Y-68930000D03*
X189525000Y-67430000D03*
X184325000Y-67430000D03*
X184325000Y-68930000D03*
%TD*%
D13*
%TO.C,SW55*%
X381870000Y-82150000D03*
D14*
X383140000Y-79610000D03*
D15*
X386950000Y-82150000D03*
D14*
X389490000Y-77070000D03*
D13*
X392030000Y-82150000D03*
D16*
X379865000Y-79610000D03*
X392792000Y-77070000D03*
%TD*%
D13*
%TO.C,SW64*%
X138982500Y-101200000D03*
D14*
X140252500Y-98660000D03*
D15*
X144062500Y-101200000D03*
D14*
X146602500Y-96120000D03*
D13*
X149142500Y-101200000D03*
D16*
X136977500Y-98660000D03*
X149904500Y-96120000D03*
%TD*%
D13*
%TO.C,SW30*%
X286620000Y-63100000D03*
D14*
X287890000Y-60560000D03*
D15*
X291700000Y-63100000D03*
D14*
X294240000Y-58020000D03*
D13*
X296780000Y-63100000D03*
D16*
X284615000Y-60560000D03*
X297542000Y-58020000D03*
%TD*%
D12*
%TO.C,L55*%
X389550000Y-87980000D03*
X389550000Y-86480000D03*
X384350000Y-86480000D03*
X384350000Y-87980000D03*
%TD*%
%TO.C,L80*%
X156187500Y-126080000D03*
X156187500Y-124580000D03*
X150987500Y-124580000D03*
X150987500Y-126080000D03*
%TD*%
D13*
%TO.C,SW99*%
X293763800Y-139300000D03*
D14*
X295033800Y-136760000D03*
D15*
X298843800Y-139300000D03*
D14*
X301383800Y-134220000D03*
D13*
X303923800Y-139300000D03*
D16*
X291758800Y-136760000D03*
X304685800Y-134220000D03*
%TD*%
D12*
%TO.C,L103*%
X399075000Y-145130000D03*
X399075000Y-143630000D03*
X393875000Y-143630000D03*
X393875000Y-145130000D03*
%TD*%
D13*
%TO.C,SW75*%
X41351300Y-120250000D03*
D14*
X42621300Y-117710000D03*
D15*
X46431300Y-120250000D03*
D14*
X48971300Y-115170000D03*
D13*
X51511300Y-120250000D03*
D16*
X39346300Y-117710000D03*
X52273300Y-115170000D03*
%TD*%
D12*
%TO.C,L37*%
X446700000Y-68930000D03*
X446700000Y-67430000D03*
X441500000Y-67430000D03*
X441500000Y-68930000D03*
%TD*%
D13*
%TO.C,SW8*%
X191370000Y-34525000D03*
D14*
X192640000Y-31985000D03*
D15*
X196450000Y-34525000D03*
D14*
X198990000Y-29445000D03*
D13*
X201530000Y-34525000D03*
D16*
X189365000Y-31985000D03*
X202292000Y-29445000D03*
%TD*%
D12*
%TO.C,L38*%
X41887500Y-87980000D03*
X41887500Y-86480000D03*
X36687500Y-86480000D03*
X36687500Y-87980000D03*
%TD*%
D13*
%TO.C,SW26*%
X200895000Y-63100000D03*
D14*
X202165000Y-60560000D03*
D15*
X205975000Y-63100000D03*
D14*
X208515000Y-58020000D03*
D13*
X211055000Y-63100000D03*
D16*
X198890000Y-60560000D03*
X211817000Y-58020000D03*
%TD*%
D13*
%TO.C,SW70*%
X253282500Y-101200000D03*
D14*
X254552500Y-98660000D03*
D15*
X258362500Y-101200000D03*
D14*
X260902500Y-96120000D03*
D13*
X263442500Y-101200000D03*
D16*
X251277500Y-98660000D03*
X264204500Y-96120000D03*
%TD*%
D12*
%TO.C,L67*%
X203812500Y-107030000D03*
X203812500Y-105530000D03*
X198612500Y-105530000D03*
X198612500Y-107030000D03*
%TD*%
%TO.C,L97*%
X253818800Y-145130000D03*
X253818800Y-143630000D03*
X248618800Y-143630000D03*
X248618800Y-145130000D03*
%TD*%
%TO.C,L46*%
X199050000Y-87980000D03*
X199050000Y-86480000D03*
X193850000Y-86480000D03*
X193850000Y-87980000D03*
%TD*%
%TO.C,L77*%
X99037500Y-126080000D03*
X99037500Y-124580000D03*
X93837500Y-124580000D03*
X93837500Y-126080000D03*
%TD*%
%TO.C,L27*%
X227625000Y-68930000D03*
X227625000Y-67430000D03*
X222425000Y-67430000D03*
X222425000Y-68930000D03*
%TD*%
D13*
%TO.C,SW104*%
X419970000Y-139300000D03*
D14*
X421240000Y-136760000D03*
D15*
X425050000Y-139300000D03*
D14*
X427590000Y-134220000D03*
D13*
X430130000Y-139300000D03*
D16*
X417965000Y-136760000D03*
X430892000Y-134220000D03*
%TD*%
D10*
%TO.C,H3*%
X277380800Y-94215000D03*
D11*
X277380800Y-109425000D03*
D10*
X301256800Y-94215000D03*
D11*
X301256800Y-109425000D03*
%TD*%
D12*
%TO.C,L36*%
X427650000Y-68930000D03*
X427650000Y-67430000D03*
X422450000Y-67430000D03*
X422450000Y-68930000D03*
%TD*%
%TO.C,L89*%
X408600000Y-126080000D03*
X408600000Y-124580000D03*
X403400000Y-124580000D03*
X403400000Y-126080000D03*
%TD*%
%TO.C,L39*%
X65700000Y-87980000D03*
X65700000Y-86480000D03*
X60500000Y-86480000D03*
X60500000Y-87980000D03*
%TD*%
D13*
%TO.C,SW46*%
X191370000Y-82150000D03*
D14*
X192640000Y-79610000D03*
D15*
X196450000Y-82150000D03*
D14*
X198990000Y-77070000D03*
D13*
X201530000Y-82150000D03*
D16*
X189365000Y-79610000D03*
X202292000Y-77070000D03*
%TD*%
D10*
%TO.C,H1*%
X279762000Y-56115000D03*
D11*
X279762000Y-71325000D03*
D10*
X303638000Y-56115000D03*
D11*
X303638000Y-71325000D03*
%TD*%
D12*
%TO.C,L15*%
X346687500Y-40355000D03*
X346687500Y-38855000D03*
X341487500Y-38855000D03*
X341487500Y-40355000D03*
%TD*%
%TO.C,L19*%
X75225000Y-68930000D03*
X75225000Y-67430000D03*
X70025000Y-67430000D03*
X70025000Y-68930000D03*
%TD*%
D13*
%TO.C,SW33*%
X358057500Y-63100000D03*
D14*
X359327500Y-60560000D03*
D15*
X363137500Y-63100000D03*
D14*
X365677500Y-58020000D03*
D13*
X368217500Y-63100000D03*
D16*
X356052500Y-60560000D03*
X368979500Y-58020000D03*
%TD*%
D13*
%TO.C,SW103*%
X391395000Y-139300000D03*
D14*
X392665000Y-136760000D03*
D15*
X396475000Y-139300000D03*
D14*
X399015000Y-134220000D03*
D13*
X401555000Y-139300000D03*
D16*
X389390000Y-136760000D03*
X402317000Y-134220000D03*
%TD*%
D13*
%TO.C,SW44*%
X153270000Y-82150000D03*
D14*
X154540000Y-79610000D03*
D15*
X158350000Y-82150000D03*
D14*
X160890000Y-77070000D03*
D13*
X163430000Y-82150000D03*
D16*
X151265000Y-79610000D03*
X164192000Y-77070000D03*
%TD*%
D12*
%TO.C,L14*%
X327637500Y-40355000D03*
X327637500Y-38855000D03*
X322437500Y-38855000D03*
X322437500Y-40355000D03*
%TD*%
D13*
%TO.C,SW101*%
X339007500Y-139300000D03*
D14*
X340277500Y-136760000D03*
D15*
X344087500Y-139300000D03*
D14*
X346627500Y-134220000D03*
D13*
X349167500Y-139300000D03*
D16*
X337002500Y-136760000D03*
X349929500Y-134220000D03*
%TD*%
D10*
%TO.C,H4*%
X34493300Y-113265000D03*
D11*
X34493300Y-128475000D03*
D10*
X58369300Y-113265000D03*
D11*
X58369300Y-128475000D03*
%TD*%
D12*
%TO.C,L50*%
X275250000Y-87980000D03*
X275250000Y-86480000D03*
X270050000Y-86480000D03*
X270050000Y-87980000D03*
%TD*%
%TO.C,L26*%
X208575000Y-68930000D03*
X208575000Y-67430000D03*
X203375000Y-67430000D03*
X203375000Y-68930000D03*
%TD*%
%TO.C,L69*%
X241912500Y-107030000D03*
X241912500Y-105530000D03*
X236712500Y-105530000D03*
X236712500Y-107030000D03*
%TD*%
D13*
%TO.C,SW100*%
X319957500Y-139300000D03*
D14*
X321227500Y-136760000D03*
D15*
X325037500Y-139300000D03*
D14*
X327577500Y-134220000D03*
D13*
X330117500Y-139300000D03*
D16*
X317952500Y-136760000D03*
X330879500Y-134220000D03*
%TD*%
D12*
%TO.C,L9*%
X218100000Y-40355000D03*
X218100000Y-38855000D03*
X212900000Y-38855000D03*
X212900000Y-40355000D03*
%TD*%
%TO.C,L31*%
X327637500Y-68930000D03*
X327637500Y-67430000D03*
X322437500Y-67430000D03*
X322437500Y-68930000D03*
%TD*%
D13*
%TO.C,SW66*%
X177082500Y-101200000D03*
D14*
X178352500Y-98660000D03*
D15*
X182162500Y-101200000D03*
D14*
X184702500Y-96120000D03*
D13*
X187242500Y-101200000D03*
D16*
X175077500Y-98660000D03*
X188004500Y-96120000D03*
%TD*%
D12*
%TO.C,L84*%
X232387500Y-126080000D03*
X232387500Y-124580000D03*
X227187500Y-124580000D03*
X227187500Y-126080000D03*
%TD*%
%TO.C,L4*%
X113325000Y-40355000D03*
X113325000Y-38855000D03*
X108125000Y-38855000D03*
X108125000Y-40355000D03*
%TD*%
%TO.C,L10*%
X246675000Y-40355000D03*
X246675000Y-38855000D03*
X241475000Y-38855000D03*
X241475000Y-40355000D03*
%TD*%
D13*
%TO.C,SW58*%
X439020000Y-91675000D03*
D14*
X440290000Y-89135000D03*
D15*
X444100000Y-91675000D03*
D14*
X446640000Y-86595000D03*
D13*
X449180000Y-91675000D03*
D16*
X437015000Y-89135000D03*
X449942000Y-86595000D03*
%TD*%
D12*
%TO.C,L93*%
X63318800Y-145130000D03*
X63318800Y-143630000D03*
X58118800Y-143630000D03*
X58118800Y-145130000D03*
%TD*%
D13*
%TO.C,SW5*%
X124695000Y-34525000D03*
D14*
X125965000Y-31985000D03*
D15*
X129775000Y-34525000D03*
D14*
X132315000Y-29445000D03*
D13*
X134855000Y-34525000D03*
D16*
X122690000Y-31985000D03*
X135617000Y-29445000D03*
%TD*%
D10*
%TO.C,H2*%
X451085000Y-79737000D03*
D11*
X435875000Y-79737000D03*
D10*
X451085000Y-103613000D03*
D11*
X435875000Y-103613000D03*
%TD*%
D12*
%TO.C,L16*%
X365737500Y-40355000D03*
X365737500Y-38855000D03*
X360537500Y-38855000D03*
X360537500Y-40355000D03*
%TD*%
D13*
%TO.C,SW48*%
X229470000Y-82150000D03*
D14*
X230740000Y-79610000D03*
D15*
X234550000Y-82150000D03*
D14*
X237090000Y-77070000D03*
D13*
X239630000Y-82150000D03*
D16*
X227465000Y-79610000D03*
X240392000Y-77070000D03*
%TD*%
D12*
%TO.C,L30*%
X294300000Y-68930000D03*
X294300000Y-67430000D03*
X289100000Y-67430000D03*
X289100000Y-68930000D03*
%TD*%
%TO.C,L78*%
X118087500Y-126080000D03*
X118087500Y-124580000D03*
X112887500Y-124580000D03*
X112887500Y-126080000D03*
%TD*%
%TO.C,L96*%
X230006300Y-145130000D03*
X230006300Y-143630000D03*
X224806300Y-143630000D03*
X224806300Y-145130000D03*
%TD*%
%TO.C,L56*%
X408600000Y-87980000D03*
X408600000Y-86480000D03*
X403400000Y-86480000D03*
X403400000Y-87980000D03*
%TD*%
D13*
%TO.C,SW39*%
X58020000Y-82150000D03*
D14*
X59290000Y-79610000D03*
D15*
X63100000Y-82150000D03*
D14*
X65640000Y-77070000D03*
D13*
X68180000Y-82150000D03*
D16*
X56015000Y-79610000D03*
X68942000Y-77070000D03*
%TD*%
D13*
%TO.C,SW77*%
X91357500Y-120250000D03*
D14*
X92627500Y-117710000D03*
D15*
X96437500Y-120250000D03*
D14*
X98977500Y-115170000D03*
D13*
X101517500Y-120250000D03*
D16*
X89352500Y-117710000D03*
X102279500Y-115170000D03*
%TD*%
D12*
%TO.C,L102*%
X365737500Y-145130000D03*
X365737500Y-143630000D03*
X360537500Y-143630000D03*
X360537500Y-145130000D03*
%TD*%
%TO.C,L71*%
X291918800Y-107030000D03*
X291918800Y-105530000D03*
X286718800Y-105530000D03*
X286718800Y-107030000D03*
%TD*%
D13*
%TO.C,SW73*%
X400920000Y-101200000D03*
D14*
X402190000Y-98660000D03*
D15*
X406000000Y-101200000D03*
D14*
X408540000Y-96120000D03*
D13*
X411080000Y-101200000D03*
D16*
X398915000Y-98660000D03*
X411842000Y-96120000D03*
%TD*%
D13*
%TO.C,SW95*%
X150888800Y-139300000D03*
D14*
X152158800Y-136760000D03*
D15*
X155968800Y-139300000D03*
D14*
X158508800Y-134220000D03*
D13*
X161048800Y-139300000D03*
D16*
X148883800Y-136760000D03*
X161810800Y-134220000D03*
%TD*%
D13*
%TO.C,SW79*%
X129457500Y-120250000D03*
D14*
X130727500Y-117710000D03*
D15*
X134537500Y-120250000D03*
D14*
X137077500Y-115170000D03*
D13*
X139617500Y-120250000D03*
D16*
X127452500Y-117710000D03*
X140379500Y-115170000D03*
%TD*%
D12*
%TO.C,L32*%
X346687500Y-68930000D03*
X346687500Y-67430000D03*
X341487500Y-67430000D03*
X341487500Y-68930000D03*
%TD*%
D13*
%TO.C,SW93*%
X55638800Y-139300000D03*
D14*
X56908800Y-136760000D03*
D15*
X60718800Y-139300000D03*
D14*
X63258800Y-134220000D03*
D13*
X65798800Y-139300000D03*
D16*
X53633800Y-136760000D03*
X66560800Y-134220000D03*
%TD*%
D13*
%TO.C,SW62*%
X100882500Y-101200000D03*
D14*
X102152500Y-98660000D03*
D15*
X105962500Y-101200000D03*
D14*
X108502500Y-96120000D03*
D13*
X111042500Y-101200000D03*
D16*
X98877500Y-98660000D03*
X111804500Y-96120000D03*
%TD*%
D13*
%TO.C,SW88*%
X381870000Y-120250000D03*
D14*
X383140000Y-117710000D03*
D15*
X386950000Y-120250000D03*
D14*
X389490000Y-115170000D03*
D13*
X392030000Y-120250000D03*
D16*
X379865000Y-117710000D03*
X392792000Y-115170000D03*
%TD*%
D13*
%TO.C,SW82*%
X186607500Y-120250000D03*
D14*
X187877500Y-117710000D03*
D15*
X191687500Y-120250000D03*
D14*
X194227500Y-115170000D03*
D13*
X196767500Y-120250000D03*
D16*
X184602500Y-117710000D03*
X197529500Y-115170000D03*
%TD*%
D12*
%TO.C,L28*%
X246675000Y-68930000D03*
X246675000Y-67430000D03*
X241475000Y-67430000D03*
X241475000Y-68930000D03*
%TD*%
D13*
%TO.C,SW25*%
X181845000Y-63100000D03*
D14*
X183115000Y-60560000D03*
D15*
X186925000Y-63100000D03*
D14*
X189465000Y-58020000D03*
D13*
X192005000Y-63100000D03*
D16*
X179840000Y-60560000D03*
X192767000Y-58020000D03*
%TD*%
D12*
%TO.C,L48*%
X237150000Y-87980000D03*
X237150000Y-86480000D03*
X231950000Y-86480000D03*
X231950000Y-87980000D03*
%TD*%
D10*
%TO.C,H6*%
X451085000Y-117837000D03*
D11*
X435875000Y-117837000D03*
D10*
X451085000Y-141713000D03*
D11*
X435875000Y-141713000D03*
%TD*%
D13*
%TO.C,SW41*%
X96120000Y-82150000D03*
D14*
X97390000Y-79610000D03*
D15*
X101200000Y-82150000D03*
D14*
X103740000Y-77070000D03*
D13*
X106280000Y-82150000D03*
D16*
X94115000Y-79610000D03*
X107042000Y-77070000D03*
%TD*%
D12*
%TO.C,L35*%
X408600000Y-68930000D03*
X408600000Y-67430000D03*
X403400000Y-67430000D03*
X403400000Y-68930000D03*
%TD*%
%TO.C,L94*%
X87131300Y-145130000D03*
X87131300Y-143630000D03*
X81931300Y-143630000D03*
X81931300Y-145130000D03*
%TD*%
%TO.C,L90*%
X427650000Y-126080000D03*
X427650000Y-124580000D03*
X422450000Y-124580000D03*
X422450000Y-126080000D03*
%TD*%
%TO.C,L57*%
X427650000Y-87980000D03*
X427650000Y-86480000D03*
X422450000Y-86480000D03*
X422450000Y-87980000D03*
%TD*%
D13*
%TO.C,SW80*%
X148507500Y-120250000D03*
D14*
X149777500Y-117710000D03*
D15*
X153587500Y-120250000D03*
D14*
X156127500Y-115170000D03*
D13*
X158667500Y-120250000D03*
D16*
X146502500Y-117710000D03*
X159429500Y-115170000D03*
%TD*%
D13*
%TO.C,SW27*%
X219945000Y-63100000D03*
D14*
X221215000Y-60560000D03*
D15*
X225025000Y-63100000D03*
D14*
X227565000Y-58020000D03*
D13*
X230105000Y-63100000D03*
D16*
X217940000Y-60560000D03*
X230867000Y-58020000D03*
%TD*%
D13*
%TO.C,SW92*%
X31826300Y-139300000D03*
D14*
X33096300Y-136760000D03*
D15*
X36906300Y-139300000D03*
D14*
X39446300Y-134220000D03*
D13*
X41986300Y-139300000D03*
D16*
X29821300Y-136760000D03*
X42748300Y-134220000D03*
%TD*%
D12*
%TO.C,L53*%
X346687500Y-87980000D03*
X346687500Y-86480000D03*
X341487500Y-86480000D03*
X341487500Y-87980000D03*
%TD*%
%TO.C,L17*%
X37125000Y-68930000D03*
X37125000Y-67430000D03*
X31925000Y-67430000D03*
X31925000Y-68930000D03*
%TD*%
D13*
%TO.C,SW90*%
X419970000Y-120250000D03*
D14*
X421240000Y-117710000D03*
D15*
X425050000Y-120250000D03*
D14*
X427590000Y-115170000D03*
D13*
X430130000Y-120250000D03*
D16*
X417965000Y-117710000D03*
X430892000Y-115170000D03*
%TD*%
D12*
%TO.C,L75*%
X49031300Y-126080000D03*
X49031300Y-124580000D03*
X43831300Y-124580000D03*
X43831300Y-126080000D03*
%TD*%
%TO.C,L13*%
X303825000Y-40355000D03*
X303825000Y-38855000D03*
X298625000Y-38855000D03*
X298625000Y-40355000D03*
%TD*%
D13*
%TO.C,SW49*%
X248520000Y-82150000D03*
D14*
X249790000Y-79610000D03*
D15*
X253600000Y-82150000D03*
D14*
X256140000Y-77070000D03*
D13*
X258680000Y-82150000D03*
D16*
X246515000Y-79610000D03*
X259442000Y-77070000D03*
%TD*%
D13*
%TO.C,SW42*%
X115170000Y-82150000D03*
D14*
X116440000Y-79610000D03*
D15*
X120250000Y-82150000D03*
D14*
X122790000Y-77070000D03*
D13*
X125330000Y-82150000D03*
D16*
X113165000Y-79610000D03*
X126092000Y-77070000D03*
%TD*%
D12*
%TO.C,L52*%
X327637500Y-87980000D03*
X327637500Y-86480000D03*
X322437500Y-86480000D03*
X322437500Y-87980000D03*
%TD*%
%TO.C,L22*%
X132375000Y-68930000D03*
X132375000Y-67430000D03*
X127175000Y-67430000D03*
X127175000Y-68930000D03*
%TD*%
D13*
%TO.C,SW36*%
X419970000Y-63100000D03*
D14*
X421240000Y-60560000D03*
D15*
X425050000Y-63100000D03*
D14*
X427590000Y-58020000D03*
D13*
X430130000Y-63100000D03*
D16*
X417965000Y-60560000D03*
X430892000Y-58020000D03*
%TD*%
D13*
%TO.C,SW16*%
X358057500Y-34525000D03*
D14*
X359327500Y-31985000D03*
D15*
X363137500Y-34525000D03*
D14*
X365677500Y-29445000D03*
D13*
X368217500Y-34525000D03*
D16*
X356052500Y-31985000D03*
X368979500Y-29445000D03*
%TD*%
D12*
%TO.C,L44*%
X160950000Y-87980000D03*
X160950000Y-86480000D03*
X155750000Y-86480000D03*
X155750000Y-87980000D03*
%TD*%
%TO.C,L60*%
X70462500Y-107030000D03*
X70462500Y-105530000D03*
X65262500Y-105530000D03*
X65262500Y-107030000D03*
%TD*%
%TO.C,L3*%
X94275000Y-40355000D03*
X94275000Y-38855000D03*
X89075000Y-38855000D03*
X89075000Y-40355000D03*
%TD*%
%TO.C,L49*%
X256200000Y-87980000D03*
X256200000Y-86480000D03*
X251000000Y-86480000D03*
X251000000Y-87980000D03*
%TD*%
%TO.C,L8*%
X199050000Y-40355000D03*
X199050000Y-38855000D03*
X193850000Y-38855000D03*
X193850000Y-40355000D03*
%TD*%
D13*
%TO.C,SW50*%
X267570000Y-82150000D03*
D14*
X268840000Y-79610000D03*
D15*
X272650000Y-82150000D03*
D14*
X275190000Y-77070000D03*
D13*
X277730000Y-82150000D03*
D16*
X265565000Y-79610000D03*
X278492000Y-77070000D03*
%TD*%
D13*
%TO.C,SW14*%
X319957500Y-34525000D03*
D14*
X321227500Y-31985000D03*
D15*
X325037500Y-34525000D03*
D14*
X327577500Y-29445000D03*
D13*
X330117500Y-34525000D03*
D16*
X317952500Y-31985000D03*
X330879500Y-29445000D03*
%TD*%
D12*
%TO.C,L11*%
X265725000Y-40355000D03*
X265725000Y-38855000D03*
X260525000Y-38855000D03*
X260525000Y-40355000D03*
%TD*%
%TO.C,L104*%
X427650000Y-145130000D03*
X427650000Y-143630000D03*
X422450000Y-143630000D03*
X422450000Y-145130000D03*
%TD*%
D13*
%TO.C,SW97*%
X246138800Y-139300000D03*
D14*
X247408800Y-136760000D03*
D15*
X251218800Y-139300000D03*
D14*
X253758800Y-134220000D03*
D13*
X256298800Y-139300000D03*
D16*
X244133800Y-136760000D03*
X257060800Y-134220000D03*
%TD*%
D13*
%TO.C,SW89*%
X400920000Y-120250000D03*
D14*
X402190000Y-117710000D03*
D15*
X406000000Y-120250000D03*
D14*
X408540000Y-115170000D03*
D13*
X411080000Y-120250000D03*
D16*
X398915000Y-117710000D03*
X411842000Y-115170000D03*
%TD*%
D13*
%TO.C,SW20*%
X86595000Y-63100000D03*
D14*
X87865000Y-60560000D03*
D15*
X91675000Y-63100000D03*
D14*
X94215000Y-58020000D03*
D13*
X96755000Y-63100000D03*
D16*
X84590000Y-60560000D03*
X97517000Y-58020000D03*
%TD*%
D12*
%TO.C,L59*%
X44268800Y-107030000D03*
X44268800Y-105530000D03*
X39068800Y-105530000D03*
X39068800Y-107030000D03*
%TD*%
D13*
%TO.C,SW11*%
X258045000Y-34525000D03*
D14*
X259315000Y-31985000D03*
D15*
X263125000Y-34525000D03*
D14*
X265665000Y-29445000D03*
D13*
X268205000Y-34525000D03*
D16*
X256040000Y-31985000D03*
X268967000Y-29445000D03*
%TD*%
D13*
%TO.C,SW23*%
X143745000Y-63100000D03*
D14*
X145015000Y-60560000D03*
D15*
X148825000Y-63100000D03*
D14*
X151365000Y-58020000D03*
D13*
X153905000Y-63100000D03*
D16*
X141740000Y-60560000D03*
X154667000Y-58020000D03*
%TD*%
D12*
%TO.C,L100*%
X327637500Y-145130000D03*
X327637500Y-143630000D03*
X322437500Y-143630000D03*
X322437500Y-145130000D03*
%TD*%
D13*
%TO.C,SW4*%
X105645000Y-34525000D03*
D14*
X106915000Y-31985000D03*
D15*
X110725000Y-34525000D03*
D14*
X113265000Y-29445000D03*
D13*
X115805000Y-34525000D03*
D16*
X103640000Y-31985000D03*
X116567000Y-29445000D03*
%TD*%
D12*
%TO.C,L73*%
X408600000Y-107030000D03*
X408600000Y-105530000D03*
X403400000Y-105530000D03*
X403400000Y-107030000D03*
%TD*%
D13*
%TO.C,SW98*%
X269951300Y-139300000D03*
D14*
X271221300Y-136760000D03*
D15*
X275031300Y-139300000D03*
D14*
X277571300Y-134220000D03*
D13*
X280111300Y-139300000D03*
D16*
X267946300Y-136760000D03*
X280873300Y-134220000D03*
%TD*%
D13*
%TO.C,SW34*%
X381870000Y-63100000D03*
D14*
X383140000Y-60560000D03*
D15*
X386950000Y-63100000D03*
D14*
X389490000Y-58020000D03*
D13*
X392030000Y-63100000D03*
D16*
X379865000Y-60560000D03*
X392792000Y-58020000D03*
%TD*%
D12*
%TO.C,L68*%
X222862500Y-107030000D03*
X222862500Y-105530000D03*
X217662500Y-105530000D03*
X217662500Y-107030000D03*
%TD*%
%TO.C,L92*%
X39506300Y-145130000D03*
X39506300Y-143630000D03*
X34306300Y-143630000D03*
X34306300Y-145130000D03*
%TD*%
D13*
%TO.C,SW63*%
X119932500Y-101200000D03*
D14*
X121202500Y-98660000D03*
D15*
X125012500Y-101200000D03*
D14*
X127552500Y-96120000D03*
D13*
X130092500Y-101200000D03*
D16*
X117927500Y-98660000D03*
X130854500Y-96120000D03*
%TD*%
D13*
%TO.C,SW24*%
X162795000Y-63100000D03*
D14*
X164065000Y-60560000D03*
D15*
X167875000Y-63100000D03*
D14*
X170415000Y-58020000D03*
D13*
X172955000Y-63100000D03*
D16*
X160790000Y-60560000D03*
X173717000Y-58020000D03*
%TD*%
D13*
%TO.C,SW81*%
X167557500Y-120250000D03*
D14*
X168827500Y-117710000D03*
D15*
X172637500Y-120250000D03*
D14*
X175177500Y-115170000D03*
D13*
X177717500Y-120250000D03*
D16*
X165552500Y-117710000D03*
X178479500Y-115170000D03*
%TD*%
D13*
%TO.C,SW94*%
X79451300Y-139300000D03*
D14*
X80721300Y-136760000D03*
D15*
X84531300Y-139300000D03*
D14*
X87071300Y-134220000D03*
D13*
X89611300Y-139300000D03*
D16*
X77446300Y-136760000D03*
X90373300Y-134220000D03*
%TD*%
D13*
%TO.C,SW13*%
X296145000Y-34525000D03*
D14*
X297415000Y-31985000D03*
D15*
X301225000Y-34525000D03*
D14*
X303765000Y-29445000D03*
D13*
X306305000Y-34525000D03*
D16*
X294140000Y-31985000D03*
X307067000Y-29445000D03*
%TD*%
D12*
%TO.C,L85*%
X251437500Y-126080000D03*
X251437500Y-124580000D03*
X246237500Y-124580000D03*
X246237500Y-126080000D03*
%TD*%
D13*
%TO.C,SW57*%
X419970000Y-82150000D03*
D14*
X421240000Y-79610000D03*
D15*
X425050000Y-82150000D03*
D14*
X427590000Y-77070000D03*
D13*
X430130000Y-82150000D03*
D16*
X417965000Y-79610000D03*
X430892000Y-77070000D03*
%TD*%
D13*
%TO.C,SW102*%
X358057500Y-139300000D03*
D14*
X359327500Y-136760000D03*
D15*
X363137500Y-139300000D03*
D14*
X365677500Y-134220000D03*
D13*
X368217500Y-139300000D03*
D16*
X356052500Y-136760000D03*
X368979500Y-134220000D03*
%TD*%
D13*
%TO.C,SW56*%
X400920000Y-82150000D03*
D14*
X402190000Y-79610000D03*
D15*
X406000000Y-82150000D03*
D14*
X408540000Y-77070000D03*
D13*
X411080000Y-82150000D03*
D16*
X398915000Y-79610000D03*
X411842000Y-77070000D03*
%TD*%
D12*
%TO.C,L72*%
X389550000Y-107030000D03*
X389550000Y-105530000D03*
X384350000Y-105530000D03*
X384350000Y-107030000D03*
%TD*%
D13*
%TO.C,SW2*%
X67545000Y-34525000D03*
D14*
X68815000Y-31985000D03*
D15*
X72625000Y-34525000D03*
D14*
X75165000Y-29445000D03*
D13*
X77705000Y-34525000D03*
D16*
X65540000Y-31985000D03*
X78467000Y-29445000D03*
%TD*%
D13*
%TO.C,SW9*%
X210420000Y-34525000D03*
D14*
X211690000Y-31985000D03*
D15*
X215500000Y-34525000D03*
D14*
X218040000Y-29445000D03*
D13*
X220580000Y-34525000D03*
D16*
X208415000Y-31985000D03*
X221342000Y-29445000D03*
%TD*%
D12*
%TO.C,L87*%
X346687500Y-126080000D03*
X346687500Y-124580000D03*
X341487500Y-124580000D03*
X341487500Y-126080000D03*
%TD*%
%TO.C,L24*%
X170475000Y-68930000D03*
X170475000Y-67430000D03*
X165275000Y-67430000D03*
X165275000Y-68930000D03*
%TD*%
D13*
%TO.C,SW52*%
X319957500Y-82150000D03*
D14*
X321227500Y-79610000D03*
D15*
X325037500Y-82150000D03*
D14*
X327577500Y-77070000D03*
D13*
X330117500Y-82150000D03*
D16*
X317952500Y-79610000D03*
X330879500Y-77070000D03*
%TD*%
D13*
%TO.C,SW71*%
X284238800Y-101200000D03*
D14*
X285508800Y-98660000D03*
D15*
X289318800Y-101200000D03*
D14*
X291858800Y-96120000D03*
D13*
X294398800Y-101200000D03*
D16*
X282233800Y-98660000D03*
X295160800Y-96120000D03*
%TD*%
D12*
%TO.C,L82*%
X194287500Y-126080000D03*
X194287500Y-124580000D03*
X189087500Y-124580000D03*
X189087500Y-126080000D03*
%TD*%
%TO.C,L34*%
X389550000Y-68930000D03*
X389550000Y-67430000D03*
X384350000Y-67430000D03*
X384350000Y-68930000D03*
%TD*%
%TO.C,L58*%
X446700000Y-97505000D03*
X446700000Y-96005000D03*
X441500000Y-96005000D03*
X441500000Y-97505000D03*
%TD*%
D13*
%TO.C,SW18*%
X48495000Y-63100000D03*
D14*
X49765000Y-60560000D03*
D15*
X53575000Y-63100000D03*
D14*
X56115000Y-58020000D03*
D13*
X58655000Y-63100000D03*
D16*
X46490000Y-60560000D03*
X59417000Y-58020000D03*
%TD*%
D12*
%TO.C,L47*%
X218100000Y-87980000D03*
X218100000Y-86480000D03*
X212900000Y-86480000D03*
X212900000Y-87980000D03*
%TD*%
%TO.C,L5*%
X132375000Y-40355000D03*
X132375000Y-38855000D03*
X127175000Y-38855000D03*
X127175000Y-40355000D03*
%TD*%
D13*
%TO.C,SW47*%
X210420000Y-82150000D03*
D14*
X211690000Y-79610000D03*
D15*
X215500000Y-82150000D03*
D14*
X218040000Y-77070000D03*
D13*
X220580000Y-82150000D03*
D16*
X208415000Y-79610000D03*
X221342000Y-77070000D03*
%TD*%
D13*
%TO.C,SW3*%
X86595000Y-34525000D03*
D14*
X87865000Y-31985000D03*
D15*
X91675000Y-34525000D03*
D14*
X94215000Y-29445000D03*
D13*
X96755000Y-34525000D03*
D16*
X84590000Y-31985000D03*
X97517000Y-29445000D03*
%TD*%
D13*
%TO.C,SW45*%
X172320000Y-82150000D03*
D14*
X173590000Y-79610000D03*
D15*
X177400000Y-82150000D03*
D14*
X179940000Y-77070000D03*
D13*
X182480000Y-82150000D03*
D16*
X170315000Y-79610000D03*
X183242000Y-77070000D03*
%TD*%
D19*
%TO.C,C1*%
X31300000Y-36525000D03*
X29750000Y-36525000D03*
%TD*%
%TO.C,C24*%
X164650000Y-65100000D03*
X163100000Y-65100000D03*
%TD*%
%TO.C,C59*%
X38443800Y-103200000D03*
X36893800Y-103200000D03*
%TD*%
%TO.C,C15*%
X340862500Y-36525000D03*
X339312500Y-36525000D03*
%TD*%
D20*
%TO.C,D6*%
X163430000Y-36617500D03*
X163430000Y-38492500D03*
%TD*%
D19*
%TO.C,C23*%
X145600000Y-65100000D03*
X144050000Y-65100000D03*
%TD*%
%TO.C,C46*%
X193225000Y-84150000D03*
X191675000Y-84150000D03*
%TD*%
D20*
%TO.C,D77*%
X101517500Y-122342500D03*
X101517500Y-124217500D03*
%TD*%
D19*
%TO.C,C103*%
X393250000Y-141300000D03*
X391700000Y-141300000D03*
%TD*%
D20*
%TO.C,D27*%
X230105000Y-65192500D03*
X230105000Y-67067500D03*
%TD*%
D21*
%TO.C,R1*%
X375007500Y-20320000D03*
X376832500Y-20320000D03*
%TD*%
D19*
%TO.C,C26*%
X202750000Y-65100000D03*
X201200000Y-65100000D03*
%TD*%
%TO.C,C3*%
X88450000Y-36525000D03*
X86900000Y-36525000D03*
%TD*%
%TO.C,C96*%
X224181300Y-141300000D03*
X222631300Y-141300000D03*
%TD*%
%TO.C,C29*%
X259900000Y-65100000D03*
X258350000Y-65100000D03*
%TD*%
D20*
%TO.C,D21*%
X115805000Y-65192500D03*
X115805000Y-67067500D03*
%TD*%
%TO.C,D99*%
X303923800Y-141392500D03*
X303923800Y-143267500D03*
%TD*%
%TO.C,D97*%
X256298800Y-141392500D03*
X256298800Y-143267500D03*
%TD*%
%TO.C,D89*%
X411080000Y-122342500D03*
X411080000Y-124217500D03*
%TD*%
D19*
%TO.C,C54*%
X359912500Y-84150000D03*
X358362500Y-84150000D03*
%TD*%
%TO.C,C11*%
X259900000Y-36525000D03*
X258350000Y-36525000D03*
%TD*%
D20*
%TO.C,D25*%
X192005000Y-65192500D03*
X192005000Y-67067500D03*
%TD*%
D19*
%TO.C,C72*%
X383725000Y-103200000D03*
X382175000Y-103200000D03*
%TD*%
D20*
%TO.C,D50*%
X277730000Y-84242500D03*
X277730000Y-86117500D03*
%TD*%
D19*
%TO.C,C34*%
X383725000Y-65100000D03*
X382175000Y-65100000D03*
%TD*%
%TO.C,C86*%
X281331300Y-122250000D03*
X279781300Y-122250000D03*
%TD*%
D20*
%TO.C,D95*%
X161048800Y-141392500D03*
X161048800Y-143267500D03*
%TD*%
D19*
%TO.C,C104*%
X421825000Y-141300000D03*
X420275000Y-141300000D03*
%TD*%
D20*
%TO.C,D76*%
X82467500Y-122342500D03*
X82467500Y-124217500D03*
%TD*%
%TO.C,D38*%
X44367500Y-84242500D03*
X44367500Y-86117500D03*
%TD*%
%TO.C,D1*%
X39605000Y-36617500D03*
X39605000Y-38492500D03*
%TD*%
D19*
%TO.C,C85*%
X245612500Y-122250000D03*
X244062500Y-122250000D03*
%TD*%
D20*
%TO.C,D26*%
X211055000Y-65192500D03*
X211055000Y-67067500D03*
%TD*%
D19*
%TO.C,C60*%
X64637500Y-103200000D03*
X63087500Y-103200000D03*
%TD*%
%TO.C,C40*%
X78925000Y-84150000D03*
X77375000Y-84150000D03*
%TD*%
%TO.C,C35*%
X402775000Y-65100000D03*
X401225000Y-65100000D03*
%TD*%
D20*
%TO.C,D82*%
X196767500Y-122342500D03*
X196767500Y-124217500D03*
%TD*%
D19*
%TO.C,C70*%
X255137500Y-103200000D03*
X253587500Y-103200000D03*
%TD*%
D20*
%TO.C,D81*%
X177717500Y-122342500D03*
X177717500Y-124217500D03*
%TD*%
D19*
%TO.C,C45*%
X174175000Y-84150000D03*
X172625000Y-84150000D03*
%TD*%
%TO.C,C101*%
X340862500Y-141300000D03*
X339312500Y-141300000D03*
%TD*%
D20*
%TO.C,D40*%
X87230000Y-84242500D03*
X87230000Y-86117500D03*
%TD*%
%TO.C,D14*%
X330117500Y-36617500D03*
X330117500Y-38492500D03*
%TD*%
%TO.C,D41*%
X106280000Y-84242500D03*
X106280000Y-86117500D03*
%TD*%
D19*
%TO.C,C82*%
X188462500Y-122250000D03*
X186912500Y-122250000D03*
%TD*%
%TO.C,C55*%
X383725000Y-84150000D03*
X382175000Y-84150000D03*
%TD*%
%TO.C,C75*%
X43206300Y-122250000D03*
X41656300Y-122250000D03*
%TD*%
D20*
%TO.C,D51*%
X301542500Y-84242500D03*
X301542500Y-86117500D03*
%TD*%
%TO.C,D66*%
X187242500Y-103292500D03*
X187242500Y-105167500D03*
%TD*%
%TO.C,D33*%
X368217500Y-65192500D03*
X368217500Y-67067500D03*
%TD*%
%TO.C,D57*%
X430130000Y-84242500D03*
X430130000Y-86117500D03*
%TD*%
D19*
%TO.C,C68*%
X217037500Y-103200000D03*
X215487500Y-103200000D03*
%TD*%
D20*
%TO.C,D62*%
X111042500Y-103292500D03*
X111042500Y-105167500D03*
%TD*%
%TO.C,D53*%
X349167500Y-84242500D03*
X349167500Y-86117500D03*
%TD*%
D19*
%TO.C,C31*%
X321812500Y-65100000D03*
X320262500Y-65100000D03*
%TD*%
D20*
%TO.C,D87*%
X349167500Y-122342500D03*
X349167500Y-124217500D03*
%TD*%
D19*
%TO.C,C51*%
X293237500Y-84150000D03*
X291687500Y-84150000D03*
%TD*%
D20*
%TO.C,D98*%
X280111300Y-141392500D03*
X280111300Y-143267500D03*
%TD*%
%TO.C,D42*%
X125330000Y-84242500D03*
X125330000Y-86117500D03*
%TD*%
D19*
%TO.C,C73*%
X402775000Y-103200000D03*
X401225000Y-103200000D03*
%TD*%
%TO.C,C44*%
X155125000Y-84150000D03*
X153575000Y-84150000D03*
%TD*%
%TO.C,C48*%
X231325000Y-84150000D03*
X229775000Y-84150000D03*
%TD*%
D20*
%TO.C,D36*%
X430130000Y-65192500D03*
X430130000Y-67067500D03*
%TD*%
D19*
%TO.C,C94*%
X81306300Y-141300000D03*
X79756300Y-141300000D03*
%TD*%
D20*
%TO.C,D56*%
X411080000Y-84242500D03*
X411080000Y-86117500D03*
%TD*%
%TO.C,D85*%
X253917500Y-122342500D03*
X253917500Y-124217500D03*
%TD*%
%TO.C,D23*%
X153905000Y-65192500D03*
X153905000Y-67067500D03*
%TD*%
%TO.C,D91*%
X449180000Y-131867500D03*
X449180000Y-133742500D03*
%TD*%
%TO.C,D96*%
X232486300Y-141392500D03*
X232486300Y-143267500D03*
%TD*%
%TO.C,D2*%
X77705000Y-36617500D03*
X77705000Y-38492500D03*
%TD*%
D19*
%TO.C,C38*%
X36062500Y-84150000D03*
X34512500Y-84150000D03*
%TD*%
%TO.C,C76*%
X74162500Y-122250000D03*
X72612500Y-122250000D03*
%TD*%
%TO.C,C81*%
X169412500Y-122250000D03*
X167862500Y-122250000D03*
%TD*%
D20*
%TO.C,D48*%
X239630000Y-84242500D03*
X239630000Y-86117500D03*
%TD*%
D19*
%TO.C,C28*%
X240850000Y-65100000D03*
X239300000Y-65100000D03*
%TD*%
D20*
%TO.C,D32*%
X349167500Y-65192500D03*
X349167500Y-67067500D03*
%TD*%
D19*
%TO.C,C19*%
X69400000Y-65100000D03*
X67850000Y-65100000D03*
%TD*%
D20*
%TO.C,D92*%
X41986300Y-141392500D03*
X41986300Y-143267500D03*
%TD*%
%TO.C,D73*%
X411080000Y-103292500D03*
X411080000Y-105167500D03*
%TD*%
%TO.C,D61*%
X91992500Y-103292500D03*
X91992500Y-105167500D03*
%TD*%
D19*
%TO.C,C27*%
X221800000Y-65100000D03*
X220250000Y-65100000D03*
%TD*%
%TO.C,C61*%
X83687500Y-103200000D03*
X82137500Y-103200000D03*
%TD*%
%TO.C,C83*%
X207512500Y-122250000D03*
X205962500Y-122250000D03*
%TD*%
%TO.C,C98*%
X271806300Y-141300000D03*
X270256300Y-141300000D03*
%TD*%
D20*
%TO.C,D7*%
X182480000Y-36617500D03*
X182480000Y-38492500D03*
%TD*%
D19*
%TO.C,C80*%
X150362500Y-122250000D03*
X148812500Y-122250000D03*
%TD*%
%TO.C,C25*%
X183700000Y-65100000D03*
X182150000Y-65100000D03*
%TD*%
D20*
%TO.C,D90*%
X430130000Y-122342500D03*
X430130000Y-124217500D03*
%TD*%
%TO.C,D79*%
X139617500Y-122342500D03*
X139617500Y-124217500D03*
%TD*%
D19*
%TO.C,C5*%
X126550000Y-36525000D03*
X125000000Y-36525000D03*
%TD*%
D20*
%TO.C,D8*%
X201530000Y-36617500D03*
X201530000Y-38492500D03*
%TD*%
%TO.C,D75*%
X51511300Y-122342500D03*
X51511300Y-124217500D03*
%TD*%
D19*
%TO.C,C84*%
X226562500Y-122250000D03*
X225012500Y-122250000D03*
%TD*%
%TO.C,C12*%
X278950000Y-36525000D03*
X277400000Y-36525000D03*
%TD*%
%TO.C,C100*%
X321812500Y-141300000D03*
X320262500Y-141300000D03*
%TD*%
%TO.C,C41*%
X97975000Y-84150000D03*
X96425000Y-84150000D03*
%TD*%
D20*
%TO.C,D54*%
X368217500Y-84242500D03*
X368217500Y-86117500D03*
%TD*%
D19*
%TO.C,C30*%
X288475000Y-65100000D03*
X286925000Y-65100000D03*
%TD*%
D20*
%TO.C,D93*%
X65798800Y-141392500D03*
X65798800Y-143267500D03*
%TD*%
D19*
%TO.C,C67*%
X197987500Y-103200000D03*
X196437500Y-103200000D03*
%TD*%
%TO.C,C18*%
X50350000Y-65100000D03*
X48800000Y-65100000D03*
%TD*%
%TO.C,C74*%
X421825000Y-103200000D03*
X420275000Y-103200000D03*
%TD*%
D20*
%TO.C,D5*%
X134855000Y-36617500D03*
X134855000Y-38492500D03*
%TD*%
%TO.C,D100*%
X330117500Y-141392500D03*
X330117500Y-143267500D03*
%TD*%
%TO.C,D101*%
X349167500Y-141392500D03*
X349167500Y-143267500D03*
%TD*%
D19*
%TO.C,C65*%
X159887500Y-103200000D03*
X158337500Y-103200000D03*
%TD*%
%TO.C,C102*%
X359912500Y-141300000D03*
X358362500Y-141300000D03*
%TD*%
D20*
%TO.C,D43*%
X144380000Y-84242500D03*
X144380000Y-86117500D03*
%TD*%
D19*
%TO.C,C89*%
X402775000Y-122250000D03*
X401225000Y-122250000D03*
%TD*%
%TO.C,C10*%
X240850000Y-36525000D03*
X239300000Y-36525000D03*
%TD*%
D20*
%TO.C,D70*%
X263442500Y-103292500D03*
X263442500Y-105167500D03*
%TD*%
%TO.C,D20*%
X96755000Y-65192500D03*
X96755000Y-67067500D03*
%TD*%
%TO.C,D83*%
X215817500Y-122342500D03*
X215817500Y-124217500D03*
%TD*%
D19*
%TO.C,C4*%
X107500000Y-36525000D03*
X105950000Y-36525000D03*
%TD*%
D22*
%TO.C,J4*%
X382940000Y-19600000D03*
X388720000Y-19600000D03*
D23*
X382580000Y-21045000D03*
X383380000Y-21045000D03*
D24*
X384580000Y-21045000D03*
X385580000Y-21045000D03*
X386080000Y-21045000D03*
X387080000Y-21045000D03*
D23*
X388280000Y-21045000D03*
X389080000Y-21045000D03*
X389080000Y-21045000D03*
X388280000Y-21045000D03*
D24*
X387580000Y-21045000D03*
X386580000Y-21045000D03*
X385080000Y-21045000D03*
X384080000Y-21045000D03*
D23*
X383380000Y-21045000D03*
X382580000Y-21045000D03*
D25*
X381510000Y-15950000D03*
D26*
X381510000Y-20130000D03*
D25*
X390150000Y-15950000D03*
D26*
X390150000Y-20130000D03*
%TD*%
D20*
%TO.C,D94*%
X89611300Y-141392500D03*
X89611300Y-143267500D03*
%TD*%
D19*
%TO.C,C21*%
X107500000Y-65100000D03*
X105950000Y-65100000D03*
%TD*%
%TO.C,C79*%
X131312500Y-122250000D03*
X129762500Y-122250000D03*
%TD*%
%TO.C,C87*%
X340862500Y-122250000D03*
X339312500Y-122250000D03*
%TD*%
D20*
%TO.C,D4*%
X115805000Y-36617500D03*
X115805000Y-38492500D03*
%TD*%
%TO.C,D102*%
X368217500Y-141392500D03*
X368217500Y-143267500D03*
%TD*%
D21*
%TO.C,R2*%
X375007500Y-25400000D03*
X376832500Y-25400000D03*
%TD*%
D20*
%TO.C,D18*%
X58655000Y-65192500D03*
X58655000Y-67067500D03*
%TD*%
D19*
%TO.C,C90*%
X421825000Y-122250000D03*
X420275000Y-122250000D03*
%TD*%
%TO.C,C50*%
X269425000Y-84150000D03*
X267875000Y-84150000D03*
%TD*%
%TO.C,C36*%
X421825000Y-65100000D03*
X420275000Y-65100000D03*
%TD*%
D20*
%TO.C,D34*%
X392030000Y-65192500D03*
X392030000Y-67067500D03*
%TD*%
%TO.C,D84*%
X234867500Y-122342500D03*
X234867500Y-124217500D03*
%TD*%
%TO.C,D63*%
X130092500Y-103292500D03*
X130092500Y-105167500D03*
%TD*%
D19*
%TO.C,C20*%
X88450000Y-65100000D03*
X86900000Y-65100000D03*
%TD*%
%TO.C,C71*%
X286093800Y-103200000D03*
X284543800Y-103200000D03*
%TD*%
%TO.C,C93*%
X57493800Y-141300000D03*
X55943800Y-141300000D03*
%TD*%
D20*
%TO.C,D17*%
X39605000Y-65192500D03*
X39605000Y-67067500D03*
%TD*%
D19*
%TO.C,C66*%
X178937500Y-103200000D03*
X177387500Y-103200000D03*
%TD*%
D20*
%TO.C,D46*%
X201530000Y-84242500D03*
X201530000Y-86117500D03*
%TD*%
D19*
%TO.C,C14*%
X321812500Y-36525000D03*
X320262500Y-36525000D03*
%TD*%
%TO.C,C6*%
X155125000Y-36525000D03*
X153575000Y-36525000D03*
%TD*%
%TO.C,C63*%
X121787500Y-103200000D03*
X120237500Y-103200000D03*
%TD*%
D20*
%TO.C,D49*%
X258680000Y-84242500D03*
X258680000Y-86117500D03*
%TD*%
%TO.C,D60*%
X72942500Y-103292500D03*
X72942500Y-105167500D03*
%TD*%
%TO.C,D13*%
X306305000Y-36617500D03*
X306305000Y-38492500D03*
%TD*%
D19*
%TO.C,C62*%
X102737500Y-103200000D03*
X101187500Y-103200000D03*
%TD*%
D20*
%TO.C,D22*%
X134855000Y-65192500D03*
X134855000Y-67067500D03*
%TD*%
%TO.C,D104*%
X430130000Y-141392500D03*
X430130000Y-143267500D03*
%TD*%
%TO.C,D68*%
X225342500Y-103292500D03*
X225342500Y-105167500D03*
%TD*%
%TO.C,D59*%
X46748800Y-103292500D03*
X46748800Y-105167500D03*
%TD*%
%TO.C,D10*%
X249155000Y-36617500D03*
X249155000Y-38492500D03*
%TD*%
D19*
%TO.C,C7*%
X174175000Y-36525000D03*
X172625000Y-36525000D03*
%TD*%
D20*
%TO.C,D30*%
X296780000Y-65192500D03*
X296780000Y-67067500D03*
%TD*%
%TO.C,D103*%
X401555000Y-141392500D03*
X401555000Y-143267500D03*
%TD*%
D19*
%TO.C,C57*%
X421825000Y-84150000D03*
X420275000Y-84150000D03*
%TD*%
D20*
%TO.C,D88*%
X392030000Y-122342500D03*
X392030000Y-124217500D03*
%TD*%
D19*
%TO.C,C47*%
X212275000Y-84150000D03*
X210725000Y-84150000D03*
%TD*%
D20*
%TO.C,D65*%
X168192500Y-103292500D03*
X168192500Y-105167500D03*
%TD*%
%TO.C,D12*%
X287255000Y-36617500D03*
X287255000Y-38492500D03*
%TD*%
%TO.C,D37*%
X449180000Y-65192500D03*
X449180000Y-67067500D03*
%TD*%
D18*
%TO.C,U1*%
X443480000Y-43890000D03*
D27*
X443480000Y-44790000D03*
D18*
X440940000Y-43890000D03*
D27*
X440940000Y-44790000D03*
D17*
X438400000Y-43890000D03*
D27*
X438400000Y-44790000D03*
D18*
X435860000Y-43890000D03*
D27*
X435860000Y-44790000D03*
D18*
X433320000Y-43890000D03*
D27*
X433320000Y-44790000D03*
D18*
X430780000Y-43890000D03*
D27*
X430780000Y-44790000D03*
D18*
X428240000Y-43890000D03*
D27*
X428240000Y-44790000D03*
D17*
X425700000Y-43890000D03*
D27*
X425700000Y-44790000D03*
D18*
X423160000Y-43890000D03*
D27*
X423160000Y-44790000D03*
D18*
X420620000Y-43890000D03*
D27*
X420620000Y-44790000D03*
D18*
X418080000Y-43890000D03*
D27*
X418080000Y-44790000D03*
D18*
X415540000Y-43890000D03*
D27*
X415540000Y-44790000D03*
D17*
X413000000Y-43890000D03*
D27*
X413000000Y-44790000D03*
D18*
X410460000Y-43890000D03*
D27*
X410460000Y-44790000D03*
D18*
X407920000Y-43890000D03*
D27*
X407920000Y-44790000D03*
D18*
X405380000Y-43890000D03*
D27*
X405380000Y-44790000D03*
D18*
X402840000Y-43890000D03*
D27*
X402840000Y-44790000D03*
D17*
X400300000Y-43890000D03*
D27*
X400300000Y-44790000D03*
D18*
X397760000Y-43890000D03*
D27*
X397760000Y-44790000D03*
D18*
X395220000Y-43890000D03*
D27*
X395220000Y-44790000D03*
D18*
X395220000Y-26110000D03*
D27*
X395220000Y-25210000D03*
D18*
X397760000Y-26110000D03*
D27*
X397760000Y-25210000D03*
D17*
X400300000Y-26110000D03*
D27*
X400300000Y-25210000D03*
D18*
X402840000Y-26110000D03*
D27*
X402840000Y-25210000D03*
D18*
X405380000Y-26110000D03*
D27*
X405380000Y-25210000D03*
D18*
X407920000Y-26110000D03*
D27*
X407920000Y-25210000D03*
D18*
X410460000Y-26110000D03*
D27*
X410460000Y-25210000D03*
D17*
X413000000Y-26110000D03*
D27*
X413000000Y-25210000D03*
D18*
X415540000Y-26110000D03*
D27*
X415540000Y-25210000D03*
D18*
X418080000Y-26110000D03*
D27*
X418080000Y-25210000D03*
D18*
X420620000Y-26110000D03*
D27*
X420620000Y-25210000D03*
D18*
X423160000Y-26110000D03*
D27*
X423160000Y-25210000D03*
D17*
X425700000Y-26110000D03*
D27*
X425700000Y-25210000D03*
D18*
X428240000Y-26110000D03*
D27*
X428240000Y-25210000D03*
D18*
X430780000Y-26110000D03*
D27*
X430780000Y-25210000D03*
D18*
X433320000Y-26110000D03*
D27*
X433320000Y-25210000D03*
D18*
X435860000Y-26110000D03*
D27*
X435860000Y-25210000D03*
D17*
X438400000Y-26110000D03*
D27*
X438400000Y-25210000D03*
D18*
X440940000Y-26110000D03*
D27*
X440940000Y-25210000D03*
D18*
X443480000Y-26110000D03*
D27*
X443480000Y-25210000D03*
D18*
X395450000Y-37540000D03*
D28*
X394550000Y-37540000D03*
D17*
X395450000Y-35000000D03*
D28*
X394550000Y-35000000D03*
D18*
X395450000Y-32460000D03*
D28*
X394550000Y-32460000D03*
D29*
X443475000Y-33984000D03*
X443475000Y-36016000D03*
X431850000Y-37500000D03*
%TD*%
D20*
%TO.C,D52*%
X330117500Y-84242500D03*
X330117500Y-86117500D03*
%TD*%
D19*
%TO.C,C53*%
X340862500Y-84150000D03*
X339312500Y-84150000D03*
%TD*%
D20*
%TO.C,D11*%
X268205000Y-36617500D03*
X268205000Y-38492500D03*
%TD*%
%TO.C,D78*%
X120567500Y-122342500D03*
X120567500Y-124217500D03*
%TD*%
D19*
%TO.C,C92*%
X33681300Y-141300000D03*
X32131300Y-141300000D03*
%TD*%
D20*
%TO.C,D71*%
X294398800Y-103292500D03*
X294398800Y-105167500D03*
%TD*%
%TO.C,D55*%
X392030000Y-84242500D03*
X392030000Y-86117500D03*
%TD*%
D19*
%TO.C,C22*%
X126550000Y-65100000D03*
X125000000Y-65100000D03*
%TD*%
%TO.C,C9*%
X212275000Y-36525000D03*
X210725000Y-36525000D03*
%TD*%
%TO.C,C13*%
X298000000Y-36525000D03*
X296450000Y-36525000D03*
%TD*%
%TO.C,C95*%
X152743800Y-141300000D03*
X151193800Y-141300000D03*
%TD*%
D20*
%TO.C,D74*%
X430130000Y-103292500D03*
X430130000Y-105167500D03*
%TD*%
%TO.C,D39*%
X68180000Y-84242500D03*
X68180000Y-86117500D03*
%TD*%
D19*
%TO.C,C58*%
X440875000Y-93675000D03*
X439325000Y-93675000D03*
%TD*%
%TO.C,C8*%
X193225000Y-36525000D03*
X191675000Y-36525000D03*
%TD*%
%TO.C,C99*%
X295618800Y-141300000D03*
X294068800Y-141300000D03*
%TD*%
%TO.C,C69*%
X236087500Y-103200000D03*
X234537500Y-103200000D03*
%TD*%
%TO.C,C52*%
X321812500Y-84150000D03*
X320262500Y-84150000D03*
%TD*%
%TO.C,C2*%
X69400000Y-36525000D03*
X67850000Y-36525000D03*
%TD*%
%TO.C,C17*%
X31300000Y-65100000D03*
X29750000Y-65100000D03*
%TD*%
%TO.C,C16*%
X359912500Y-36525000D03*
X358362500Y-36525000D03*
%TD*%
D20*
%TO.C,D15*%
X349167500Y-36617500D03*
X349167500Y-38492500D03*
%TD*%
%TO.C,D47*%
X220580000Y-84242500D03*
X220580000Y-86117500D03*
%TD*%
D19*
%TO.C,C39*%
X59875000Y-84150000D03*
X58325000Y-84150000D03*
%TD*%
D20*
%TO.C,D80*%
X158667500Y-122342500D03*
X158667500Y-124217500D03*
%TD*%
D19*
%TO.C,C77*%
X93212500Y-122250000D03*
X91662500Y-122250000D03*
%TD*%
D20*
%TO.C,D29*%
X268205000Y-65192500D03*
X268205000Y-67067500D03*
%TD*%
%TO.C,D35*%
X411080000Y-65192500D03*
X411080000Y-67067500D03*
%TD*%
%TO.C,D44*%
X163430000Y-84242500D03*
X163430000Y-86117500D03*
%TD*%
D19*
%TO.C,C42*%
X117025000Y-84150000D03*
X115475000Y-84150000D03*
%TD*%
D20*
%TO.C,D67*%
X206292500Y-103292500D03*
X206292500Y-105167500D03*
%TD*%
%TO.C,D31*%
X330117500Y-65192500D03*
X330117500Y-67067500D03*
%TD*%
%TO.C,D69*%
X244392500Y-103292500D03*
X244392500Y-105167500D03*
%TD*%
D19*
%TO.C,C37*%
X440875000Y-65100000D03*
X439325000Y-65100000D03*
%TD*%
D20*
%TO.C,D45*%
X182480000Y-84242500D03*
X182480000Y-86117500D03*
%TD*%
%TO.C,D28*%
X249155000Y-65192500D03*
X249155000Y-67067500D03*
%TD*%
D30*
%TO.C,D105*%
X382875000Y-25400000D03*
X381000000Y-25400000D03*
%TD*%
D20*
%TO.C,D72*%
X392030000Y-103292500D03*
X392030000Y-105167500D03*
%TD*%
D19*
%TO.C,C64*%
X140837500Y-103200000D03*
X139287500Y-103200000D03*
%TD*%
D20*
%TO.C,D64*%
X149142500Y-103292500D03*
X149142500Y-105167500D03*
%TD*%
D19*
%TO.C,C78*%
X112262500Y-122250000D03*
X110712500Y-122250000D03*
%TD*%
%TO.C,C91*%
X440875000Y-131775000D03*
X439325000Y-131775000D03*
%TD*%
D20*
%TO.C,D16*%
X368217500Y-36617500D03*
X368217500Y-38492500D03*
%TD*%
D19*
%TO.C,C56*%
X402775000Y-84150000D03*
X401225000Y-84150000D03*
%TD*%
D20*
%TO.C,D3*%
X96755000Y-36617500D03*
X96755000Y-38492500D03*
%TD*%
%TO.C,D19*%
X77705000Y-65192500D03*
X77705000Y-67067500D03*
%TD*%
%TO.C,D24*%
X172955000Y-65192500D03*
X172955000Y-67067500D03*
%TD*%
D19*
%TO.C,C97*%
X247993800Y-141300000D03*
X246443800Y-141300000D03*
%TD*%
%TO.C,C33*%
X359912500Y-65100000D03*
X358362500Y-65100000D03*
%TD*%
%TO.C,C32*%
X340862500Y-65100000D03*
X339312500Y-65100000D03*
%TD*%
D20*
%TO.C,D58*%
X449180000Y-93767500D03*
X449180000Y-95642500D03*
%TD*%
%TO.C,D9*%
X220580000Y-36617500D03*
X220580000Y-38492500D03*
%TD*%
D19*
%TO.C,C49*%
X250375000Y-84150000D03*
X248825000Y-84150000D03*
%TD*%
%TO.C,C88*%
X383725000Y-122250000D03*
X382175000Y-122250000D03*
%TD*%
%TO.C,C43*%
X136075000Y-84150000D03*
X134525000Y-84150000D03*
%TD*%
D20*
%TO.C,D86*%
X289636300Y-122342500D03*
X289636300Y-124217500D03*
%TD*%
M02*
