%TF.GenerationSoftware,KiCad,Pcbnew,7.0.7*%
%TF.CreationDate,2024-02-20T17:11:52+02:00*%
%TF.ProjectId,keyboard,6b657962-6f61-4726-942e-6b696361645f,rev?*%
%TF.SameCoordinates,Original*%
%TF.FileFunction,Paste,Bot*%
%TF.FilePolarity,Positive*%
%FSLAX46Y46*%
G04 Gerber Fmt 4.6, Leading zero omitted, Abs format (unit mm)*
G04 Created by KiCad (PCBNEW 7.0.7) date 2024-02-20 17:11:52*
%MOMM*%
%LPD*%
G01*
G04 APERTURE LIST*
G04 Aperture macros list*
%AMRoundRect*
0 Rectangle with rounded corners*
0 $1 Rounding radius*
0 $2 $3 $4 $5 $6 $7 $8 $9 X,Y pos of 4 corners*
0 Add a 4 corners polygon primitive as box body*
4,1,4,$2,$3,$4,$5,$6,$7,$8,$9,$2,$3,0*
0 Add four circle primitives for the rounded corners*
1,1,$1+$1,$2,$3*
1,1,$1+$1,$4,$5*
1,1,$1+$1,$6,$7*
1,1,$1+$1,$8,$9*
0 Add four rect primitives between the rounded corners*
20,1,$1+$1,$2,$3,$4,$5,0*
20,1,$1+$1,$4,$5,$6,$7,0*
20,1,$1+$1,$6,$7,$8,$9,0*
20,1,$1+$1,$8,$9,$2,$3,0*%
G04 Aperture macros list end*
%ADD10RoundRect,0.082000X0.718000X-0.328000X0.718000X0.328000X-0.718000X0.328000X-0.718000X-0.328000X0*%
%ADD11RoundRect,0.250000X-1.025000X-1.000000X1.025000X-1.000000X1.025000X1.000000X-1.025000X1.000000X0*%
%ADD12RoundRect,0.225000X0.225000X0.250000X-0.225000X0.250000X-0.225000X-0.250000X0.225000X-0.250000X0*%
%ADD13RoundRect,0.243750X-0.456250X0.243750X-0.456250X-0.243750X0.456250X-0.243750X0.456250X0.243750X0*%
%ADD14RoundRect,0.250000X-0.262500X-0.450000X0.262500X-0.450000X0.262500X0.450000X-0.262500X0.450000X0*%
%ADD15R,0.600000X1.450000*%
%ADD16R,0.300000X1.450000*%
%ADD17RoundRect,0.243750X0.243750X0.456250X-0.243750X0.456250X-0.243750X-0.456250X0.243750X-0.456250X0*%
G04 APERTURE END LIST*
D10*
%TO.C,L66*%
X184762500Y-107030000D03*
X184762500Y-105530000D03*
X179562500Y-105530000D03*
X179562500Y-107030000D03*
%TD*%
D11*
%TO.C,SW68*%
X213177500Y-98660000D03*
X226104500Y-96120000D03*
%TD*%
%TO.C,SW51*%
X289377500Y-79610000D03*
X302304500Y-77070000D03*
%TD*%
D10*
%TO.C,L63*%
X127612500Y-107030000D03*
X127612500Y-105530000D03*
X122412500Y-105530000D03*
X122412500Y-107030000D03*
%TD*%
D11*
%TO.C,SW53*%
X337002500Y-79610000D03*
X349929500Y-77070000D03*
%TD*%
%TO.C,SW72*%
X379865000Y-98660000D03*
X392792000Y-96120000D03*
%TD*%
D10*
%TO.C,L99*%
X301443800Y-145130000D03*
X301443800Y-143630000D03*
X296243800Y-143630000D03*
X296243800Y-145130000D03*
%TD*%
%TO.C,L29*%
X265725000Y-68930000D03*
X265725000Y-67430000D03*
X260525000Y-67430000D03*
X260525000Y-68930000D03*
%TD*%
%TO.C,L76*%
X79987500Y-126080000D03*
X79987500Y-124580000D03*
X74787500Y-124580000D03*
X74787500Y-126080000D03*
%TD*%
D11*
%TO.C,SW31*%
X317952500Y-60560000D03*
X330879500Y-58020000D03*
%TD*%
%TO.C,SW1*%
X27440000Y-31985000D03*
X40367000Y-29445000D03*
%TD*%
D10*
%TO.C,L74*%
X427650000Y-107030000D03*
X427650000Y-105530000D03*
X422450000Y-105530000D03*
X422450000Y-107030000D03*
%TD*%
%TO.C,L83*%
X213337500Y-126080000D03*
X213337500Y-124580000D03*
X208137500Y-124580000D03*
X208137500Y-126080000D03*
%TD*%
D11*
%TO.C,SW10*%
X236990000Y-31985000D03*
X249917000Y-29445000D03*
%TD*%
%TO.C,SW19*%
X65540000Y-60560000D03*
X78467000Y-58020000D03*
%TD*%
D10*
%TO.C,L42*%
X122850000Y-87980000D03*
X122850000Y-86480000D03*
X117650000Y-86480000D03*
X117650000Y-87980000D03*
%TD*%
%TO.C,L33*%
X365737500Y-68930000D03*
X365737500Y-67430000D03*
X360537500Y-67430000D03*
X360537500Y-68930000D03*
%TD*%
%TO.C,L6*%
X160950000Y-40355000D03*
X160950000Y-38855000D03*
X155750000Y-38855000D03*
X155750000Y-40355000D03*
%TD*%
%TO.C,L43*%
X141900000Y-87980000D03*
X141900000Y-86480000D03*
X136700000Y-86480000D03*
X136700000Y-87980000D03*
%TD*%
%TO.C,L23*%
X151425000Y-68930000D03*
X151425000Y-67430000D03*
X146225000Y-67430000D03*
X146225000Y-68930000D03*
%TD*%
D11*
%TO.C,SW60*%
X60777500Y-98660000D03*
X73704500Y-96120000D03*
%TD*%
%TO.C,SW17*%
X27440000Y-60560000D03*
X40367000Y-58020000D03*
%TD*%
D10*
%TO.C,L54*%
X365737500Y-87980000D03*
X365737500Y-86480000D03*
X360537500Y-86480000D03*
X360537500Y-87980000D03*
%TD*%
D11*
%TO.C,SW74*%
X417965000Y-98660000D03*
X430892000Y-96120000D03*
%TD*%
D10*
%TO.C,L2*%
X75225000Y-40355000D03*
X75225000Y-38855000D03*
X70025000Y-38855000D03*
X70025000Y-40355000D03*
%TD*%
D11*
%TO.C,SW69*%
X232227500Y-98660000D03*
X245154500Y-96120000D03*
%TD*%
D10*
%TO.C,L61*%
X89512500Y-107030000D03*
X89512500Y-105530000D03*
X84312500Y-105530000D03*
X84312500Y-107030000D03*
%TD*%
D11*
%TO.C,SW87*%
X337002500Y-117710000D03*
X349929500Y-115170000D03*
%TD*%
%TO.C,SW96*%
X220321300Y-136760000D03*
X233248300Y-134220000D03*
%TD*%
D10*
%TO.C,L88*%
X389550000Y-126080000D03*
X389550000Y-124580000D03*
X384350000Y-124580000D03*
X384350000Y-126080000D03*
%TD*%
D11*
%TO.C,SW83*%
X203652500Y-117710000D03*
X216579500Y-115170000D03*
%TD*%
%TO.C,SW15*%
X337002500Y-31985000D03*
X349929500Y-29445000D03*
%TD*%
%TO.C,SW6*%
X151265000Y-31985000D03*
X164192000Y-29445000D03*
%TD*%
D10*
%TO.C,L81*%
X175237500Y-126080000D03*
X175237500Y-124580000D03*
X170037500Y-124580000D03*
X170037500Y-126080000D03*
%TD*%
%TO.C,L86*%
X287156300Y-126080000D03*
X287156300Y-124580000D03*
X281956300Y-124580000D03*
X281956300Y-126080000D03*
%TD*%
%TO.C,L64*%
X146662500Y-107030000D03*
X146662500Y-105530000D03*
X141462500Y-105530000D03*
X141462500Y-107030000D03*
%TD*%
D11*
%TO.C,SW76*%
X70302500Y-117710000D03*
X83229500Y-115170000D03*
%TD*%
%TO.C,SW67*%
X194127500Y-98660000D03*
X207054500Y-96120000D03*
%TD*%
%TO.C,SW35*%
X398915000Y-60560000D03*
X411842000Y-58020000D03*
%TD*%
%TO.C,SW78*%
X108402500Y-117710000D03*
X121329500Y-115170000D03*
%TD*%
D10*
%TO.C,L98*%
X277631300Y-145130000D03*
X277631300Y-143630000D03*
X272431300Y-143630000D03*
X272431300Y-145130000D03*
%TD*%
D11*
%TO.C,SW43*%
X132215000Y-79610000D03*
X145142000Y-77070000D03*
%TD*%
D10*
%TO.C,L91*%
X446700000Y-135605000D03*
X446700000Y-134105000D03*
X441500000Y-134105000D03*
X441500000Y-135605000D03*
%TD*%
%TO.C,L21*%
X113325000Y-68930000D03*
X113325000Y-67430000D03*
X108125000Y-67430000D03*
X108125000Y-68930000D03*
%TD*%
D11*
%TO.C,SW40*%
X75065000Y-79610000D03*
X87992000Y-77070000D03*
%TD*%
%TO.C,SW12*%
X275090000Y-31985000D03*
X288017000Y-29445000D03*
%TD*%
%TO.C,SW86*%
X277471300Y-117710000D03*
X290398300Y-115170000D03*
%TD*%
%TO.C,SW21*%
X103640000Y-60560000D03*
X116567000Y-58020000D03*
%TD*%
D10*
%TO.C,L95*%
X158568800Y-145130000D03*
X158568800Y-143630000D03*
X153368800Y-143630000D03*
X153368800Y-145130000D03*
%TD*%
%TO.C,L41*%
X103800000Y-87980000D03*
X103800000Y-86480000D03*
X98600000Y-86480000D03*
X98600000Y-87980000D03*
%TD*%
%TO.C,L65*%
X165712500Y-107030000D03*
X165712500Y-105530000D03*
X160512500Y-105530000D03*
X160512500Y-107030000D03*
%TD*%
%TO.C,L20*%
X94275000Y-68930000D03*
X94275000Y-67430000D03*
X89075000Y-67430000D03*
X89075000Y-68930000D03*
%TD*%
%TO.C,L1*%
X37125000Y-40355000D03*
X37125000Y-38855000D03*
X31925000Y-38855000D03*
X31925000Y-40355000D03*
%TD*%
%TO.C,L18*%
X56175000Y-68930000D03*
X56175000Y-67430000D03*
X50975000Y-67430000D03*
X50975000Y-68930000D03*
%TD*%
D11*
%TO.C,SW29*%
X256040000Y-60560000D03*
X268967000Y-58020000D03*
%TD*%
%TO.C,SW7*%
X170315000Y-31985000D03*
X183242000Y-29445000D03*
%TD*%
%TO.C,SW32*%
X337002500Y-60560000D03*
X349929500Y-58020000D03*
%TD*%
%TO.C,SW91*%
X437015000Y-127235000D03*
X449942000Y-124695000D03*
%TD*%
D10*
%TO.C,L79*%
X137137500Y-126080000D03*
X137137500Y-124580000D03*
X131937500Y-124580000D03*
X131937500Y-126080000D03*
%TD*%
D11*
%TO.C,SW37*%
X437015000Y-60560000D03*
X449942000Y-58020000D03*
%TD*%
%TO.C,SW84*%
X222702500Y-117710000D03*
X235629500Y-115170000D03*
%TD*%
D10*
%TO.C,L51*%
X299062500Y-87980000D03*
X299062500Y-86480000D03*
X293862500Y-86480000D03*
X293862500Y-87980000D03*
%TD*%
D11*
%TO.C,SW85*%
X241752500Y-117710000D03*
X254679500Y-115170000D03*
%TD*%
D10*
%TO.C,L7*%
X180000000Y-40355000D03*
X180000000Y-38855000D03*
X174800000Y-38855000D03*
X174800000Y-40355000D03*
%TD*%
%TO.C,L101*%
X346687500Y-145130000D03*
X346687500Y-143630000D03*
X341487500Y-143630000D03*
X341487500Y-145130000D03*
%TD*%
D11*
%TO.C,SW22*%
X122690000Y-60560000D03*
X135617000Y-58020000D03*
%TD*%
%TO.C,SW38*%
X32202500Y-79610000D03*
X45129500Y-77070000D03*
%TD*%
%TO.C,SW61*%
X79827500Y-98660000D03*
X92754500Y-96120000D03*
%TD*%
%TO.C,SW54*%
X356052500Y-79610000D03*
X368979500Y-77070000D03*
%TD*%
D10*
%TO.C,L40*%
X84750000Y-87980000D03*
X84750000Y-86480000D03*
X79550000Y-86480000D03*
X79550000Y-87980000D03*
%TD*%
D11*
%TO.C,SW28*%
X236990000Y-60560000D03*
X249917000Y-58020000D03*
%TD*%
D10*
%TO.C,L62*%
X108562500Y-107030000D03*
X108562500Y-105530000D03*
X103362500Y-105530000D03*
X103362500Y-107030000D03*
%TD*%
%TO.C,L45*%
X180000000Y-87980000D03*
X180000000Y-86480000D03*
X174800000Y-86480000D03*
X174800000Y-87980000D03*
%TD*%
%TO.C,L70*%
X260962500Y-107030000D03*
X260962500Y-105530000D03*
X255762500Y-105530000D03*
X255762500Y-107030000D03*
%TD*%
D11*
%TO.C,SW65*%
X156027500Y-98660000D03*
X168954500Y-96120000D03*
%TD*%
%TO.C,SW59*%
X34583800Y-98660000D03*
X47510800Y-96120000D03*
%TD*%
D10*
%TO.C,L12*%
X284775000Y-40355000D03*
X284775000Y-38855000D03*
X279575000Y-38855000D03*
X279575000Y-40355000D03*
%TD*%
%TO.C,L25*%
X189525000Y-68930000D03*
X189525000Y-67430000D03*
X184325000Y-67430000D03*
X184325000Y-68930000D03*
%TD*%
D11*
%TO.C,SW55*%
X379865000Y-79610000D03*
X392792000Y-77070000D03*
%TD*%
%TO.C,SW64*%
X136977500Y-98660000D03*
X149904500Y-96120000D03*
%TD*%
%TO.C,SW30*%
X284615000Y-60560000D03*
X297542000Y-58020000D03*
%TD*%
D10*
%TO.C,L55*%
X389550000Y-87980000D03*
X389550000Y-86480000D03*
X384350000Y-86480000D03*
X384350000Y-87980000D03*
%TD*%
%TO.C,L80*%
X156187500Y-126080000D03*
X156187500Y-124580000D03*
X150987500Y-124580000D03*
X150987500Y-126080000D03*
%TD*%
D11*
%TO.C,SW99*%
X291758800Y-136760000D03*
X304685800Y-134220000D03*
%TD*%
D10*
%TO.C,L103*%
X399075000Y-145130000D03*
X399075000Y-143630000D03*
X393875000Y-143630000D03*
X393875000Y-145130000D03*
%TD*%
D11*
%TO.C,SW75*%
X39346300Y-117710000D03*
X52273300Y-115170000D03*
%TD*%
D10*
%TO.C,L37*%
X446700000Y-68930000D03*
X446700000Y-67430000D03*
X441500000Y-67430000D03*
X441500000Y-68930000D03*
%TD*%
D11*
%TO.C,SW8*%
X189365000Y-31985000D03*
X202292000Y-29445000D03*
%TD*%
D10*
%TO.C,L38*%
X41887500Y-87980000D03*
X41887500Y-86480000D03*
X36687500Y-86480000D03*
X36687500Y-87980000D03*
%TD*%
D11*
%TO.C,SW26*%
X198890000Y-60560000D03*
X211817000Y-58020000D03*
%TD*%
%TO.C,SW70*%
X251277500Y-98660000D03*
X264204500Y-96120000D03*
%TD*%
D10*
%TO.C,L67*%
X203812500Y-107030000D03*
X203812500Y-105530000D03*
X198612500Y-105530000D03*
X198612500Y-107030000D03*
%TD*%
%TO.C,L97*%
X253818800Y-145130000D03*
X253818800Y-143630000D03*
X248618800Y-143630000D03*
X248618800Y-145130000D03*
%TD*%
%TO.C,L46*%
X199050000Y-87980000D03*
X199050000Y-86480000D03*
X193850000Y-86480000D03*
X193850000Y-87980000D03*
%TD*%
%TO.C,L77*%
X99037500Y-126080000D03*
X99037500Y-124580000D03*
X93837500Y-124580000D03*
X93837500Y-126080000D03*
%TD*%
%TO.C,L27*%
X227625000Y-68930000D03*
X227625000Y-67430000D03*
X222425000Y-67430000D03*
X222425000Y-68930000D03*
%TD*%
D11*
%TO.C,SW104*%
X417965000Y-136760000D03*
X430892000Y-134220000D03*
%TD*%
D10*
%TO.C,L36*%
X427650000Y-68930000D03*
X427650000Y-67430000D03*
X422450000Y-67430000D03*
X422450000Y-68930000D03*
%TD*%
%TO.C,L89*%
X408600000Y-126080000D03*
X408600000Y-124580000D03*
X403400000Y-124580000D03*
X403400000Y-126080000D03*
%TD*%
%TO.C,L39*%
X65700000Y-87980000D03*
X65700000Y-86480000D03*
X60500000Y-86480000D03*
X60500000Y-87980000D03*
%TD*%
D11*
%TO.C,SW46*%
X189365000Y-79610000D03*
X202292000Y-77070000D03*
%TD*%
D10*
%TO.C,L15*%
X346687500Y-40355000D03*
X346687500Y-38855000D03*
X341487500Y-38855000D03*
X341487500Y-40355000D03*
%TD*%
%TO.C,L19*%
X75225000Y-68930000D03*
X75225000Y-67430000D03*
X70025000Y-67430000D03*
X70025000Y-68930000D03*
%TD*%
D11*
%TO.C,SW33*%
X356052500Y-60560000D03*
X368979500Y-58020000D03*
%TD*%
%TO.C,SW103*%
X389390000Y-136760000D03*
X402317000Y-134220000D03*
%TD*%
%TO.C,SW44*%
X151265000Y-79610000D03*
X164192000Y-77070000D03*
%TD*%
D10*
%TO.C,L14*%
X327637500Y-40355000D03*
X327637500Y-38855000D03*
X322437500Y-38855000D03*
X322437500Y-40355000D03*
%TD*%
D11*
%TO.C,SW101*%
X337002500Y-136760000D03*
X349929500Y-134220000D03*
%TD*%
D10*
%TO.C,L50*%
X275250000Y-87980000D03*
X275250000Y-86480000D03*
X270050000Y-86480000D03*
X270050000Y-87980000D03*
%TD*%
%TO.C,L26*%
X208575000Y-68930000D03*
X208575000Y-67430000D03*
X203375000Y-67430000D03*
X203375000Y-68930000D03*
%TD*%
%TO.C,L69*%
X241912500Y-107030000D03*
X241912500Y-105530000D03*
X236712500Y-105530000D03*
X236712500Y-107030000D03*
%TD*%
D11*
%TO.C,SW100*%
X317952500Y-136760000D03*
X330879500Y-134220000D03*
%TD*%
D10*
%TO.C,L9*%
X218100000Y-40355000D03*
X218100000Y-38855000D03*
X212900000Y-38855000D03*
X212900000Y-40355000D03*
%TD*%
%TO.C,L31*%
X327637500Y-68930000D03*
X327637500Y-67430000D03*
X322437500Y-67430000D03*
X322437500Y-68930000D03*
%TD*%
D11*
%TO.C,SW66*%
X175077500Y-98660000D03*
X188004500Y-96120000D03*
%TD*%
D10*
%TO.C,L84*%
X232387500Y-126080000D03*
X232387500Y-124580000D03*
X227187500Y-124580000D03*
X227187500Y-126080000D03*
%TD*%
%TO.C,L4*%
X113325000Y-40355000D03*
X113325000Y-38855000D03*
X108125000Y-38855000D03*
X108125000Y-40355000D03*
%TD*%
%TO.C,L10*%
X246675000Y-40355000D03*
X246675000Y-38855000D03*
X241475000Y-38855000D03*
X241475000Y-40355000D03*
%TD*%
D11*
%TO.C,SW58*%
X437015000Y-89135000D03*
X449942000Y-86595000D03*
%TD*%
D10*
%TO.C,L93*%
X63318800Y-145130000D03*
X63318800Y-143630000D03*
X58118800Y-143630000D03*
X58118800Y-145130000D03*
%TD*%
D11*
%TO.C,SW5*%
X122690000Y-31985000D03*
X135617000Y-29445000D03*
%TD*%
D10*
%TO.C,L16*%
X365737500Y-40355000D03*
X365737500Y-38855000D03*
X360537500Y-38855000D03*
X360537500Y-40355000D03*
%TD*%
D11*
%TO.C,SW48*%
X227465000Y-79610000D03*
X240392000Y-77070000D03*
%TD*%
D10*
%TO.C,L30*%
X294300000Y-68930000D03*
X294300000Y-67430000D03*
X289100000Y-67430000D03*
X289100000Y-68930000D03*
%TD*%
%TO.C,L78*%
X118087500Y-126080000D03*
X118087500Y-124580000D03*
X112887500Y-124580000D03*
X112887500Y-126080000D03*
%TD*%
%TO.C,L96*%
X230006300Y-145130000D03*
X230006300Y-143630000D03*
X224806300Y-143630000D03*
X224806300Y-145130000D03*
%TD*%
%TO.C,L56*%
X408600000Y-87980000D03*
X408600000Y-86480000D03*
X403400000Y-86480000D03*
X403400000Y-87980000D03*
%TD*%
D11*
%TO.C,SW39*%
X56015000Y-79610000D03*
X68942000Y-77070000D03*
%TD*%
%TO.C,SW77*%
X89352500Y-117710000D03*
X102279500Y-115170000D03*
%TD*%
D10*
%TO.C,L102*%
X365737500Y-145130000D03*
X365737500Y-143630000D03*
X360537500Y-143630000D03*
X360537500Y-145130000D03*
%TD*%
%TO.C,L71*%
X291918800Y-107030000D03*
X291918800Y-105530000D03*
X286718800Y-105530000D03*
X286718800Y-107030000D03*
%TD*%
D11*
%TO.C,SW73*%
X398915000Y-98660000D03*
X411842000Y-96120000D03*
%TD*%
%TO.C,SW95*%
X148883800Y-136760000D03*
X161810800Y-134220000D03*
%TD*%
%TO.C,SW79*%
X127452500Y-117710000D03*
X140379500Y-115170000D03*
%TD*%
D10*
%TO.C,L32*%
X346687500Y-68930000D03*
X346687500Y-67430000D03*
X341487500Y-67430000D03*
X341487500Y-68930000D03*
%TD*%
D11*
%TO.C,SW93*%
X53633800Y-136760000D03*
X66560800Y-134220000D03*
%TD*%
%TO.C,SW62*%
X98877500Y-98660000D03*
X111804500Y-96120000D03*
%TD*%
%TO.C,SW88*%
X379865000Y-117710000D03*
X392792000Y-115170000D03*
%TD*%
%TO.C,SW82*%
X184602500Y-117710000D03*
X197529500Y-115170000D03*
%TD*%
D10*
%TO.C,L28*%
X246675000Y-68930000D03*
X246675000Y-67430000D03*
X241475000Y-67430000D03*
X241475000Y-68930000D03*
%TD*%
D11*
%TO.C,SW25*%
X179840000Y-60560000D03*
X192767000Y-58020000D03*
%TD*%
D10*
%TO.C,L48*%
X237150000Y-87980000D03*
X237150000Y-86480000D03*
X231950000Y-86480000D03*
X231950000Y-87980000D03*
%TD*%
D11*
%TO.C,SW41*%
X94115000Y-79610000D03*
X107042000Y-77070000D03*
%TD*%
D10*
%TO.C,L35*%
X408600000Y-68930000D03*
X408600000Y-67430000D03*
X403400000Y-67430000D03*
X403400000Y-68930000D03*
%TD*%
%TO.C,L94*%
X87131300Y-145130000D03*
X87131300Y-143630000D03*
X81931300Y-143630000D03*
X81931300Y-145130000D03*
%TD*%
%TO.C,L90*%
X427650000Y-126080000D03*
X427650000Y-124580000D03*
X422450000Y-124580000D03*
X422450000Y-126080000D03*
%TD*%
%TO.C,L57*%
X427650000Y-87980000D03*
X427650000Y-86480000D03*
X422450000Y-86480000D03*
X422450000Y-87980000D03*
%TD*%
D11*
%TO.C,SW80*%
X146502500Y-117710000D03*
X159429500Y-115170000D03*
%TD*%
%TO.C,SW27*%
X217940000Y-60560000D03*
X230867000Y-58020000D03*
%TD*%
%TO.C,SW92*%
X29821300Y-136760000D03*
X42748300Y-134220000D03*
%TD*%
D10*
%TO.C,L53*%
X346687500Y-87980000D03*
X346687500Y-86480000D03*
X341487500Y-86480000D03*
X341487500Y-87980000D03*
%TD*%
%TO.C,L17*%
X37125000Y-68930000D03*
X37125000Y-67430000D03*
X31925000Y-67430000D03*
X31925000Y-68930000D03*
%TD*%
D11*
%TO.C,SW90*%
X417965000Y-117710000D03*
X430892000Y-115170000D03*
%TD*%
D10*
%TO.C,L75*%
X49031300Y-126080000D03*
X49031300Y-124580000D03*
X43831300Y-124580000D03*
X43831300Y-126080000D03*
%TD*%
%TO.C,L13*%
X303825000Y-40355000D03*
X303825000Y-38855000D03*
X298625000Y-38855000D03*
X298625000Y-40355000D03*
%TD*%
D11*
%TO.C,SW49*%
X246515000Y-79610000D03*
X259442000Y-77070000D03*
%TD*%
%TO.C,SW42*%
X113165000Y-79610000D03*
X126092000Y-77070000D03*
%TD*%
D10*
%TO.C,L52*%
X327637500Y-87980000D03*
X327637500Y-86480000D03*
X322437500Y-86480000D03*
X322437500Y-87980000D03*
%TD*%
%TO.C,L22*%
X132375000Y-68930000D03*
X132375000Y-67430000D03*
X127175000Y-67430000D03*
X127175000Y-68930000D03*
%TD*%
D11*
%TO.C,SW36*%
X417965000Y-60560000D03*
X430892000Y-58020000D03*
%TD*%
%TO.C,SW16*%
X356052500Y-31985000D03*
X368979500Y-29445000D03*
%TD*%
D10*
%TO.C,L44*%
X160950000Y-87980000D03*
X160950000Y-86480000D03*
X155750000Y-86480000D03*
X155750000Y-87980000D03*
%TD*%
%TO.C,L60*%
X70462500Y-107030000D03*
X70462500Y-105530000D03*
X65262500Y-105530000D03*
X65262500Y-107030000D03*
%TD*%
%TO.C,L3*%
X94275000Y-40355000D03*
X94275000Y-38855000D03*
X89075000Y-38855000D03*
X89075000Y-40355000D03*
%TD*%
%TO.C,L49*%
X256200000Y-87980000D03*
X256200000Y-86480000D03*
X251000000Y-86480000D03*
X251000000Y-87980000D03*
%TD*%
%TO.C,L8*%
X199050000Y-40355000D03*
X199050000Y-38855000D03*
X193850000Y-38855000D03*
X193850000Y-40355000D03*
%TD*%
D11*
%TO.C,SW50*%
X265565000Y-79610000D03*
X278492000Y-77070000D03*
%TD*%
%TO.C,SW14*%
X317952500Y-31985000D03*
X330879500Y-29445000D03*
%TD*%
D10*
%TO.C,L11*%
X265725000Y-40355000D03*
X265725000Y-38855000D03*
X260525000Y-38855000D03*
X260525000Y-40355000D03*
%TD*%
%TO.C,L104*%
X427650000Y-145130000D03*
X427650000Y-143630000D03*
X422450000Y-143630000D03*
X422450000Y-145130000D03*
%TD*%
D11*
%TO.C,SW97*%
X244133800Y-136760000D03*
X257060800Y-134220000D03*
%TD*%
%TO.C,SW89*%
X398915000Y-117710000D03*
X411842000Y-115170000D03*
%TD*%
%TO.C,SW20*%
X84590000Y-60560000D03*
X97517000Y-58020000D03*
%TD*%
D10*
%TO.C,L59*%
X44268800Y-107030000D03*
X44268800Y-105530000D03*
X39068800Y-105530000D03*
X39068800Y-107030000D03*
%TD*%
D11*
%TO.C,SW11*%
X256040000Y-31985000D03*
X268967000Y-29445000D03*
%TD*%
%TO.C,SW23*%
X141740000Y-60560000D03*
X154667000Y-58020000D03*
%TD*%
D10*
%TO.C,L100*%
X327637500Y-145130000D03*
X327637500Y-143630000D03*
X322437500Y-143630000D03*
X322437500Y-145130000D03*
%TD*%
D11*
%TO.C,SW4*%
X103640000Y-31985000D03*
X116567000Y-29445000D03*
%TD*%
D10*
%TO.C,L73*%
X408600000Y-107030000D03*
X408600000Y-105530000D03*
X403400000Y-105530000D03*
X403400000Y-107030000D03*
%TD*%
D11*
%TO.C,SW98*%
X267946300Y-136760000D03*
X280873300Y-134220000D03*
%TD*%
%TO.C,SW34*%
X379865000Y-60560000D03*
X392792000Y-58020000D03*
%TD*%
D10*
%TO.C,L68*%
X222862500Y-107030000D03*
X222862500Y-105530000D03*
X217662500Y-105530000D03*
X217662500Y-107030000D03*
%TD*%
%TO.C,L92*%
X39506300Y-145130000D03*
X39506300Y-143630000D03*
X34306300Y-143630000D03*
X34306300Y-145130000D03*
%TD*%
D11*
%TO.C,SW63*%
X117927500Y-98660000D03*
X130854500Y-96120000D03*
%TD*%
%TO.C,SW24*%
X160790000Y-60560000D03*
X173717000Y-58020000D03*
%TD*%
%TO.C,SW81*%
X165552500Y-117710000D03*
X178479500Y-115170000D03*
%TD*%
%TO.C,SW94*%
X77446300Y-136760000D03*
X90373300Y-134220000D03*
%TD*%
%TO.C,SW13*%
X294140000Y-31985000D03*
X307067000Y-29445000D03*
%TD*%
D10*
%TO.C,L85*%
X251437500Y-126080000D03*
X251437500Y-124580000D03*
X246237500Y-124580000D03*
X246237500Y-126080000D03*
%TD*%
D11*
%TO.C,SW57*%
X417965000Y-79610000D03*
X430892000Y-77070000D03*
%TD*%
%TO.C,SW102*%
X356052500Y-136760000D03*
X368979500Y-134220000D03*
%TD*%
%TO.C,SW56*%
X398915000Y-79610000D03*
X411842000Y-77070000D03*
%TD*%
D10*
%TO.C,L72*%
X389550000Y-107030000D03*
X389550000Y-105530000D03*
X384350000Y-105530000D03*
X384350000Y-107030000D03*
%TD*%
D11*
%TO.C,SW2*%
X65540000Y-31985000D03*
X78467000Y-29445000D03*
%TD*%
%TO.C,SW9*%
X208415000Y-31985000D03*
X221342000Y-29445000D03*
%TD*%
D10*
%TO.C,L87*%
X346687500Y-126080000D03*
X346687500Y-124580000D03*
X341487500Y-124580000D03*
X341487500Y-126080000D03*
%TD*%
%TO.C,L24*%
X170475000Y-68930000D03*
X170475000Y-67430000D03*
X165275000Y-67430000D03*
X165275000Y-68930000D03*
%TD*%
D11*
%TO.C,SW52*%
X317952500Y-79610000D03*
X330879500Y-77070000D03*
%TD*%
%TO.C,SW71*%
X282233800Y-98660000D03*
X295160800Y-96120000D03*
%TD*%
D10*
%TO.C,L82*%
X194287500Y-126080000D03*
X194287500Y-124580000D03*
X189087500Y-124580000D03*
X189087500Y-126080000D03*
%TD*%
%TO.C,L34*%
X389550000Y-68930000D03*
X389550000Y-67430000D03*
X384350000Y-67430000D03*
X384350000Y-68930000D03*
%TD*%
%TO.C,L58*%
X446700000Y-97505000D03*
X446700000Y-96005000D03*
X441500000Y-96005000D03*
X441500000Y-97505000D03*
%TD*%
D11*
%TO.C,SW18*%
X46490000Y-60560000D03*
X59417000Y-58020000D03*
%TD*%
D10*
%TO.C,L47*%
X218100000Y-87980000D03*
X218100000Y-86480000D03*
X212900000Y-86480000D03*
X212900000Y-87980000D03*
%TD*%
%TO.C,L5*%
X132375000Y-40355000D03*
X132375000Y-38855000D03*
X127175000Y-38855000D03*
X127175000Y-40355000D03*
%TD*%
D11*
%TO.C,SW47*%
X208415000Y-79610000D03*
X221342000Y-77070000D03*
%TD*%
%TO.C,SW3*%
X84590000Y-31985000D03*
X97517000Y-29445000D03*
%TD*%
%TO.C,SW45*%
X170315000Y-79610000D03*
X183242000Y-77070000D03*
%TD*%
D12*
%TO.C,C1*%
X31300000Y-36525000D03*
X29750000Y-36525000D03*
%TD*%
%TO.C,C24*%
X164650000Y-65100000D03*
X163100000Y-65100000D03*
%TD*%
%TO.C,C59*%
X38443800Y-103200000D03*
X36893800Y-103200000D03*
%TD*%
%TO.C,C15*%
X340862500Y-36525000D03*
X339312500Y-36525000D03*
%TD*%
D13*
%TO.C,D6*%
X163430000Y-36617500D03*
X163430000Y-38492500D03*
%TD*%
D12*
%TO.C,C23*%
X145600000Y-65100000D03*
X144050000Y-65100000D03*
%TD*%
%TO.C,C46*%
X193225000Y-84150000D03*
X191675000Y-84150000D03*
%TD*%
D13*
%TO.C,D77*%
X101517500Y-122342500D03*
X101517500Y-124217500D03*
%TD*%
D12*
%TO.C,C103*%
X393250000Y-141300000D03*
X391700000Y-141300000D03*
%TD*%
D13*
%TO.C,D27*%
X230105000Y-65192500D03*
X230105000Y-67067500D03*
%TD*%
D14*
%TO.C,R1*%
X375007500Y-20320000D03*
X376832500Y-20320000D03*
%TD*%
D12*
%TO.C,C26*%
X202750000Y-65100000D03*
X201200000Y-65100000D03*
%TD*%
%TO.C,C3*%
X88450000Y-36525000D03*
X86900000Y-36525000D03*
%TD*%
%TO.C,C96*%
X224181300Y-141300000D03*
X222631300Y-141300000D03*
%TD*%
%TO.C,C29*%
X259900000Y-65100000D03*
X258350000Y-65100000D03*
%TD*%
D13*
%TO.C,D21*%
X115805000Y-65192500D03*
X115805000Y-67067500D03*
%TD*%
%TO.C,D99*%
X303923800Y-141392500D03*
X303923800Y-143267500D03*
%TD*%
%TO.C,D97*%
X256298800Y-141392500D03*
X256298800Y-143267500D03*
%TD*%
%TO.C,D89*%
X411080000Y-122342500D03*
X411080000Y-124217500D03*
%TD*%
D12*
%TO.C,C54*%
X359912500Y-84150000D03*
X358362500Y-84150000D03*
%TD*%
%TO.C,C11*%
X259900000Y-36525000D03*
X258350000Y-36525000D03*
%TD*%
D13*
%TO.C,D25*%
X192005000Y-65192500D03*
X192005000Y-67067500D03*
%TD*%
D12*
%TO.C,C72*%
X383725000Y-103200000D03*
X382175000Y-103200000D03*
%TD*%
D13*
%TO.C,D50*%
X277730000Y-84242500D03*
X277730000Y-86117500D03*
%TD*%
D12*
%TO.C,C34*%
X383725000Y-65100000D03*
X382175000Y-65100000D03*
%TD*%
%TO.C,C86*%
X281331300Y-122250000D03*
X279781300Y-122250000D03*
%TD*%
D13*
%TO.C,D95*%
X161048800Y-141392500D03*
X161048800Y-143267500D03*
%TD*%
D12*
%TO.C,C104*%
X421825000Y-141300000D03*
X420275000Y-141300000D03*
%TD*%
D13*
%TO.C,D76*%
X82467500Y-122342500D03*
X82467500Y-124217500D03*
%TD*%
%TO.C,D38*%
X44367500Y-84242500D03*
X44367500Y-86117500D03*
%TD*%
%TO.C,D1*%
X39605000Y-36617500D03*
X39605000Y-38492500D03*
%TD*%
D12*
%TO.C,C85*%
X245612500Y-122250000D03*
X244062500Y-122250000D03*
%TD*%
D13*
%TO.C,D26*%
X211055000Y-65192500D03*
X211055000Y-67067500D03*
%TD*%
D12*
%TO.C,C60*%
X64637500Y-103200000D03*
X63087500Y-103200000D03*
%TD*%
%TO.C,C40*%
X78925000Y-84150000D03*
X77375000Y-84150000D03*
%TD*%
%TO.C,C35*%
X402775000Y-65100000D03*
X401225000Y-65100000D03*
%TD*%
D13*
%TO.C,D82*%
X196767500Y-122342500D03*
X196767500Y-124217500D03*
%TD*%
D12*
%TO.C,C70*%
X255137500Y-103200000D03*
X253587500Y-103200000D03*
%TD*%
D13*
%TO.C,D81*%
X177717500Y-122342500D03*
X177717500Y-124217500D03*
%TD*%
D12*
%TO.C,C45*%
X174175000Y-84150000D03*
X172625000Y-84150000D03*
%TD*%
%TO.C,C101*%
X340862500Y-141300000D03*
X339312500Y-141300000D03*
%TD*%
D13*
%TO.C,D40*%
X87230000Y-84242500D03*
X87230000Y-86117500D03*
%TD*%
%TO.C,D14*%
X330117500Y-36617500D03*
X330117500Y-38492500D03*
%TD*%
%TO.C,D41*%
X106280000Y-84242500D03*
X106280000Y-86117500D03*
%TD*%
D12*
%TO.C,C82*%
X188462500Y-122250000D03*
X186912500Y-122250000D03*
%TD*%
%TO.C,C55*%
X383725000Y-84150000D03*
X382175000Y-84150000D03*
%TD*%
%TO.C,C75*%
X43206300Y-122250000D03*
X41656300Y-122250000D03*
%TD*%
D13*
%TO.C,D51*%
X301542500Y-84242500D03*
X301542500Y-86117500D03*
%TD*%
%TO.C,D66*%
X187242500Y-103292500D03*
X187242500Y-105167500D03*
%TD*%
%TO.C,D33*%
X368217500Y-65192500D03*
X368217500Y-67067500D03*
%TD*%
%TO.C,D57*%
X430130000Y-84242500D03*
X430130000Y-86117500D03*
%TD*%
D12*
%TO.C,C68*%
X217037500Y-103200000D03*
X215487500Y-103200000D03*
%TD*%
D13*
%TO.C,D62*%
X111042500Y-103292500D03*
X111042500Y-105167500D03*
%TD*%
%TO.C,D53*%
X349167500Y-84242500D03*
X349167500Y-86117500D03*
%TD*%
D12*
%TO.C,C31*%
X321812500Y-65100000D03*
X320262500Y-65100000D03*
%TD*%
D13*
%TO.C,D87*%
X349167500Y-122342500D03*
X349167500Y-124217500D03*
%TD*%
D12*
%TO.C,C51*%
X293237500Y-84150000D03*
X291687500Y-84150000D03*
%TD*%
D13*
%TO.C,D98*%
X280111300Y-141392500D03*
X280111300Y-143267500D03*
%TD*%
%TO.C,D42*%
X125330000Y-84242500D03*
X125330000Y-86117500D03*
%TD*%
D12*
%TO.C,C73*%
X402775000Y-103200000D03*
X401225000Y-103200000D03*
%TD*%
%TO.C,C44*%
X155125000Y-84150000D03*
X153575000Y-84150000D03*
%TD*%
%TO.C,C48*%
X231325000Y-84150000D03*
X229775000Y-84150000D03*
%TD*%
D13*
%TO.C,D36*%
X430130000Y-65192500D03*
X430130000Y-67067500D03*
%TD*%
D12*
%TO.C,C94*%
X81306300Y-141300000D03*
X79756300Y-141300000D03*
%TD*%
D13*
%TO.C,D56*%
X411080000Y-84242500D03*
X411080000Y-86117500D03*
%TD*%
%TO.C,D85*%
X253917500Y-122342500D03*
X253917500Y-124217500D03*
%TD*%
%TO.C,D23*%
X153905000Y-65192500D03*
X153905000Y-67067500D03*
%TD*%
%TO.C,D91*%
X449180000Y-131867500D03*
X449180000Y-133742500D03*
%TD*%
%TO.C,D96*%
X232486300Y-141392500D03*
X232486300Y-143267500D03*
%TD*%
%TO.C,D2*%
X77705000Y-36617500D03*
X77705000Y-38492500D03*
%TD*%
D12*
%TO.C,C38*%
X36062500Y-84150000D03*
X34512500Y-84150000D03*
%TD*%
%TO.C,C76*%
X74162500Y-122250000D03*
X72612500Y-122250000D03*
%TD*%
%TO.C,C81*%
X169412500Y-122250000D03*
X167862500Y-122250000D03*
%TD*%
D13*
%TO.C,D48*%
X239630000Y-84242500D03*
X239630000Y-86117500D03*
%TD*%
D12*
%TO.C,C28*%
X240850000Y-65100000D03*
X239300000Y-65100000D03*
%TD*%
D13*
%TO.C,D32*%
X349167500Y-65192500D03*
X349167500Y-67067500D03*
%TD*%
D12*
%TO.C,C19*%
X69400000Y-65100000D03*
X67850000Y-65100000D03*
%TD*%
D13*
%TO.C,D92*%
X41986300Y-141392500D03*
X41986300Y-143267500D03*
%TD*%
%TO.C,D73*%
X411080000Y-103292500D03*
X411080000Y-105167500D03*
%TD*%
%TO.C,D61*%
X91992500Y-103292500D03*
X91992500Y-105167500D03*
%TD*%
D12*
%TO.C,C27*%
X221800000Y-65100000D03*
X220250000Y-65100000D03*
%TD*%
%TO.C,C61*%
X83687500Y-103200000D03*
X82137500Y-103200000D03*
%TD*%
%TO.C,C83*%
X207512500Y-122250000D03*
X205962500Y-122250000D03*
%TD*%
%TO.C,C98*%
X271806300Y-141300000D03*
X270256300Y-141300000D03*
%TD*%
D13*
%TO.C,D7*%
X182480000Y-36617500D03*
X182480000Y-38492500D03*
%TD*%
D12*
%TO.C,C80*%
X150362500Y-122250000D03*
X148812500Y-122250000D03*
%TD*%
%TO.C,C25*%
X183700000Y-65100000D03*
X182150000Y-65100000D03*
%TD*%
D13*
%TO.C,D90*%
X430130000Y-122342500D03*
X430130000Y-124217500D03*
%TD*%
%TO.C,D79*%
X139617500Y-122342500D03*
X139617500Y-124217500D03*
%TD*%
D12*
%TO.C,C5*%
X126550000Y-36525000D03*
X125000000Y-36525000D03*
%TD*%
D13*
%TO.C,D8*%
X201530000Y-36617500D03*
X201530000Y-38492500D03*
%TD*%
%TO.C,D75*%
X51511300Y-122342500D03*
X51511300Y-124217500D03*
%TD*%
D12*
%TO.C,C84*%
X226562500Y-122250000D03*
X225012500Y-122250000D03*
%TD*%
%TO.C,C12*%
X278950000Y-36525000D03*
X277400000Y-36525000D03*
%TD*%
%TO.C,C100*%
X321812500Y-141300000D03*
X320262500Y-141300000D03*
%TD*%
%TO.C,C41*%
X97975000Y-84150000D03*
X96425000Y-84150000D03*
%TD*%
D13*
%TO.C,D54*%
X368217500Y-84242500D03*
X368217500Y-86117500D03*
%TD*%
D12*
%TO.C,C30*%
X288475000Y-65100000D03*
X286925000Y-65100000D03*
%TD*%
D13*
%TO.C,D93*%
X65798800Y-141392500D03*
X65798800Y-143267500D03*
%TD*%
D12*
%TO.C,C67*%
X197987500Y-103200000D03*
X196437500Y-103200000D03*
%TD*%
%TO.C,C18*%
X50350000Y-65100000D03*
X48800000Y-65100000D03*
%TD*%
%TO.C,C74*%
X421825000Y-103200000D03*
X420275000Y-103200000D03*
%TD*%
D13*
%TO.C,D5*%
X134855000Y-36617500D03*
X134855000Y-38492500D03*
%TD*%
%TO.C,D100*%
X330117500Y-141392500D03*
X330117500Y-143267500D03*
%TD*%
%TO.C,D101*%
X349167500Y-141392500D03*
X349167500Y-143267500D03*
%TD*%
D12*
%TO.C,C65*%
X159887500Y-103200000D03*
X158337500Y-103200000D03*
%TD*%
%TO.C,C102*%
X359912500Y-141300000D03*
X358362500Y-141300000D03*
%TD*%
D13*
%TO.C,D43*%
X144380000Y-84242500D03*
X144380000Y-86117500D03*
%TD*%
D12*
%TO.C,C89*%
X402775000Y-122250000D03*
X401225000Y-122250000D03*
%TD*%
%TO.C,C10*%
X240850000Y-36525000D03*
X239300000Y-36525000D03*
%TD*%
D13*
%TO.C,D70*%
X263442500Y-103292500D03*
X263442500Y-105167500D03*
%TD*%
%TO.C,D20*%
X96755000Y-65192500D03*
X96755000Y-67067500D03*
%TD*%
%TO.C,D83*%
X215817500Y-122342500D03*
X215817500Y-124217500D03*
%TD*%
D12*
%TO.C,C4*%
X107500000Y-36525000D03*
X105950000Y-36525000D03*
%TD*%
D15*
%TO.C,J4*%
X382580000Y-21045000D03*
X383380000Y-21045000D03*
D16*
X384580000Y-21045000D03*
X385580000Y-21045000D03*
X386080000Y-21045000D03*
X387080000Y-21045000D03*
D15*
X388280000Y-21045000D03*
X389080000Y-21045000D03*
X389080000Y-21045000D03*
X388280000Y-21045000D03*
D16*
X387580000Y-21045000D03*
X386580000Y-21045000D03*
X385080000Y-21045000D03*
X384080000Y-21045000D03*
D15*
X383380000Y-21045000D03*
X382580000Y-21045000D03*
%TD*%
D13*
%TO.C,D94*%
X89611300Y-141392500D03*
X89611300Y-143267500D03*
%TD*%
D12*
%TO.C,C21*%
X107500000Y-65100000D03*
X105950000Y-65100000D03*
%TD*%
%TO.C,C79*%
X131312500Y-122250000D03*
X129762500Y-122250000D03*
%TD*%
%TO.C,C87*%
X340862500Y-122250000D03*
X339312500Y-122250000D03*
%TD*%
D13*
%TO.C,D4*%
X115805000Y-36617500D03*
X115805000Y-38492500D03*
%TD*%
%TO.C,D102*%
X368217500Y-141392500D03*
X368217500Y-143267500D03*
%TD*%
D14*
%TO.C,R2*%
X375007500Y-25400000D03*
X376832500Y-25400000D03*
%TD*%
D13*
%TO.C,D18*%
X58655000Y-65192500D03*
X58655000Y-67067500D03*
%TD*%
D12*
%TO.C,C90*%
X421825000Y-122250000D03*
X420275000Y-122250000D03*
%TD*%
%TO.C,C50*%
X269425000Y-84150000D03*
X267875000Y-84150000D03*
%TD*%
%TO.C,C36*%
X421825000Y-65100000D03*
X420275000Y-65100000D03*
%TD*%
D13*
%TO.C,D34*%
X392030000Y-65192500D03*
X392030000Y-67067500D03*
%TD*%
%TO.C,D84*%
X234867500Y-122342500D03*
X234867500Y-124217500D03*
%TD*%
%TO.C,D63*%
X130092500Y-103292500D03*
X130092500Y-105167500D03*
%TD*%
D12*
%TO.C,C20*%
X88450000Y-65100000D03*
X86900000Y-65100000D03*
%TD*%
%TO.C,C71*%
X286093800Y-103200000D03*
X284543800Y-103200000D03*
%TD*%
%TO.C,C93*%
X57493800Y-141300000D03*
X55943800Y-141300000D03*
%TD*%
D13*
%TO.C,D17*%
X39605000Y-65192500D03*
X39605000Y-67067500D03*
%TD*%
D12*
%TO.C,C66*%
X178937500Y-103200000D03*
X177387500Y-103200000D03*
%TD*%
D13*
%TO.C,D46*%
X201530000Y-84242500D03*
X201530000Y-86117500D03*
%TD*%
D12*
%TO.C,C14*%
X321812500Y-36525000D03*
X320262500Y-36525000D03*
%TD*%
%TO.C,C6*%
X155125000Y-36525000D03*
X153575000Y-36525000D03*
%TD*%
%TO.C,C63*%
X121787500Y-103200000D03*
X120237500Y-103200000D03*
%TD*%
D13*
%TO.C,D49*%
X258680000Y-84242500D03*
X258680000Y-86117500D03*
%TD*%
%TO.C,D60*%
X72942500Y-103292500D03*
X72942500Y-105167500D03*
%TD*%
%TO.C,D13*%
X306305000Y-36617500D03*
X306305000Y-38492500D03*
%TD*%
D12*
%TO.C,C62*%
X102737500Y-103200000D03*
X101187500Y-103200000D03*
%TD*%
D13*
%TO.C,D22*%
X134855000Y-65192500D03*
X134855000Y-67067500D03*
%TD*%
%TO.C,D104*%
X430130000Y-141392500D03*
X430130000Y-143267500D03*
%TD*%
%TO.C,D68*%
X225342500Y-103292500D03*
X225342500Y-105167500D03*
%TD*%
%TO.C,D59*%
X46748800Y-103292500D03*
X46748800Y-105167500D03*
%TD*%
%TO.C,D10*%
X249155000Y-36617500D03*
X249155000Y-38492500D03*
%TD*%
D12*
%TO.C,C7*%
X174175000Y-36525000D03*
X172625000Y-36525000D03*
%TD*%
D13*
%TO.C,D30*%
X296780000Y-65192500D03*
X296780000Y-67067500D03*
%TD*%
%TO.C,D103*%
X401555000Y-141392500D03*
X401555000Y-143267500D03*
%TD*%
D12*
%TO.C,C57*%
X421825000Y-84150000D03*
X420275000Y-84150000D03*
%TD*%
D13*
%TO.C,D88*%
X392030000Y-122342500D03*
X392030000Y-124217500D03*
%TD*%
D12*
%TO.C,C47*%
X212275000Y-84150000D03*
X210725000Y-84150000D03*
%TD*%
D13*
%TO.C,D65*%
X168192500Y-103292500D03*
X168192500Y-105167500D03*
%TD*%
%TO.C,D12*%
X287255000Y-36617500D03*
X287255000Y-38492500D03*
%TD*%
%TO.C,D37*%
X449180000Y-65192500D03*
X449180000Y-67067500D03*
%TD*%
%TO.C,D52*%
X330117500Y-84242500D03*
X330117500Y-86117500D03*
%TD*%
D12*
%TO.C,C53*%
X340862500Y-84150000D03*
X339312500Y-84150000D03*
%TD*%
D13*
%TO.C,D11*%
X268205000Y-36617500D03*
X268205000Y-38492500D03*
%TD*%
%TO.C,D78*%
X120567500Y-122342500D03*
X120567500Y-124217500D03*
%TD*%
D12*
%TO.C,C92*%
X33681300Y-141300000D03*
X32131300Y-141300000D03*
%TD*%
D13*
%TO.C,D71*%
X294398800Y-103292500D03*
X294398800Y-105167500D03*
%TD*%
%TO.C,D55*%
X392030000Y-84242500D03*
X392030000Y-86117500D03*
%TD*%
D12*
%TO.C,C22*%
X126550000Y-65100000D03*
X125000000Y-65100000D03*
%TD*%
%TO.C,C9*%
X212275000Y-36525000D03*
X210725000Y-36525000D03*
%TD*%
%TO.C,C13*%
X298000000Y-36525000D03*
X296450000Y-36525000D03*
%TD*%
%TO.C,C95*%
X152743800Y-141300000D03*
X151193800Y-141300000D03*
%TD*%
D13*
%TO.C,D74*%
X430130000Y-103292500D03*
X430130000Y-105167500D03*
%TD*%
%TO.C,D39*%
X68180000Y-84242500D03*
X68180000Y-86117500D03*
%TD*%
D12*
%TO.C,C58*%
X440875000Y-93675000D03*
X439325000Y-93675000D03*
%TD*%
%TO.C,C8*%
X193225000Y-36525000D03*
X191675000Y-36525000D03*
%TD*%
%TO.C,C99*%
X295618800Y-141300000D03*
X294068800Y-141300000D03*
%TD*%
%TO.C,C69*%
X236087500Y-103200000D03*
X234537500Y-103200000D03*
%TD*%
%TO.C,C52*%
X321812500Y-84150000D03*
X320262500Y-84150000D03*
%TD*%
%TO.C,C2*%
X69400000Y-36525000D03*
X67850000Y-36525000D03*
%TD*%
%TO.C,C17*%
X31300000Y-65100000D03*
X29750000Y-65100000D03*
%TD*%
%TO.C,C16*%
X359912500Y-36525000D03*
X358362500Y-36525000D03*
%TD*%
D13*
%TO.C,D15*%
X349167500Y-36617500D03*
X349167500Y-38492500D03*
%TD*%
%TO.C,D47*%
X220580000Y-84242500D03*
X220580000Y-86117500D03*
%TD*%
D12*
%TO.C,C39*%
X59875000Y-84150000D03*
X58325000Y-84150000D03*
%TD*%
D13*
%TO.C,D80*%
X158667500Y-122342500D03*
X158667500Y-124217500D03*
%TD*%
D12*
%TO.C,C77*%
X93212500Y-122250000D03*
X91662500Y-122250000D03*
%TD*%
D13*
%TO.C,D29*%
X268205000Y-65192500D03*
X268205000Y-67067500D03*
%TD*%
%TO.C,D35*%
X411080000Y-65192500D03*
X411080000Y-67067500D03*
%TD*%
%TO.C,D44*%
X163430000Y-84242500D03*
X163430000Y-86117500D03*
%TD*%
D12*
%TO.C,C42*%
X117025000Y-84150000D03*
X115475000Y-84150000D03*
%TD*%
D13*
%TO.C,D67*%
X206292500Y-103292500D03*
X206292500Y-105167500D03*
%TD*%
%TO.C,D31*%
X330117500Y-65192500D03*
X330117500Y-67067500D03*
%TD*%
%TO.C,D69*%
X244392500Y-103292500D03*
X244392500Y-105167500D03*
%TD*%
D12*
%TO.C,C37*%
X440875000Y-65100000D03*
X439325000Y-65100000D03*
%TD*%
D13*
%TO.C,D45*%
X182480000Y-84242500D03*
X182480000Y-86117500D03*
%TD*%
%TO.C,D28*%
X249155000Y-65192500D03*
X249155000Y-67067500D03*
%TD*%
D17*
%TO.C,D105*%
X382875000Y-25400000D03*
X381000000Y-25400000D03*
%TD*%
D13*
%TO.C,D72*%
X392030000Y-103292500D03*
X392030000Y-105167500D03*
%TD*%
D12*
%TO.C,C64*%
X140837500Y-103200000D03*
X139287500Y-103200000D03*
%TD*%
D13*
%TO.C,D64*%
X149142500Y-103292500D03*
X149142500Y-105167500D03*
%TD*%
D12*
%TO.C,C78*%
X112262500Y-122250000D03*
X110712500Y-122250000D03*
%TD*%
%TO.C,C91*%
X440875000Y-131775000D03*
X439325000Y-131775000D03*
%TD*%
D13*
%TO.C,D16*%
X368217500Y-36617500D03*
X368217500Y-38492500D03*
%TD*%
D12*
%TO.C,C56*%
X402775000Y-84150000D03*
X401225000Y-84150000D03*
%TD*%
D13*
%TO.C,D3*%
X96755000Y-36617500D03*
X96755000Y-38492500D03*
%TD*%
%TO.C,D19*%
X77705000Y-65192500D03*
X77705000Y-67067500D03*
%TD*%
%TO.C,D24*%
X172955000Y-65192500D03*
X172955000Y-67067500D03*
%TD*%
D12*
%TO.C,C97*%
X247993800Y-141300000D03*
X246443800Y-141300000D03*
%TD*%
%TO.C,C33*%
X359912500Y-65100000D03*
X358362500Y-65100000D03*
%TD*%
%TO.C,C32*%
X340862500Y-65100000D03*
X339312500Y-65100000D03*
%TD*%
D13*
%TO.C,D58*%
X449180000Y-93767500D03*
X449180000Y-95642500D03*
%TD*%
%TO.C,D9*%
X220580000Y-36617500D03*
X220580000Y-38492500D03*
%TD*%
D12*
%TO.C,C49*%
X250375000Y-84150000D03*
X248825000Y-84150000D03*
%TD*%
%TO.C,C88*%
X383725000Y-122250000D03*
X382175000Y-122250000D03*
%TD*%
%TO.C,C43*%
X136075000Y-84150000D03*
X134525000Y-84150000D03*
%TD*%
D13*
%TO.C,D86*%
X289636300Y-122342500D03*
X289636300Y-124217500D03*
%TD*%
M02*
